<?xml version="1.0" encoding="utf-8"?>
<!-- Generator: Adobe Illustrator 27.9.0, SVG Export Plug-In . SVG Version: 6.00 Build 0)  -->
<svg version="1.1" xmlns="http://www.w3.org/2000/svg" xmlns:xlink="http://www.w3.org/1999/xlink" x="0px" y="0px"
	 viewBox="0 0 500 500" style="enable-background:new 0 0 500 500;" xml:space="preserve">
<style type="text/css">
	.st0{fill:#EBEBEB;}
	.st1{fill:#E6E6E6;}
	.st2{fill:#FAFAFA;}
	.st3{fill:#F5F5F5;}
	.st4{fill:#F0F0F0;}
	.st5{fill:#E0E0E0;}
	.st6{fill:#FFFFFF;}
	.st7{fill:#F0F0F0;stroke:#E0E0E0;stroke-width:2;stroke-linecap:round;stroke-linejoin:round;stroke-miterlimit:10;}
	.st8{fill:#407BFF;}
	.st9{opacity:0.2;enable-background:new    ;}
	.st10{fill:#263238;}
	.st11{opacity:0.5;fill:#FFFFFF;}
	.st12{opacity:0.5;fill:#FFFFFF;enable-background:new    ;}
	.st13{opacity:0.6;fill:#FFFFFF;}
	.st14{fill:#B97964;}
	.st15{fill:#A24E3F;}
	.st16{fill:none;stroke:#263238;stroke-width:0.7247;stroke-linecap:round;stroke-linejoin:round;stroke-miterlimit:10;}
	.st17{fill:#DE5753;}
	.st18{fill:none;stroke:#263238;stroke-width:0.5;stroke-linecap:round;stroke-linejoin:round;stroke-miterlimit:10;}
	.st19{opacity:0.8;enable-background:new    ;}
	.st20{opacity:0.1;fill:#FFFFFF;enable-background:new    ;}
	.st21{opacity:0.1;enable-background:new    ;}
	.st22{opacity:0.6;fill:#FFFFFF;enable-background:new    ;}
	.st23{fill:none;stroke:#FFFFFF;stroke-linecap:round;stroke-linejoin:round;stroke-miterlimit:10;}
	.st24{opacity:5.000000e-02;enable-background:new    ;}
	.st25{opacity:0.3;fill:#FFFFFF;}
	.st26{opacity:0.4;}
	.st27{opacity:0.4;fill:#FFFFFF;}
	.st28{opacity:0.2;fill:#FFFFFF;}
	.st29{fill:none;stroke:#263238;stroke-miterlimit:10;}
</style>
<g id="Background_Complete">
	<g>
		<rect y="382.4" class="st0" width="500" height="0.2"/>
		<rect x="416.8" y="398.5" class="st0" width="33.1" height="0.2"/>
		<rect x="322.5" y="401.2" class="st0" width="8.7" height="0.2"/>
		<rect x="396.6" y="389.2" class="st0" width="19.2" height="0.2"/>
		<rect x="52.5" y="390.9" class="st0" width="43.2" height="0.2"/>
		<rect x="104.6" y="390.9" class="st0" width="6.3" height="0.2"/>
		<rect x="131.5" y="395.1" class="st0" width="93.7" height="0.2"/>
		<path class="st0" d="M237,337.8H43.9c-3.1,0-5.7-2.6-5.7-5.7V60.7c0-3.1,2.6-5.7,5.7-5.7H237c3.1,0,5.7,2.6,5.7,5.7v271.4
			C242.7,335.2,240.2,337.8,237,337.8z M43.9,55.2c-3,0-5.5,2.4-5.5,5.5v271.4c0,3,2.4,5.5,5.5,5.5H237c3,0,5.5-2.4,5.5-5.5V60.7
			c0-3-2.4-5.5-5.5-5.5H43.9z"/>
		<path class="st0" d="M453.3,337.8H260.2c-3.1,0-5.7-2.6-5.7-5.7V60.7c0-3.1,2.6-5.7,5.7-5.7h193.1c3.1,0,5.7,2.6,5.7,5.7v271.4
			C459,335.2,456.5,337.8,453.3,337.8z M260.2,55.2c-3,0-5.5,2.4-5.5,5.5v271.4c0,3,2.4,5.5,5.5,5.5h193.1c3,0,5.5-2.4,5.5-5.5V60.7
			c0-3-2.4-5.5-5.5-5.5H260.2z"/>
	</g>
	<g>
		<g>
			
				<rect x="271" y="290.1" transform="matrix(-1 -1.224647e-16 1.224647e-16 -1 617.7737 661.7739)" class="st1" width="75.8" height="81.6"/>
			
				<rect x="259.4" y="284" transform="matrix(-1 -1.224647e-16 1.224647e-16 -1 528.3476 666.2913)" class="st1" width="9.5" height="98.3"/>
			
				<rect x="328.5" y="296.5" transform="matrix(-1 -1.224647e-16 1.224647e-16 -1 663.2343 623.5175)" class="st2" width="6.2" height="30.5"/>
			
				<rect x="302.8" y="296.5" transform="matrix(-1 -1.224647e-16 1.224647e-16 -1 611.7268 623.5175)" class="st3" width="6.2" height="30.5"/>
			
				<rect x="322.3" y="298.7" transform="matrix(-1 -1.224647e-16 1.224647e-16 -1 650.8115 625.6604)" class="st3" width="6.2" height="28.3"/>
			
				<rect x="309" y="298.7" transform="matrix(-1 -1.224647e-16 1.224647e-16 -1 624.1496 625.6604)" class="st2" width="6.2" height="28.3"/>
			
				<rect x="315.2" y="296.5" transform="matrix(-1 -1.224647e-16 1.224647e-16 -1 634.3749 623.5175)" class="st0" width="4" height="30.5"/>
			
				<rect x="319.2" y="298.7" transform="matrix(-1 -1.224647e-16 1.224647e-16 -1 641.4944 625.6604)" class="st2" width="3.1" height="28.3"/>
			
				<rect x="296.5" y="296.5" transform="matrix(-1 -1.224647e-16 1.224647e-16 -1 599.3041 623.5175)" class="st0" width="6.2" height="30.5"/>
			
				<rect x="290.3" y="298.7" transform="matrix(-1 -1.224647e-16 1.224647e-16 -1 586.8814 625.6604)" class="st1" width="6.2" height="28.3"/>
			
				<rect x="277" y="298.7" transform="matrix(-1 -1.224647e-16 1.224647e-16 -1 560.2195 625.6604)" class="st1" width="6.2" height="28.3"/>
			
				<rect x="283.2" y="296.5" transform="matrix(-1 -1.224647e-16 1.224647e-16 -1 570.4447 623.5175)" class="st2" width="4" height="30.5"/>
			
				<rect x="287.2" y="298.7" transform="matrix(-1 -1.224647e-16 1.224647e-16 -1 577.5643 625.6604)" class="st0" width="3.1" height="28.3"/>
			
				<rect x="273.9" y="297.2" transform="matrix(-1 -1.224647e-16 1.224647e-16 -1 550.9025 624.2398)" class="st2" width="3.1" height="29.8"/>
			<rect x="273.9" y="337.4" class="st2" width="6.2" height="30.5"/>
			<rect x="299.7" y="337.4" class="st2" width="6.2" height="30.5"/>
			<rect x="280.1" y="339.5" class="st4" width="6.2" height="28.3"/>
			<rect x="293.4" y="339.5" class="st0" width="6.2" height="28.3"/>
			<rect x="289.4" y="337.4" class="st2" width="4" height="30.5"/>
			<rect x="286.3" y="339.5" class="st3" width="3.1" height="28.3"/>
			<rect x="305.9" y="337.4" class="st0" width="6.2" height="30.5"/>
			<rect x="312.1" y="339.5" class="st3" width="6.2" height="28.3"/>
			<rect x="325.4" y="339.5" class="st1" width="6.2" height="28.3"/>
			<rect x="321.4" y="337.4" class="st2" width="4" height="30.5"/>
			<rect x="334.7" y="337.4" class="st2" width="4" height="30.5"/>
			<rect x="318.3" y="339.5" class="st0" width="3.1" height="28.3"/>
			<rect x="331.6" y="338.1" class="st4" width="3.1" height="29.8"/>
			<path class="st4" d="M268.8,284v98.3h5.1v-5.5h75.3V284h-75.3h-2.5H268.8z M273.9,332.1h70.5v35.8h-70.5V332.1z M273.9,292.9
				h70.5V327h-70.5V292.9z"/>
			<rect x="346.9" y="290.1" class="st1" width="75.8" height="81.6"/>
			<rect x="410.3" y="375.8" class="st1" width="9.5" height="6.5"/>
			<rect x="349.5" y="296.5" class="st2" width="6.2" height="30.5"/>
			<rect x="375.2" y="296.5" class="st3" width="6.2" height="30.5"/>
			<rect x="355.7" y="298.7" class="st3" width="6.2" height="28.3"/>
			<rect x="369" y="298.7" class="st2" width="6.2" height="28.3"/>
			<rect x="365" y="296.5" class="st0" width="4" height="30.5"/>
			<rect x="361.9" y="298.7" class="st2" width="3.1" height="28.3"/>
			<rect x="377.3" y="296.5" class="st0" width="6.2" height="30.5"/>
			<rect x="383.5" y="298.7" class="st1" width="6.2" height="28.3"/>
			<rect x="396.9" y="298.7" class="st1" width="6.2" height="28.3"/>
			<rect x="392.9" y="296.5" class="st2" width="4" height="30.5"/>
			<rect x="389.8" y="298.7" class="st0" width="3.1" height="28.3"/>
			<rect x="403.1" y="297.2" class="st3" width="3.1" height="29.8"/>
			
				<rect x="402.9" y="337.4" transform="matrix(-1 -1.224647e-16 1.224647e-16 -1 812.0184 705.2535)" class="st2" width="6.2" height="30.5"/>
			
				<rect x="377.1" y="337.4" transform="matrix(-1 -1.224647e-16 1.224647e-16 -1 760.5111 705.2535)" class="st2" width="6.2" height="30.5"/>
			
				<rect x="396.7" y="339.5" transform="matrix(-1 -1.224647e-16 1.224647e-16 -1 799.5957 707.3963)" class="st3" width="6.2" height="28.3"/>
			
				<rect x="383.4" y="339.5" transform="matrix(-1 -1.224647e-16 1.224647e-16 -1 772.9338 707.3963)" class="st0" width="6.2" height="28.3"/>
			
				<rect x="389.6" y="337.4" transform="matrix(-1 -1.224647e-16 1.224647e-16 -1 783.1591 705.2535)" class="st2" width="4" height="30.5"/>
			
				<rect x="393.6" y="339.5" transform="matrix(-1 -1.224647e-16 1.224647e-16 -1 790.2787 707.3963)" class="st3" width="3.1" height="28.3"/>
			
				<rect x="375" y="337.4" transform="matrix(-1 -1.224647e-16 1.224647e-16 -1 756.278 705.2535)" class="st0" width="6.2" height="30.5"/>
			
				<rect x="368.8" y="339.5" transform="matrix(-1 -1.224647e-16 1.224647e-16 -1 743.8552 707.3963)" class="st3" width="6.2" height="28.3"/>
			
				<rect x="355.5" y="339.5" transform="matrix(-1 -1.224647e-16 1.224647e-16 -1 717.1934 707.3963)" class="st1" width="6.2" height="28.3"/>
			
				<rect x="361.7" y="337.4" transform="matrix(-1 -1.224647e-16 1.224647e-16 -1 727.4186 705.2535)" class="st2" width="4" height="30.5"/>
			
				<rect x="349.2" y="337.4" transform="matrix(-1 -1.224647e-16 1.224647e-16 -1 702.3946 705.2535)" class="st2" width="4" height="30.5"/>
			
				<rect x="365.7" y="339.5" transform="matrix(-1 -1.224647e-16 1.224647e-16 -1 734.5381 707.3963)" class="st0" width="3.1" height="28.3"/>
			
				<rect x="352.4" y="338.1" transform="matrix(-1 -1.224647e-16 1.224647e-16 -1 707.8763 705.9757)" class="st0" width="3.1" height="29.8"/>
			<path class="st4" d="M422.3,284h-2.5h-75.3v92.7h75.3v5.5h5.1V284H422.3z M419.8,367.9h-70.5v-35.8h70.5V367.9z M419.8,327h-70.5
				v-34.1h70.5V327z"/>
		</g>
		<g>
			
				<rect x="272.6" y="93" transform="matrix(-1 -1.224647e-16 1.224647e-16 -1 688.3618 333.9403)" class="st0" width="143.1" height="147.9"/>
			
				<rect x="267.6" y="93" transform="matrix(-1 -1.224647e-16 1.224647e-16 -1 678.3618 333.9403)" class="st4" width="143.1" height="147.9"/>
			<rect x="271.4" y="96.5" class="st5" width="135.7" height="141"/>
			<rect x="274.8" y="96.5" class="st3" width="132.3" height="140.9"/>
			
				<rect x="339.6" y="96.5" transform="matrix(-1 -1.224647e-16 1.224647e-16 -1 681.8876 334.0093)" class="st0" width="2.7" height="141"/>
			<polygon class="st6" points="324.2,96.5 286.5,237.5 282.8,237.5 320.6,96.5 			"/>
			
				<rect x="338.4" y="94.4" transform="matrix(-1 -1.224647e-16 1.224647e-16 -1 679.2004 334.5364)" class="st4" width="2.3" height="145.8"/>
			<polygon class="st6" points="310.5,96.5 274.8,229.9 274.8,156.6 290.9,96.5 			"/>
			<polygon class="st6" points="407.1,109.3 407.1,122.8 376.5,237.5 372.8,237.5 			"/>
			<polygon class="st6" points="407.1,136.6 407.1,210 399.8,237.5 380.2,237.5 			"/>
		</g>
		<g>
			<circle class="st5" cx="120.1" cy="122" r="20.3"/>
			<circle class="st4" cx="120.1" cy="122" r="17.2"/>
			<polyline class="st7" points="119.3,133.8 119.3,121.8 111.3,126.3 			"/>
		</g>
		<g>
			<g>
				<path class="st3" d="M202.7,282L202.7,282H82.6l0,0c0,4.4,3.5,8,7.9,8.2c12.9,0.6,32.8,2.6,39.1,9.8
					c11.7,13.3,10.6,60.1-3.5,70.9c-4.4,3.4-17.3,10.1-17.3,10.1h67.7c0,0-12-6.9-16.2-10.1c-14-10.9-14.4-57.7-2.6-70.9
					c6.1-6.8,24.7-9,37.2-9.7C199.3,290.1,202.7,286.4,202.7,282z"/>
				<path class="st1" d="M97.5,290.7c12.2,1,26.8,3.4,32.1,9.3c1.6,1.8,2.9,4.1,4,6.9h20.2c1.1-2.8,2.5-5.1,4-6.9
					c5.3-5.9,20-8.3,32-9.3H97.5z"/>
			</g>
			<g>
				<polygon class="st0" points="151.5,282.1 149.9,263.4 173.6,263.4 175.2,282.1 				"/>
				<polygon class="st5" points="151.5,282.1 149.9,263.4 148.6,263.4 150.3,282.1 				"/>
				<polygon class="st4" points="153.8,280.2 152.5,265.3 171.3,265.3 172.6,280.2 				"/>
				<polygon class="st2" points="155.2,279 154.2,266.5 169.9,266.5 171,279 				"/>
			</g>
			<g>
				<g>
					<polygon class="st1" points="143.9,282 120.1,282 122.7,251.9 146.5,251.9 					"/>
					<polygon class="st5" points="143.9,282 145,282 147.6,251.9 146.5,251.9 					"/>
					<polygon class="st4" points="141.7,279 122.8,279 124.9,254.9 143.8,254.9 					"/>
					<polygon class="st2" points="140.3,277 124.5,277 126.3,256.9 142.1,256.9 					"/>
				</g>
				<path class="st0" d="M132.3,265.9L132.3,265.9c1.1,1.1,2.8,1.1,3.9,0l0,0c1.1-1.1,1.1-2.8,0-3.9l0,0c-1.1-1.1-2.8-1.1-3.9,0l0,0
					C131.3,263.1,131.3,264.9,132.3,265.9z"/>
				<path class="st4" d="M133.5,269.3L133.5,269.3c-0.8-0.8-2.1-0.8-2.8,0l0,0c-1.3,1.3-0.4,3.4,1.4,3.4l0,0
					C133.9,272.8,134.8,270.6,133.5,269.3z"/>
			</g>
		</g>
	</g>
</g>
<g id="Shadow_1_">
	<ellipse id="_x3C_Path_x3E__359_" class="st3" cx="250" cy="416.2" rx="193.9" ry="11.3"/>
</g>
<g id="Plant">
	<g>
		<path class="st8" d="M91.6,391.5c0,0-5-10.8,0.7-21.5c5.7-10.7,7.3-13.2,3.7-15.3c-3.6-2.2-5.3,8.5-5.3,8.5s-3-7.4-0.5-15.1
			c2.5-7.7,4.1-20.3,0.7-21.6c-3.4-1.3-0.7,15.7-3.6,21.5c0,0-2.5-6.5-2.9-12.6c-0.4-6.2,0.2-16.1-2.5-18.6
			c-2.7-2.5-4.4-0.8-1.8,12.9c2.7,13.7,2.6,24.8,2.6,24.8s-5.9-17.9-9.8-18.4c-3.9-0.5-3.9,5.3-0.6,10.3c3.4,5,9.9,14.1,11,18.7
			c0,0-6.5-13.5-12.3-9.4c-5.8,4.1,5.1,12.3,9.9,15.2s8.2,21.4,8.2,21.4L91.6,391.5z"/>
		<path class="st9" d="M91.6,391.5c0,0-5-10.8,0.7-21.5c5.7-10.7,7.3-13.2,3.7-15.3c-3.6-2.2-5.3,8.5-5.3,8.5s-3-7.4-0.5-15.1
			c2.5-7.7,4.1-20.3,0.7-21.6c-3.4-1.3-0.7,15.7-3.6,21.5c0,0-2.5-6.5-2.9-12.6c-0.4-6.2,0.2-16.1-2.5-18.6
			c-2.7-2.5-4.4-0.8-1.8,12.9c2.7,13.7,2.6,24.8,2.6,24.8s-5.9-17.9-9.8-18.4c-3.9-0.5-3.9,5.3-0.6,10.3c3.4,5,9.9,14.1,11,18.7
			c0,0-6.5-13.5-12.3-9.4c-5.8,4.1,5.1,12.3,9.9,15.2s8.2,21.4,8.2,21.4L91.6,391.5z"/>
		<path class="st8" d="M87.7,396c0,0,4.8-10.9-1-21.4s-7.5-13.1-3.9-15.3c3.6-2.2,5.4,8.4,5.4,8.4s3-7.4,0.3-15.1
			c-2.6-7.7-4.3-20.2-0.9-21.6c3.4-1.4,0.8,15.6,3.9,21.4c0,0,2.4-6.5,2.8-12.7c0.3-6.2-0.4-16.1,2.3-18.6c2.7-2.6,4.4-0.8,1.9,12.9
			c-2.5,13.7-2.3,24.8-2.3,24.8s5.7-18,9.6-18.6c3.9-0.6,4,5.2,0.7,10.3c-3.3,5.1-9.7,14.2-10.7,18.9c0,0,6.3-13.6,12.1-9.5
			c5.9,4-4.9,12.4-9.7,15.4c-4.8,3-7.9,21.5-7.9,21.5L87.7,396z"/>
		<g>
			<polygon class="st10" points="109.9,388.2 70.1,388.2 73.3,416.7 106.7,416.7 			"/>
		</g>
	</g>
</g>
<g id="Screen">
	<g>
		<g>
			<path class="st8" d="M278.3,114v278.5c0,2.4-2,4.3-4.4,4.3h-148c-1.1,0-2.1-0.4-2.8-1.1c-0.4-0.4-0.6-0.8-0.8-1.2
				c-0.2-0.5-0.3-1-0.3-1.6V113.7c0-1.9,1.4-3.6,3.4-3.6h39.2c1.1,0,2.1,0.7,2.5,1.8l1.6,4c0.1,0.3,0.3,0.6,0.6,0.9
				c0,0,0.1,0.1,0.1,0.1c0.1,0,0.1,0.1,0.2,0.2c0.1,0.1,0.2,0.1,0.3,0.2c0.2,0.1,0.4,0.2,0.6,0.3c0.2,0.1,0.5,0.1,0.8,0.1h57.9
				c1.1,0,2.1-0.7,2.5-1.7l1.6-4c0.4-1,1.4-1.8,2.5-1.8h38.6C276.6,110,278.3,111.9,278.3,114z"/>
		</g>
		<rect x="122" y="128.8" class="st11" width="156.3" height="245"/>
		<rect x="122" y="343.5" class="st12" width="156.3" height="30.3"/>
		<rect x="122" y="128.8" class="st12" width="156.3" height="25.1"/>
		<g>
			<g>
				<path class="st8" d="M127.2,141.4c0,2.4,1,4.5,2.5,6.1c0,0,0.1,0.1,0.1,0.1c1.1,1.1,2.6,1.9,4.1,2.2c0.1,0,0.1,0,0.2,0
					c0.3,0.1,0.6,0.1,0.9,0.1c0.2,0,0.5,0,0.7,0c0.1,0,0.1,0,0.2,0c0.2,0,0.3,0,0.5,0c0.2,0,0.3,0,0.5-0.1c0.2,0,0.4-0.1,0.6-0.1
					c0,0,0.1,0,0.1,0c1.2-0.3,2.3-0.8,3.3-1.5c0,0,0,0,0.1,0c0.1-0.1,0.1-0.1,0.2-0.2c1.9-1.6,3.1-3.9,3.1-6.6
					c0-4.7-3.8-8.6-8.6-8.6C131,132.8,127.2,136.6,127.2,141.4z"/>
				<g>
					<path class="st10" d="M130.8,139.7c0,0-1,4,0.3,5.2c1.3,1.2,8.9,1.2,9.9-0.3c1.1-1.5-1.4-6.4-1.4-6.4L130.8,139.7z"/>
					<path class="st8" d="M129.8,147.5c1.1,1.1,2.6,1.9,4.1,2.2c0.1,0,0.1,0,0.2,0c0.3,0.1,0.6,0.1,0.9,0.1c0.2,0,0.5,0,0.7,0
						c0.1,0,0.1,0,0.2,0c0.2,0,0.3,0,0.5,0c0.2,0,0.3,0,0.5-0.1c0.2,0,0.4-0.1,0.6-0.1v0.1c0,0,0.1,0,0.1-0.1
						c1.2-0.3,2.3-0.8,3.3-1.5c0-0.1-0.1-0.3-0.2-0.4l0,0l0,0l-0.1,0c-0.2-0.1-0.6-0.2-1.1-0.3l-0.1,0c-0.3-0.1-0.7-0.2-1.1-0.3
						c-0.3,0-0.5-0.1-0.8-0.1c0,0-0.1,0-0.1,0c0,0,0,0,0,0c-0.2,0-0.5-0.1-0.7-0.1c-0.1,0-0.2,0-0.3,0c-0.4,0-0.8-0.1-1.2-0.1
						c-0.1,0-0.3,0-0.4,0c-0.2,0-0.4,0-0.6,0c-0.2,0-0.5,0-0.7,0.1c-0.2,0-0.4,0-0.6,0.1h0c-0.4,0-0.7,0.1-1,0.2
						C131.1,147.1,130.4,147.3,129.8,147.5z"/>
					<path class="st13" d="M129.8,147.5c1.1,1.1,2.6,1.9,4.1,2.2c0.1,0,0.1,0,0.2,0c0.3,0.1,0.6,0.1,0.9,0.1c0.2,0,0.5,0,0.7,0
						c0.1,0,0.1,0,0.2,0c0.2,0,0.3,0,0.5,0c0.2,0,0.3,0,0.5-0.1c0.2,0,0.4-0.1,0.6-0.1v0.1c0,0,0.1,0,0.1-0.1
						c1.2-0.3,2.3-0.8,3.3-1.5c0-0.1-0.1-0.3-0.2-0.4l0,0l0,0l-0.1,0c-0.2-0.1-0.6-0.2-1.1-0.3l-0.1,0c-0.3-0.1-0.7-0.2-1.1-0.3
						c-0.3,0-0.5-0.1-0.8-0.1c0,0-0.1,0-0.1,0c0,0,0,0,0,0c-0.2,0-0.5-0.1-0.7-0.1c-0.1,0-0.2,0-0.3,0c-0.4,0-0.8-0.1-1.2-0.1
						c-0.1,0-0.3,0-0.4,0c-0.2,0-0.4,0-0.6,0c-0.2,0-0.5,0-0.7,0.1c-0.2,0-0.4,0-0.6,0.1h0c-0.4,0-0.7,0.1-1,0.2
						C131.1,147.1,130.4,147.3,129.8,147.5z"/>
					<path class="st10" d="M139.9,139.4c0,0,0.4-6.5-5.3-5c-7.2,1.9-3,10.5,0.5,9.4C138.7,142.7,139.9,139.4,139.9,139.4z"/>
					<path class="st9" d="M132.6,147.1l1.3,2.5l0.1,0.2c0.1,0,0.1,0,0.2,0c0.3,0.1,0.6,0.1,0.9,0.1l0.7-0.9c0.1,0.3,0.1,0.6,0.2,0.9
						c0.2,0,0.3,0,0.5,0c0-0.6-0.1-0.9-0.1-0.9l0.6,0.9c0.2,0,0.4-0.1,0.6-0.1l0.1-2.7c-0.1,0-0.2-0.1-0.3-0.1c0,0,0,0,0,0
						c-0.3-0.1-0.5-0.2-0.8-0.2c-0.1,0-0.1,0-0.2,0c-0.6-0.1-1.2-0.1-1.7,0c-0.2,0-0.4,0-0.5,0.1c-0.3,0-0.6,0.1-0.8,0.2h0
						C133,146.9,132.7,147,132.6,147.1L132.6,147.1z"/>
					<path class="st14" d="M136,147.7l-2.8-0.8c1.7-1.2,0.9-3.8,0.9-3.8l2.8,1c-0.1,0.5-0.2,0.8-0.3,1.2c-0.3,1.7,0.5,1.9,0.5,1.9
						L136,147.7z"/>
					<path class="st9" d="M136.9,144.1c-0.1,0.5-0.2,0.8-0.3,1.2c-1.3-0.5-2.5-2.2-2.5-2.2L136.9,144.1z"/>
					<g>
						<path class="st14" d="M136.2,136c2.5-0.2,3.4,1.1,3.8,3.7c0.4,3.2-0.1,5.6-3.3,5.1C132.4,144.1,132.1,136.3,136.2,136z"/>
						<path class="st15" d="M138.4,139.7c0,0,0.4,0.6,0.8,1c0,0-0.2,0.4-0.6,0.3L138.4,139.7z"/>
						<g>
							<path class="st10" d="M136.8,139.6c0,0.2-0.1,0.4-0.2,0.4c-0.1,0-0.3-0.1-0.3-0.4c0-0.2,0.1-0.4,0.2-0.4
								C136.7,139.2,136.8,139.4,136.8,139.6z"/>
							<path class="st10" d="M136.5,139.3l0.4-0.2C136.9,139,136.7,139.4,136.5,139.3z"/>
						</g>
						<g>
							<path class="st10" d="M139.4,139.3c0,0.2-0.1,0.4-0.2,0.4c-0.1,0-0.3-0.1-0.3-0.4c0-0.2,0.1-0.4,0.2-0.4
								C139.2,139,139.3,139.1,139.4,139.3z"/>
							<path class="st10" d="M139,139l0.4-0.2C139.5,138.8,139.3,139.2,139,139z"/>
						</g>
						<path class="st16" d="M136.7,137.9c0,0-0.7,0-1.1,0.4"/>
						<path class="st16" d="M138.5,137.6c0,0,0.4-0.2,1,0.1"/>
						<path class="st10" d="M133.8,140.4c0,0,1-2.1,0.8-3.7c0,0,4.8-2.4,5.4,2.7c0,0,0.2-4.5-4.1-4.3c-4.3,0.2-3.9,6.5-1.5,8.2
							C134.3,143.3,133.1,141.8,133.8,140.4z"/>
						<path class="st14" d="M134.2,140.9c0-0.4-0.5-1.1-1.2-0.9c-0.8,0.1-1,1.8,0.9,2C134.2,142.1,134.3,141.8,134.2,140.9z"/>
						<g>
							<path class="st10" d="M138.8,142c-0.1,0.3-0.3,0.9-0.3,0.9c-0.1,0-0.1,0-0.2,0c-0.7-0.1-1.1-0.3-1.2-0.6
								c-0.1-0.2-0.1-0.3-0.1-0.4c0-0.1,0-0.3,0-0.3c0.4,0.3,1.1,0.4,1.4,0.4C138.7,142,138.8,142,138.8,142z"/>
							<path class="st6" d="M138.6,142l-0.1,0.3c-0.7,0-1.2-0.2-1.4-0.4c0-0.1,0-0.3,0-0.3C137.5,141.8,138.2,141.9,138.6,142z"/>
							<path class="st17" d="M138.4,142.9c-0.7-0.1-1.1-0.3-1.2-0.6c0.2,0,0.5,0.1,0.8,0.2C138.2,142.6,138.3,142.7,138.4,142.9z"/>
						</g>
						<path class="st10" d="M136.2,136.2c0,0-0.7,4.2-3.3,4.3c-2.6,0.1,1.1-5.4,1.1-5.4s4.1-1.9,6.4,0.2c2.2,2.1-0.4,4-0.4,4
							S139.9,136.2,136.2,136.2z"/>
						<path class="st18" d="M136.2,135.9c0,0,0.5,2.8-1.5,3.9"/>
						<g>
							<path class="st10" d="M133.4,140.1C133.4,140.2,133.4,140.2,133.4,140.1L133.4,140.1l0.3,0h0l0.2,0l0.2,0h0l1.8-0.2
								c0.1,0.5,0.5,0.9,1,0.9c0.6,0.1,1.2-0.3,1.3-1c0-0.1,0-0.1,0-0.2c0.1-0.1,0.2-0.2,0.3-0.2c0.1,0,0.2,0.1,0.2,0.1
								c0.1,0.4,0.3,0.7,0.7,0.9c0.1,0,0.2,0.1,0.3,0.1c0.2,0,0.3,0,0.5,0c0.2,0,0.4-0.1,0.5-0.3c0.2-0.2,0.3-0.4,0.3-0.7
								c0.1-0.4-0.1-0.7-0.3-1c-0.2-0.2-0.4-0.3-0.7-0.4c0,0,0,0,0,0c0,0,0,0-0.1,0c0,0-0.1,0-0.1,0c0,0,0,0,0,0c0,0,0,0,0,0
								c-0.5,0-1,0.4-1.1,1c0,0.1,0,0.1,0,0.2c0,0-0.1,0-0.1,0c-0.1,0-0.2,0-0.3,0.1c-0.1-0.5-0.5-0.9-1-0.9c0,0-0.1,0-0.1,0h0
								c-0.2,0-0.3,0-0.5,0.1l0,0h0c-0.4,0.1-0.7,0.5-0.7,0.9c0,0.1,0,0.2,0,0.2l-1.6,0.1l-0.3,0L133.4,140.1
								C133.5,140,133.5,140,133.4,140.1C133.4,140,133.4,140.1,133.4,140.1z M138.8,139.3c0.1-0.5,0.5-0.8,1-0.9c0,0,0,0,0,0
								c0,0,0,0,0,0h0c0,0,0,0,0.1,0c0,0,0,0,0.1,0c0,0,0,0,0,0c0.2,0,0.5,0.2,0.6,0.3c0.2,0.2,0.3,0.5,0.2,0.8
								c0,0.2-0.1,0.4-0.3,0.5c-0.1,0.1-0.3,0.2-0.5,0.3c-0.1,0-0.3,0.1-0.4,0c-0.1,0-0.1,0-0.2,0
								C139,140.2,138.7,139.8,138.8,139.3z M136,139.6c0.1-0.6,0.6-0.9,1.2-0.9c0.6,0.1,0.9,0.6,0.9,1.2c-0.1,0.6-0.6,0.9-1.2,0.9
								C136.3,140.7,136,140.2,136,139.6z"/>
						</g>
						<g class="st19">
							<path class="st6" d="M133.4,140.1C133.4,140.2,133.4,140.2,133.4,140.1L133.4,140.1l0.3,0h0l0.2,0l0.2,0h0l1.8-0.2
								c0.1,0.5,0.5,0.9,1,0.9c0.6,0.1,1.2-0.3,1.3-1c0-0.1,0-0.1,0-0.2c0.1-0.1,0.2-0.2,0.3-0.2c0.1,0,0.2,0.1,0.2,0.1
								c0.1,0.4,0.3,0.7,0.7,0.9c0.1,0,0.2,0.1,0.3,0.1c0.2,0,0.3,0,0.5,0c0.2,0,0.4-0.1,0.5-0.3c0.2-0.2,0.3-0.4,0.3-0.7
								c0.1-0.4-0.1-0.7-0.3-1c-0.2-0.2-0.4-0.3-0.7-0.4c0,0,0,0,0,0c0,0,0,0-0.1,0c0,0-0.1,0-0.1,0c0,0,0,0,0,0c0,0,0,0,0,0
								c-0.5,0-1,0.4-1.1,1c0,0.1,0,0.1,0,0.2c0,0-0.1,0-0.1,0c-0.1,0-0.2,0-0.3,0.1c-0.1-0.5-0.5-0.9-1-0.9c0,0-0.1,0-0.1,0h0
								c-0.2,0-0.3,0-0.5,0.1l0,0h0c-0.4,0.1-0.7,0.5-0.7,0.9c0,0.1,0,0.2,0,0.2l-1.6,0.1l-0.3,0L133.4,140.1
								C133.5,140,133.5,140,133.4,140.1C133.4,140,133.4,140.1,133.4,140.1z M138.8,139.3c0.1-0.5,0.5-0.8,1-0.9c0,0,0,0,0,0
								c0,0,0,0,0,0h0c0,0,0,0,0.1,0c0,0,0,0,0.1,0c0,0,0,0,0,0c0.2,0,0.5,0.2,0.6,0.3c0.2,0.2,0.3,0.5,0.2,0.8
								c0,0.2-0.1,0.4-0.3,0.5c-0.1,0.1-0.3,0.2-0.5,0.3c-0.1,0-0.3,0.1-0.4,0c-0.1,0-0.1,0-0.2,0
								C139,140.2,138.7,139.8,138.8,139.3z M136,139.6c0.1-0.6,0.6-0.9,1.2-0.9c0.6,0.1,0.9,0.6,0.9,1.2c-0.1,0.6-0.6,0.9-1.2,0.9
								C136.3,140.7,136,140.2,136,139.6z"/>
						</g>
					</g>
					<polygon class="st8" points="134,145.9 135.8,147.6 135.1,149.7 132.6,147.1 					"/>
					<polygon class="st8" points="136.5,146.3 136.2,147.6 137.2,149.5 137.7,147 					"/>
					<g>
						<path class="st10" d="M137.7,149.7c1.2-0.3,2.3-0.8,3.3-1.5c0,0,0,0,0.1,0c0.1-0.1,0.1-0.1,0.2-0.2c-0.1-0.1-0.3-0.1-0.4-0.2
							c-1.3-0.5-2.4-0.7-2.4-0.7s0,0,0,0.1C138.4,147.4,138.6,148.8,137.7,149.7z"/>
						<path class="st10" d="M129.7,147.4c0,0,0.1,0.1,0.1,0.1c1.1,1.1,2.6,1.9,4.1,2.2c0.1,0,0.1,0,0.2,0c-0.1-0.1-0.2-0.2-0.3-0.2
							c-0.1-0.1-0.3-0.2-0.4-0.4c-0.2-0.2-0.3-0.3-0.5-0.5c0-0.1-0.1-0.1-0.1-0.2c-0.1-0.1-0.2-0.2-0.3-0.3
							c-0.1-0.1-0.2-0.2-0.2-0.3c-0.1-0.1-0.1-0.2-0.2-0.3c-0.1-0.2-0.3-0.4-0.3-0.5c-0.1-0.1-0.1-0.2-0.1-0.2
							S130.8,147.1,129.7,147.4z"/>
						<path class="st20" d="M129.7,147.4c0,0,0.1,0.1,0.1,0.1c1.1,1.1,2.6,1.9,4.1,2.2c0.1,0,0.1,0,0.2,0c-0.1-0.1-0.2-0.2-0.3-0.2
							c-0.1-0.1-0.3-0.2-0.4-0.4c-0.2-0.2-0.3-0.3-0.5-0.5c0-0.1-0.1-0.1-0.1-0.2c-0.1-0.1-0.2-0.2-0.3-0.3
							c-0.1-0.1-0.2-0.2-0.2-0.3c-0.1-0.1-0.1-0.2-0.2-0.3c-0.1-0.2-0.3-0.4-0.3-0.5c-0.1-0.1-0.1-0.2-0.1-0.2
							S130.8,147.1,129.7,147.4z"/>
					</g>
					<polygon class="st13" points="134,145.9 135.8,147.6 135.1,149.7 132.6,147.1 					"/>
					<polygon class="st13" points="136.5,146.3 136.2,147.6 137.2,149.5 137.7,147 					"/>
					<g class="st21">
						<path class="st6" d="M137.7,149.7c1.2-0.3,2.3-0.8,3.3-1.5c0,0,0,0,0.1,0c0.1-0.1,0.1-0.1,0.2-0.2c-0.1-0.1-0.3-0.1-0.4-0.2
							c-1.3-0.5-2.4-0.7-2.4-0.7s0,0,0,0.1C138.4,147.4,138.6,148.8,137.7,149.7z"/>
						<path class="st6" d="M129.7,147.4c0,0,0.1,0.1,0.1,0.1c1.1,1.1,2.6,1.9,4.1,2.2c0.1,0,0.1,0,0.2,0c-0.1-0.1-0.2-0.2-0.3-0.2
							c-0.1-0.1-0.3-0.2-0.4-0.4c-0.2-0.2-0.3-0.3-0.5-0.5c0-0.1-0.1-0.1-0.1-0.2c-0.1-0.1-0.2-0.2-0.3-0.3
							c-0.1-0.1-0.2-0.2-0.2-0.3c-0.1-0.1-0.1-0.2-0.2-0.3c-0.1-0.2-0.3-0.4-0.3-0.5c-0.1-0.1-0.1-0.2-0.1-0.2
							S130.8,147.1,129.7,147.4z"/>
					</g>
				</g>
			</g>
			<path class="st9" d="M179.7,143.3h-29.8c-1.1,0-1.9-0.9-1.9-1.9l0,0c0-1.1,0.9-1.9,1.9-1.9h29.8c1.1,0,1.9,0.9,1.9,1.9l0,0
				C181.6,142.4,180.8,143.3,179.7,143.3z"/>
			<g class="st9">
				<rect x="229.2" y="138.8" width="6.8" height="5.1"/>
				<polygon points="237.9,143.3 236.2,142.5 236.2,140.2 237.9,139.4 				"/>
			</g>
			<g class="st9">
				<path d="M248.1,137.2l-1,0.7l1.9,1.9l0.6-0.5c0.4-0.3,0.9-0.3,1.2,0.1l1.8,1.8c0.3,0.3,0.4,0.9,0.1,1.2l-0.5,0.6l1.9,1.9l0.7-1
					c0.6-0.8,0.5-2-0.2-2.7l-3.7-3.7C250.1,136.7,249,136.6,248.1,137.2z"/>
				<rect x="246" y="138.8" transform="matrix(0.7071 0.7071 -0.7071 0.7071 171.0478 -134.3094)" width="3.2" height="1"/>
				<rect x="251.1" y="143.9" transform="matrix(0.7071 0.7071 -0.7071 0.7071 176.113 -136.4083)" width="3.2" height="1"/>
			</g>
			<g class="st9">
				<path d="M272.7,138h-6.5c-0.2,0-0.4,0.2-0.4,0.4s0.2,0.4,0.4,0.4h6.5c0.2,0,0.4-0.2,0.4-0.4S272.9,138,272.7,138z"/>
				<path d="M272.7,140h-6.5c-0.2,0-0.4,0.2-0.4,0.4s0.2,0.4,0.4,0.4h6.5c0.2,0,0.4-0.2,0.4-0.4S272.9,140,272.7,140z"/>
				<path d="M272.7,142h-6.5c-0.2,0-0.4,0.2-0.4,0.4c0,0.2,0.2,0.4,0.4,0.4h6.5c0.2,0,0.4-0.2,0.4-0.4
					C273.1,142.1,272.9,142,272.7,142z"/>
				<path d="M272.7,144h-6.5c-0.2,0-0.4,0.2-0.4,0.4s0.2,0.4,0.4,0.4h6.5c0.2,0,0.4-0.2,0.4-0.4S272.9,144,272.7,144z"/>
			</g>
		</g>
		<g>
			<g>
				
					<rect x="140.2" y="119.3" transform="matrix(-1 -1.224647e-16 1.224647e-16 -1 282.4109 241.2315)" class="st22" width="2" height="2.7"/>
				
					<rect x="136.9" y="118.3" transform="matrix(-1 -1.224647e-16 1.224647e-16 -1 275.7655 240.3248)" class="st22" width="2" height="3.6"/>
				
					<rect x="133.5" y="117.4" transform="matrix(-1 -1.224647e-16 1.224647e-16 -1 269.1202 239.4181)" class="st22" width="2" height="4.5"/>
				
					<rect x="130.2" y="116.5" transform="matrix(-1 -1.224647e-16 1.224647e-16 -1 262.4748 238.5113)" class="st22" width="2" height="5.4"/>
			</g>
			<g>
				<rect x="258.4" y="118.3" class="st22" width="1.2" height="2.7"/>
				
					<rect x="260.5" y="117.3" transform="matrix(-1 -1.224647e-16 1.224647e-16 -1 530.5284 239.2477)" class="st22" width="9.6" height="4.7"/>
			</g>
		</g>
		<path class="st6" d="M158.8,350.8h104.8c4.4,0,7.9,3.5,7.9,7.9v0c0,4.4-3.5,7.9-7.9,7.9H158.8c-4.4,0-7.9-3.5-7.9-7.9v0
			C150.9,354.3,154.5,350.8,158.8,350.8z"/>
		<g>
			<path class="st9" d="M202.4,187l-45.8,0.3l-4.8,3v-23c0-3.1,2.5-5.5,5.5-5.5l45.1-0.3c3.1,0,5.5,2.5,5.5,5.5v14.5
				C208,184.5,205.5,187,202.4,187z"/>
			<g>
				<line class="st23" x1="158.9" y1="169.1" x2="200" y2="169.1"/>
				<line class="st23" x1="158.9" y1="174.2" x2="200" y2="174.2"/>
				<line class="st23" x1="158.9" y1="179.3" x2="184" y2="179.3"/>
			</g>
		</g>
		
			<ellipse transform="matrix(0.7071 -0.7071 0.7071 0.7071 -213.5286 201.8477)" class="st8" cx="136.9" cy="358.7" rx="7.8" ry="7.8"/>
		<g class="st24">
			<path class="st6" d="M187.8,117.5l-42.1,157.8v0l-0.5,1.8v0l-0.8,2.8v0l-0.5,1.8l-22,82.4v-99.7L163.2,110h1.3
				c1.1,0,2.1,0.7,2.5,1.8l1.6,4c0.4,1,1.4,1.7,2.5,1.7H187.8z"/>
			<path class="st6" d="M202.2,117.5L202.2,117.5l-41.9,156.8l-0.2,0.9l-2.3,8.6l-0.2,0.9l-29.9,112h-1.8c-1.1,0-2.1-0.4-2.8-1.1
				c-0.4-0.4-0.6-0.8-0.8-1.2l29.3-109.7l0.3-0.9l2.3-8.6l0.2-0.9l41.9-156.8v0H202.2z"/>
		</g>
		<g>
			<path class="st8" d="M130.2,170.4c0,2.4,1,4.5,2.5,6.1c0,0,0.1,0.1,0.1,0.1c1.1,1.1,2.6,1.9,4.1,2.2c0.1,0,0.1,0,0.2,0
				c0.3,0.1,0.6,0.1,0.9,0.1c0.2,0,0.5,0,0.7,0c0.1,0,0.1,0,0.2,0c0.2,0,0.3,0,0.5,0c0.2,0,0.3,0,0.5-0.1c0.2,0,0.4-0.1,0.6-0.1
				c0,0,0.1,0,0.1,0c1.2-0.3,2.3-0.8,3.3-1.5c0,0,0,0,0.1,0c0.1-0.1,0.1-0.1,0.2-0.2c1.9-1.6,3.1-3.9,3.1-6.6c0-4.7-3.8-8.6-8.6-8.6
				C134,161.8,130.2,165.6,130.2,170.4z"/>
			<g>
				<path class="st10" d="M133.8,168.7c0,0-1,4,0.3,5.2c1.3,1.2,8.9,1.2,9.9-0.3c1.1-1.5-1.4-6.4-1.4-6.4L133.8,168.7z"/>
				<path class="st8" d="M132.8,176.5c1.1,1.1,2.6,1.9,4.1,2.2c0.1,0,0.1,0,0.2,0c0.3,0.1,0.6,0.1,0.9,0.1c0.2,0,0.5,0,0.7,0
					c0.1,0,0.1,0,0.2,0c0.2,0,0.3,0,0.5,0c0.2,0,0.3,0,0.5-0.1c0.2,0,0.4-0.1,0.6-0.1v0.1c0,0,0.1,0,0.1-0.1
					c1.2-0.3,2.3-0.8,3.3-1.5c0-0.1-0.1-0.3-0.2-0.4l0,0l0,0l-0.1,0c-0.2-0.1-0.6-0.2-1.1-0.3l-0.1,0c-0.3-0.1-0.7-0.2-1.1-0.3
					c-0.3,0-0.5-0.1-0.8-0.1c0,0-0.1,0-0.1,0c0,0,0,0,0,0c-0.2,0-0.5-0.1-0.7-0.1c-0.1,0-0.2,0-0.3,0c-0.4,0-0.8-0.1-1.2-0.1
					c-0.1,0-0.3,0-0.4,0c-0.2,0-0.4,0-0.6,0c-0.2,0-0.5,0-0.7,0.1c-0.2,0-0.4,0-0.6,0.1h0c-0.4,0-0.7,0.1-1,0.2
					C134.1,176.1,133.4,176.3,132.8,176.5z"/>
				<path class="st13" d="M132.8,176.5c1.1,1.1,2.6,1.9,4.1,2.2c0.1,0,0.1,0,0.2,0c0.3,0.1,0.6,0.1,0.9,0.1c0.2,0,0.5,0,0.7,0
					c0.1,0,0.1,0,0.2,0c0.2,0,0.3,0,0.5,0c0.2,0,0.3,0,0.5-0.1c0.2,0,0.4-0.1,0.6-0.1v0.1c0,0,0.1,0,0.1-0.1
					c1.2-0.3,2.3-0.8,3.3-1.5c0-0.1-0.1-0.3-0.2-0.4l0,0l0,0l-0.1,0c-0.2-0.1-0.6-0.2-1.1-0.3l-0.1,0c-0.3-0.1-0.7-0.2-1.1-0.3
					c-0.3,0-0.5-0.1-0.8-0.1c0,0-0.1,0-0.1,0c0,0,0,0,0,0c-0.2,0-0.5-0.1-0.7-0.1c-0.1,0-0.2,0-0.3,0c-0.4,0-0.8-0.1-1.2-0.1
					c-0.1,0-0.3,0-0.4,0c-0.2,0-0.4,0-0.6,0c-0.2,0-0.5,0-0.7,0.1c-0.2,0-0.4,0-0.6,0.1h0c-0.4,0-0.7,0.1-1,0.2
					C134.1,176.1,133.4,176.3,132.8,176.5z"/>
				<path class="st10" d="M142.9,168.4c0,0,0.4-6.5-5.3-5c-7.2,1.9-3,10.5,0.5,9.4C141.7,171.7,142.9,168.4,142.9,168.4z"/>
				<path class="st9" d="M135.6,176.1l1.3,2.5l0.1,0.2c0.1,0,0.1,0,0.2,0c0.3,0.1,0.6,0.1,0.9,0.1l0.7-0.9c0.1,0.3,0.1,0.6,0.2,0.9
					c0.2,0,0.3,0,0.5,0c0-0.6-0.1-0.9-0.1-0.9l0.6,0.9c0.2,0,0.4-0.1,0.6-0.1l0.1-2.7c-0.1,0-0.2-0.1-0.3-0.1c0,0,0,0,0,0
					c-0.3-0.1-0.5-0.2-0.8-0.2c-0.1,0-0.1,0-0.2,0c-0.6-0.1-1.2-0.1-1.7,0c-0.2,0-0.4,0-0.5,0.1c-0.3,0-0.6,0.1-0.8,0.2h0
					C136,175.9,135.7,176,135.6,176.1L135.6,176.1z"/>
				<path class="st14" d="M139,176.7l-2.8-0.8c1.7-1.2,0.9-3.8,0.9-3.8l2.8,1c-0.1,0.5-0.2,0.8-0.3,1.2c-0.3,1.7,0.5,1.9,0.5,1.9
					L139,176.7z"/>
				<path class="st9" d="M139.9,173.1c-0.1,0.5-0.2,0.8-0.3,1.2c-1.3-0.5-2.5-2.2-2.5-2.2L139.9,173.1z"/>
				<g>
					<path class="st14" d="M139.2,165c2.5-0.2,3.4,1.1,3.8,3.7c0.4,3.2-0.1,5.6-3.3,5.1C135.4,173.1,135.1,165.3,139.2,165z"/>
					<path class="st15" d="M141.4,168.7c0,0,0.4,0.6,0.8,1c0,0-0.2,0.4-0.6,0.3L141.4,168.7z"/>
					<g>
						<path class="st10" d="M139.8,168.6c0,0.2-0.1,0.4-0.2,0.4c-0.1,0-0.3-0.1-0.3-0.4c0-0.2,0.1-0.4,0.2-0.4
							C139.7,168.2,139.8,168.4,139.8,168.6z"/>
						<path class="st10" d="M139.5,168.3l0.4-0.2C139.9,168,139.7,168.4,139.5,168.3z"/>
					</g>
					<g>
						<path class="st10" d="M142.4,168.3c0,0.2-0.1,0.4-0.2,0.4c-0.1,0-0.3-0.1-0.3-0.4c0-0.2,0.1-0.4,0.2-0.4
							C142.2,168,142.3,168.1,142.4,168.3z"/>
						<path class="st10" d="M142,168l0.4-0.2C142.5,167.8,142.3,168.2,142,168z"/>
					</g>
					<path class="st16" d="M139.7,166.9c0,0-0.7,0-1.1,0.4"/>
					<path class="st16" d="M141.5,166.6c0,0,0.4-0.2,1,0.1"/>
					<path class="st10" d="M136.8,169.4c0,0,1-2.1,0.8-3.7c0,0,4.8-2.4,5.4,2.7c0,0,0.2-4.5-4.1-4.3c-4.3,0.2-3.9,6.5-1.5,8.2
						C137.3,172.3,136.1,170.8,136.8,169.4z"/>
					<path class="st14" d="M137.2,169.9c0-0.4-0.5-1.1-1.2-0.9c-0.8,0.1-1,1.8,0.9,2C137.2,171.1,137.3,170.8,137.2,169.9z"/>
					<g>
						<path class="st10" d="M141.8,171c-0.1,0.3-0.3,0.9-0.3,0.9c-0.1,0-0.1,0-0.2,0c-0.7-0.1-1.1-0.3-1.2-0.6
							c-0.1-0.2-0.1-0.3-0.1-0.4c0-0.1,0-0.3,0-0.3c0.4,0.3,1.1,0.4,1.4,0.4C141.7,171,141.8,171,141.8,171z"/>
						<path class="st6" d="M141.6,171l-0.1,0.3c-0.7,0-1.2-0.2-1.4-0.4c0-0.1,0-0.3,0-0.3C140.5,170.8,141.2,170.9,141.6,171z"/>
						<path class="st17" d="M141.4,171.9c-0.7-0.1-1.1-0.3-1.2-0.6c0.2,0,0.5,0.1,0.8,0.2C141.2,171.6,141.3,171.7,141.4,171.9z"/>
					</g>
					<path class="st10" d="M139.2,165.2c0,0-0.7,4.2-3.3,4.3c-2.6,0.1,1.1-5.4,1.1-5.4s4.1-1.9,6.4,0.2c2.2,2.1-0.4,4-0.4,4
						S142.9,165.2,139.2,165.2z"/>
					<path class="st18" d="M139.2,164.9c0,0,0.5,2.8-1.5,3.9"/>
					<g>
						<path class="st10" d="M136.4,169.1C136.4,169.2,136.4,169.2,136.4,169.1L136.4,169.1l0.3,0h0l0.2,0l0.2,0h0l1.8-0.2
							c0.1,0.5,0.5,0.9,1,0.9c0.6,0.1,1.2-0.3,1.3-1c0-0.1,0-0.1,0-0.2c0.1-0.1,0.2-0.2,0.3-0.2c0.1,0,0.2,0.1,0.2,0.1
							c0.1,0.4,0.3,0.7,0.7,0.9c0.1,0,0.2,0.1,0.3,0.1c0.2,0,0.3,0,0.5,0c0.2,0,0.4-0.1,0.5-0.3c0.2-0.2,0.3-0.4,0.3-0.7
							c0.1-0.4-0.1-0.7-0.3-1c-0.2-0.2-0.4-0.3-0.7-0.4c0,0,0,0,0,0c0,0,0,0-0.1,0c0,0-0.1,0-0.1,0c0,0,0,0,0,0c0,0,0,0,0,0
							c-0.5,0-1,0.4-1.1,1c0,0.1,0,0.1,0,0.2c0,0-0.1,0-0.1,0c-0.1,0-0.2,0-0.3,0.1c-0.1-0.5-0.5-0.9-1-0.9c0,0-0.1,0-0.1,0h0
							c-0.2,0-0.3,0-0.5,0.1l0,0h0c-0.4,0.1-0.7,0.5-0.7,0.9c0,0.1,0,0.2,0,0.2l-1.6,0.1l-0.3,0L136.4,169.1
							C136.5,169,136.5,169,136.4,169.1C136.4,169,136.4,169.1,136.4,169.1z M141.8,168.3c0.1-0.5,0.5-0.8,1-0.9c0,0,0,0,0,0
							c0,0,0,0,0,0h0c0,0,0,0,0.1,0c0,0,0,0,0.1,0c0,0,0,0,0,0c0.2,0,0.5,0.2,0.6,0.3c0.2,0.2,0.3,0.5,0.2,0.8
							c0,0.2-0.1,0.4-0.3,0.5c-0.1,0.1-0.3,0.2-0.5,0.3c-0.1,0-0.3,0.1-0.4,0c-0.1,0-0.1,0-0.2,0C142,169.2,141.7,168.8,141.8,168.3
							z M139,168.6c0.1-0.6,0.6-0.9,1.2-0.9c0.6,0.1,0.9,0.6,0.9,1.2c-0.1,0.6-0.6,0.9-1.2,0.9C139.3,169.7,139,169.2,139,168.6z"/>
					</g>
					<g class="st19">
						<path class="st6" d="M136.4,169.1C136.4,169.2,136.4,169.2,136.4,169.1L136.4,169.1l0.3,0h0l0.2,0l0.2,0h0l1.8-0.2
							c0.1,0.5,0.5,0.9,1,0.9c0.6,0.1,1.2-0.3,1.3-1c0-0.1,0-0.1,0-0.2c0.1-0.1,0.2-0.2,0.3-0.2c0.1,0,0.2,0.1,0.2,0.1
							c0.1,0.4,0.3,0.7,0.7,0.9c0.1,0,0.2,0.1,0.3,0.1c0.2,0,0.3,0,0.5,0c0.2,0,0.4-0.1,0.5-0.3c0.2-0.2,0.3-0.4,0.3-0.7
							c0.1-0.4-0.1-0.7-0.3-1c-0.2-0.2-0.4-0.3-0.7-0.4c0,0,0,0,0,0c0,0,0,0-0.1,0c0,0-0.1,0-0.1,0c0,0,0,0,0,0c0,0,0,0,0,0
							c-0.5,0-1,0.4-1.1,1c0,0.1,0,0.1,0,0.2c0,0-0.1,0-0.1,0c-0.1,0-0.2,0-0.3,0.1c-0.1-0.5-0.5-0.9-1-0.9c0,0-0.1,0-0.1,0h0
							c-0.2,0-0.3,0-0.5,0.1l0,0h0c-0.4,0.1-0.7,0.5-0.7,0.9c0,0.1,0,0.2,0,0.2l-1.6,0.1l-0.3,0L136.4,169.1
							C136.5,169,136.5,169,136.4,169.1C136.4,169,136.4,169.1,136.4,169.1z M141.8,168.3c0.1-0.5,0.5-0.8,1-0.9c0,0,0,0,0,0
							c0,0,0,0,0,0h0c0,0,0,0,0.1,0c0,0,0,0,0.1,0c0,0,0,0,0,0c0.2,0,0.5,0.2,0.6,0.3c0.2,0.2,0.3,0.5,0.2,0.8
							c0,0.2-0.1,0.4-0.3,0.5c-0.1,0.1-0.3,0.2-0.5,0.3c-0.1,0-0.3,0.1-0.4,0c-0.1,0-0.1,0-0.2,0C142,169.2,141.7,168.8,141.8,168.3
							z M139,168.6c0.1-0.6,0.6-0.9,1.2-0.9c0.6,0.1,0.9,0.6,0.9,1.2c-0.1,0.6-0.6,0.9-1.2,0.9C139.3,169.7,139,169.2,139,168.6z"/>
					</g>
				</g>
				<polygon class="st8" points="137,174.9 138.8,176.6 138.1,178.7 135.6,176.1 				"/>
				<polygon class="st8" points="139.5,175.3 139.2,176.6 140.2,178.5 140.7,176 				"/>
				<g>
					<path class="st10" d="M140.7,178.7c1.2-0.3,2.3-0.8,3.3-1.5c0,0,0,0,0.1,0c0.1-0.1,0.1-0.1,0.2-0.2c-0.1-0.1-0.3-0.1-0.4-0.2
						c-1.3-0.5-2.4-0.7-2.4-0.7s0,0,0,0.1C141.4,176.4,141.6,177.8,140.7,178.7z"/>
					<path class="st10" d="M132.7,176.4c0,0,0.1,0.1,0.1,0.1c1.1,1.1,2.6,1.9,4.1,2.2c0.1,0,0.1,0,0.2,0c-0.1-0.1-0.2-0.2-0.3-0.2
						c-0.1-0.1-0.3-0.2-0.4-0.4c-0.2-0.2-0.3-0.3-0.5-0.5c0-0.1-0.1-0.1-0.1-0.2c-0.1-0.1-0.2-0.2-0.3-0.3c-0.1-0.1-0.2-0.2-0.2-0.3
						c-0.1-0.1-0.1-0.2-0.2-0.3c-0.1-0.2-0.3-0.4-0.3-0.5c-0.1-0.1-0.1-0.2-0.1-0.2S133.8,176.1,132.7,176.4z"/>
					<path class="st20" d="M132.7,176.4c0,0,0.1,0.1,0.1,0.1c1.1,1.1,2.6,1.9,4.1,2.2c0.1,0,0.1,0,0.2,0c-0.1-0.1-0.2-0.2-0.3-0.2
						c-0.1-0.1-0.3-0.2-0.4-0.4c-0.2-0.2-0.3-0.3-0.5-0.5c0-0.1-0.1-0.1-0.1-0.2c-0.1-0.1-0.2-0.2-0.3-0.3c-0.1-0.1-0.2-0.2-0.2-0.3
						c-0.1-0.1-0.1-0.2-0.2-0.3c-0.1-0.2-0.3-0.4-0.3-0.5c-0.1-0.1-0.1-0.2-0.1-0.2S133.8,176.1,132.7,176.4z"/>
				</g>
				<polygon class="st13" points="137,174.9 138.8,176.6 138.1,178.7 135.6,176.1 				"/>
				<polygon class="st13" points="139.5,175.3 139.2,176.6 140.2,178.5 140.7,176 				"/>
				<g class="st21">
					<path class="st6" d="M140.7,178.7c1.2-0.3,2.3-0.8,3.3-1.5c0,0,0,0,0.1,0c0.1-0.1,0.1-0.1,0.2-0.2c-0.1-0.1-0.3-0.1-0.4-0.2
						c-1.3-0.5-2.4-0.7-2.4-0.7s0,0,0,0.1C141.4,176.4,141.6,177.8,140.7,178.7z"/>
					<path class="st6" d="M132.7,176.4c0,0,0.1,0.1,0.1,0.1c1.1,1.1,2.6,1.9,4.1,2.2c0.1,0,0.1,0,0.2,0c-0.1-0.1-0.2-0.2-0.3-0.2
						c-0.1-0.1-0.3-0.2-0.4-0.4c-0.2-0.2-0.3-0.3-0.5-0.5c0-0.1-0.1-0.1-0.1-0.2c-0.1-0.1-0.2-0.2-0.3-0.3c-0.1-0.1-0.2-0.2-0.2-0.3
						c-0.1-0.1-0.1-0.2-0.2-0.3c-0.1-0.2-0.3-0.4-0.3-0.5c-0.1-0.1-0.1-0.2-0.1-0.2S133.8,176.1,132.7,176.4z"/>
				</g>
			</g>
		</g>
		<g>
			<path class="st6" d="M271.3,203.4c0,2.6-1.2,5-3.1,6.6l-0.2,0.2c0,0,0,0-0.1,0c0,0,0,0-0.1,0.1c-0.9,0.7-2,1.2-3.2,1.5
				c0,0-0.1,0-0.1,0c-0.2,0.1-0.4,0.1-0.6,0.1c-0.2,0-0.4,0-0.5,0.1c-0.2,0-0.3,0-0.5,0c-0.1,0-0.1,0-0.2,0c-0.2,0-0.5,0-0.7,0
				c-0.3,0-0.6-0.1-0.9-0.1l-0.2,0c-1.3-0.3-2.6-0.9-3.6-1.7c-0.2-0.1-0.4-0.3-0.6-0.5c0,0-0.1-0.1-0.1-0.1
				c-1.6-1.6-2.5-3.7-2.5-6.1c0-4.7,3.8-8.5,8.6-8.5C267.5,194.8,271.3,198.6,271.3,203.4z"/>
			<g>
				<g>
					<rect x="260.3" y="207.2" class="st10" width="4.8" height="2.6"/>
					<rect x="260.3" y="207.2" class="st25" width="4.8" height="2.6"/>
					<rect x="260.3" y="208.1" class="st9" width="4.8" height="0.1"/>
					<rect x="260.3" y="208.7" class="st9" width="4.8" height="0.1"/>
					<rect x="260.3" y="209.2" class="st9" width="4.8" height="0.1"/>
					<path class="st9" d="M265.1,207.2v0.7c-1.2,0.4-3.2,1.1-4.8,1v-1.7H265.1z"/>
				</g>
				<g>
					<path class="st8" d="M267,199.7h-3.3h-3.6h-1.5c-1,0-1.8,0.8-1.8,1.8v4.7c0,1,0.8,1.8,1.8,1.8h1.5h3.6h3.3c1,0,1.8-0.8,1.8-1.8
						v-4.7C268.9,200.5,268.1,199.7,267,199.7z"/>
					<path class="st9" d="M267,199.7h-3.3c1,0,1.8,0.8,1.8,1.8v4.7c0,1-0.8,1.8-1.8,1.8h3.3c1,0,1.8-0.8,1.8-1.8v-4.7
						C268.9,200.5,268.1,199.7,267,199.7z"/>
					<path class="st10" d="M263.7,200.5h-5c-0.6,0-1.1,0.5-1.1,1.1v4.5c0,0.6,0.5,1.1,1.1,1.1h5c0.6,0,1.1-0.5,1.1-1.1v-4.5
						C264.8,201,264.3,200.5,263.7,200.5z"/>
					<g>
						<path class="st10" d="M267.8,202.9c-0.1,0-0.1-0.1-0.1-0.1v-5.4c0-0.1,0.1-0.1,0.1-0.1c0.1,0,0.1,0.1,0.1,0.1v5.4
							C267.9,202.9,267.9,202.9,267.8,202.9z"/>
					</g>
					<g>
						<path class="st8" d="M269.3,203.8c0,0.3-0.1,0.6-0.2,0.8c-0.1,0.2-0.2,0.4-0.3,0.5c-0.3,0.3-0.6,0.5-1,0.5
							c-0.8,0-1.5-0.8-1.5-1.8c0-1,0.7-1.8,1.5-1.8c0.4,0,0.7,0.2,1,0.5c0.1,0.1,0.2,0.3,0.3,0.5
							C269.2,203.2,269.3,203.5,269.3,203.8z"/>
						<g class="st26">
							<path d="M268.3,205.1c-0.6,0-1.1-0.6-1.1-1.3c0-0.7,0.5-1.3,1.1-1.3c0.3,0,0.6,0.2,0.8,0.5c-0.1-0.2-0.2-0.4-0.3-0.5
								c-0.1-0.1-0.3-0.1-0.5-0.1c-0.7,0-1.2,0.6-1.2,1.4c0,0.8,0.5,1.4,1.2,1.4c0.2,0,0.3,0,0.5-0.1c0.1-0.1,0.2-0.3,0.3-0.5
								C268.9,204.9,268.6,205.1,268.3,205.1z"/>
						</g>
					</g>
					<path class="st6" d="M262.9,202.8c0,0.3-0.1,0.5-0.3,0.5s-0.3-0.2-0.3-0.5c0-0.3,0.1-0.5,0.3-0.5S262.9,202.5,262.9,202.8z"/>
					<ellipse class="st6" cx="259.5" cy="202.8" rx="0.3" ry="0.5"/>
					<g>
						<path class="st27" d="M261,205.2c0.3,0.3,0.8,1,0.8,1c0.1,0,0.1-0.1,0.2-0.1c0.9-0.4,1.2-0.9,1.2-1.4c0-0.2,0-0.4-0.1-0.6
							c-0.1-0.2-0.2-0.3-0.2-0.3c-0.3,0.5-1.1,1-1.6,1.2C261.1,205.2,261,205.2,261,205.2z"/>
						<path class="st6" d="M261.3,205.1l0.2,0.3c0.8-0.4,1.4-0.8,1.5-1.2c-0.1-0.2-0.2-0.3-0.2-0.3
							C262.6,204.3,261.8,204.8,261.3,205.1z"/>
						<path class="st8" d="M262,206.1c0.9-0.4,1.2-0.9,1.2-1.4c-0.3,0.2-0.6,0.4-0.9,0.7C262.1,205.6,262,205.9,262,206.1z"/>
					</g>
				</g>
			</g>
			<path class="st8" d="M267.9,210.2c-0.9,0.7-2,1.2-3.2,1.5c0,0-0.1,0-0.1,0c-0.2,0.1-0.4,0.1-0.6,0.1c-0.2,0-0.4,0-0.5,0.1
				c-0.2,0-0.3,0-0.5,0c-0.1,0-0.1,0-0.2,0c-0.2,0-0.5,0-0.7,0c-0.3,0-0.6-0.1-0.9-0.1l-0.2,0c-1.3-0.3-2.6-0.9-3.6-1.7
				c0.4-0.3,0.9-0.5,1.4-0.5h7.5C266.9,209.5,267.5,209.8,267.9,210.2z"/>
		</g>
		<g>
			<path class="st8" d="M176.3,225.7l66,0l4.8,3v-28.3c0-3.1-2.5-5.5-5.5-5.5l-65.3,0c-3.1,0-5.5,2.5-5.5,5.5v19.8
				C170.8,223.2,173.2,225.7,176.3,225.7z"/>
			<g>
				<line class="st23" x1="178.9" y1="202.1" x2="240" y2="202.1"/>
				<line class="st23" x1="178.9" y1="207.2" x2="240" y2="207.2"/>
				<line class="st23" x1="178.9" y1="212.3" x2="240" y2="212.3"/>
				<line class="st23" x1="178.9" y1="217.4" x2="210" y2="217.4"/>
			</g>
		</g>
		<g>
			<path class="st9" d="M231.6,273.7h-75l-4.8,3v-33.3c0-3.1,2.5-5.5,5.5-5.5h74.3c3.1,0,5.5,2.5,5.5,5.5v24.8
				C237.1,271.2,234.6,273.7,231.6,273.7z"/>
			<g>
				<line class="st23" x1="158.9" y1="245.1" x2="230" y2="245.1"/>
				<line class="st23" x1="158.9" y1="250.2" x2="230" y2="250.2"/>
				<line class="st23" x1="158.9" y1="255.3" x2="230" y2="255.3"/>
				<line class="st23" x1="158.9" y1="265.4" x2="190" y2="265.4"/>
				<line class="st23" x1="158.9" y1="260.4" x2="230" y2="260.4"/>
			</g>
		</g>
		<g>
			<path class="st8" d="M130.2,246.4c0,2.4,1,4.5,2.5,6.1c0,0,0.1,0.1,0.1,0.1c1.1,1.1,2.6,1.9,4.1,2.2c0.1,0,0.1,0,0.2,0
				c0.3,0.1,0.6,0.1,0.9,0.1c0.2,0,0.5,0,0.7,0c0.1,0,0.1,0,0.2,0c0.2,0,0.3,0,0.5,0c0.2,0,0.3,0,0.5-0.1c0.2,0,0.4-0.1,0.6-0.1
				c0,0,0.1,0,0.1,0c1.2-0.3,2.3-0.8,3.3-1.5c0,0,0,0,0.1,0c0.1-0.1,0.1-0.1,0.2-0.2c1.9-1.6,3.1-3.9,3.1-6.6c0-4.7-3.8-8.6-8.6-8.6
				C134,237.8,130.2,241.6,130.2,246.4z"/>
			<g>
				<path class="st10" d="M133.8,244.7c0,0-1,4,0.3,5.2c1.3,1.2,8.9,1.2,9.9-0.3c1.1-1.5-1.4-6.4-1.4-6.4L133.8,244.7z"/>
				<path class="st8" d="M132.8,252.5c1.1,1.1,2.6,1.9,4.1,2.2c0.1,0,0.1,0,0.2,0c0.3,0.1,0.6,0.1,0.9,0.1c0.2,0,0.5,0,0.7,0
					c0.1,0,0.1,0,0.2,0c0.2,0,0.3,0,0.5,0c0.2,0,0.3,0,0.5-0.1c0.2,0,0.4-0.1,0.6-0.1v0.1c0,0,0.1,0,0.1-0.1
					c1.2-0.3,2.3-0.8,3.3-1.5c0-0.1-0.1-0.3-0.2-0.4l0,0l0,0l-0.1,0c-0.2-0.1-0.6-0.2-1.1-0.3l-0.1,0c-0.3-0.1-0.7-0.2-1.1-0.3
					c-0.3,0-0.5-0.1-0.8-0.1c0,0-0.1,0-0.1,0c0,0,0,0,0,0c-0.2,0-0.5-0.1-0.7-0.1c-0.1,0-0.2,0-0.3,0c-0.4,0-0.8-0.1-1.2-0.1
					c-0.1,0-0.3,0-0.4,0c-0.2,0-0.4,0-0.6,0c-0.2,0-0.5,0-0.7,0.1c-0.2,0-0.4,0-0.6,0.1h0c-0.4,0-0.7,0.1-1,0.2
					C134.1,252.1,133.4,252.3,132.8,252.5z"/>
				<path class="st13" d="M132.8,252.5c1.1,1.1,2.6,1.9,4.1,2.2c0.1,0,0.1,0,0.2,0c0.3,0.1,0.6,0.1,0.9,0.1c0.2,0,0.5,0,0.7,0
					c0.1,0,0.1,0,0.2,0c0.2,0,0.3,0,0.5,0c0.2,0,0.3,0,0.5-0.1c0.2,0,0.4-0.1,0.6-0.1v0.1c0,0,0.1,0,0.1-0.1
					c1.2-0.3,2.3-0.8,3.3-1.5c0-0.1-0.1-0.3-0.2-0.4l0,0l0,0l-0.1,0c-0.2-0.1-0.6-0.2-1.1-0.3l-0.1,0c-0.3-0.1-0.7-0.2-1.1-0.3
					c-0.3,0-0.5-0.1-0.8-0.1c0,0-0.1,0-0.1,0c0,0,0,0,0,0c-0.2,0-0.5-0.1-0.7-0.1c-0.1,0-0.2,0-0.3,0c-0.4,0-0.8-0.1-1.2-0.1
					c-0.1,0-0.3,0-0.4,0c-0.2,0-0.4,0-0.6,0c-0.2,0-0.5,0-0.7,0.1c-0.2,0-0.4,0-0.6,0.1h0c-0.4,0-0.7,0.1-1,0.2
					C134.1,252.1,133.4,252.3,132.8,252.5z"/>
				<path class="st10" d="M142.9,244.4c0,0,0.4-6.5-5.3-5c-7.2,1.9-3,10.5,0.5,9.4C141.7,247.7,142.9,244.4,142.9,244.4z"/>
				<path class="st9" d="M135.6,252.1l1.3,2.5l0.1,0.2c0.1,0,0.1,0,0.2,0c0.3,0.1,0.6,0.1,0.9,0.1l0.7-0.9c0.1,0.3,0.1,0.6,0.2,0.9
					c0.2,0,0.3,0,0.5,0c0-0.6-0.1-0.9-0.1-0.9l0.6,0.9c0.2,0,0.4-0.1,0.6-0.1l0.1-2.7c-0.1,0-0.2-0.1-0.3-0.1c0,0,0,0,0,0
					c-0.3-0.1-0.5-0.2-0.8-0.2c-0.1,0-0.1,0-0.2,0c-0.6-0.1-1.2-0.1-1.7,0c-0.2,0-0.4,0-0.5,0.1c-0.3,0-0.6,0.1-0.8,0.2h0
					C136,251.9,135.7,252,135.6,252.1L135.6,252.1z"/>
				<path class="st14" d="M139,252.7l-2.8-0.8c1.7-1.2,0.9-3.8,0.9-3.8l2.8,1c-0.1,0.5-0.2,0.8-0.3,1.2c-0.3,1.7,0.5,1.9,0.5,1.9
					L139,252.7z"/>
				<path class="st9" d="M139.9,249.1c-0.1,0.5-0.2,0.8-0.3,1.2c-1.3-0.5-2.5-2.2-2.5-2.2L139.9,249.1z"/>
				<g>
					<path class="st14" d="M139.2,241c2.5-0.2,3.4,1.1,3.8,3.7c0.4,3.2-0.1,5.6-3.3,5.1C135.4,249.1,135.1,241.3,139.2,241z"/>
					<path class="st15" d="M141.4,244.7c0,0,0.4,0.6,0.8,1c0,0-0.2,0.4-0.6,0.3L141.4,244.7z"/>
					<g>
						<path class="st10" d="M139.8,244.6c0,0.2-0.1,0.4-0.2,0.4c-0.1,0-0.3-0.1-0.3-0.4c0-0.2,0.1-0.4,0.2-0.4
							C139.7,244.2,139.8,244.4,139.8,244.6z"/>
						<path class="st10" d="M139.5,244.3l0.4-0.2C139.9,244,139.7,244.4,139.5,244.3z"/>
					</g>
					<g>
						<path class="st10" d="M142.4,244.3c0,0.2-0.1,0.4-0.2,0.4c-0.1,0-0.3-0.1-0.3-0.4c0-0.2,0.1-0.4,0.2-0.4
							C142.2,244,142.3,244.1,142.4,244.3z"/>
						<path class="st10" d="M142,244l0.4-0.2C142.5,243.8,142.3,244.2,142,244z"/>
					</g>
					<path class="st16" d="M139.7,242.9c0,0-0.7,0-1.1,0.4"/>
					<path class="st16" d="M141.5,242.6c0,0,0.4-0.2,1,0.1"/>
					<path class="st10" d="M136.8,245.4c0,0,1-2.1,0.8-3.7c0,0,4.8-2.4,5.4,2.7c0,0,0.2-4.5-4.1-4.3c-4.3,0.2-3.9,6.5-1.5,8.2
						C137.3,248.3,136.1,246.8,136.8,245.4z"/>
					<path class="st14" d="M137.2,245.9c0-0.4-0.5-1.1-1.2-0.9c-0.8,0.1-1,1.8,0.9,2C137.2,247.1,137.3,246.8,137.2,245.9z"/>
					<g>
						<path class="st10" d="M141.8,247c-0.1,0.3-0.3,0.9-0.3,0.9c-0.1,0-0.1,0-0.2,0c-0.7-0.1-1.1-0.3-1.2-0.6
							c-0.1-0.2-0.1-0.3-0.1-0.4c0-0.1,0-0.3,0-0.3c0.4,0.3,1.1,0.4,1.4,0.4C141.7,247,141.8,247,141.8,247z"/>
						<path class="st6" d="M141.6,247l-0.1,0.3c-0.7,0-1.2-0.2-1.4-0.4c0-0.1,0-0.3,0-0.3C140.5,246.8,141.2,246.9,141.6,247z"/>
						<path class="st17" d="M141.4,247.9c-0.7-0.1-1.1-0.3-1.2-0.6c0.2,0,0.5,0.1,0.8,0.2C141.2,247.6,141.3,247.7,141.4,247.9z"/>
					</g>
					<path class="st10" d="M139.2,241.2c0,0-0.7,4.2-3.3,4.3c-2.6,0.1,1.1-5.4,1.1-5.4s4.1-1.9,6.4,0.2c2.2,2.1-0.4,4-0.4,4
						S142.9,241.2,139.2,241.2z"/>
					<path class="st18" d="M139.2,240.9c0,0,0.5,2.8-1.5,3.9"/>
					<g>
						<path class="st10" d="M136.4,245.1C136.4,245.2,136.4,245.2,136.4,245.1L136.4,245.1l0.3,0h0l0.2,0l0.2,0h0l1.8-0.2
							c0.1,0.5,0.5,0.9,1,0.9c0.6,0.1,1.2-0.3,1.3-1c0-0.1,0-0.1,0-0.2c0.1-0.1,0.2-0.2,0.3-0.2c0.1,0,0.2,0.1,0.2,0.1
							c0.1,0.4,0.3,0.7,0.7,0.9c0.1,0,0.2,0.1,0.3,0.1c0.2,0,0.3,0,0.5,0c0.2,0,0.4-0.1,0.5-0.3c0.2-0.2,0.3-0.4,0.3-0.7
							c0.1-0.4-0.1-0.7-0.3-1c-0.2-0.2-0.4-0.3-0.7-0.4c0,0,0,0,0,0c0,0,0,0-0.1,0c0,0-0.1,0-0.1,0c0,0,0,0,0,0c0,0,0,0,0,0
							c-0.5,0-1,0.4-1.1,1c0,0.1,0,0.1,0,0.2c0,0-0.1,0-0.1,0c-0.1,0-0.2,0-0.3,0.1c-0.1-0.5-0.5-0.9-1-0.9c0,0-0.1,0-0.1,0h0
							c-0.2,0-0.3,0-0.5,0.1l0,0h0c-0.4,0.1-0.7,0.5-0.7,0.9c0,0.1,0,0.2,0,0.2l-1.6,0.1l-0.3,0L136.4,245.1
							C136.5,245,136.5,245,136.4,245.1C136.4,245,136.4,245.1,136.4,245.1z M141.8,244.3c0.1-0.5,0.5-0.8,1-0.9c0,0,0,0,0,0
							c0,0,0,0,0,0h0c0,0,0,0,0.1,0c0,0,0,0,0.1,0c0,0,0,0,0,0c0.2,0,0.5,0.2,0.6,0.3c0.2,0.2,0.3,0.5,0.2,0.8
							c0,0.2-0.1,0.4-0.3,0.5c-0.1,0.1-0.3,0.2-0.5,0.3c-0.1,0-0.3,0.1-0.4,0c-0.1,0-0.1,0-0.2,0C142,245.2,141.7,244.8,141.8,244.3
							z M139,244.6c0.1-0.6,0.6-0.9,1.2-0.9c0.6,0.1,0.9,0.6,0.9,1.2c-0.1,0.6-0.6,0.9-1.2,0.9C139.3,245.7,139,245.2,139,244.6z"/>
					</g>
					<g class="st19">
						<path class="st6" d="M136.4,245.1C136.4,245.2,136.4,245.2,136.4,245.1L136.4,245.1l0.3,0h0l0.2,0l0.2,0h0l1.8-0.2
							c0.1,0.5,0.5,0.9,1,0.9c0.6,0.1,1.2-0.3,1.3-1c0-0.1,0-0.1,0-0.2c0.1-0.1,0.2-0.2,0.3-0.2c0.1,0,0.2,0.1,0.2,0.1
							c0.1,0.4,0.3,0.7,0.7,0.9c0.1,0,0.2,0.1,0.3,0.1c0.2,0,0.3,0,0.5,0c0.2,0,0.4-0.1,0.5-0.3c0.2-0.2,0.3-0.4,0.3-0.7
							c0.1-0.4-0.1-0.7-0.3-1c-0.2-0.2-0.4-0.3-0.7-0.4c0,0,0,0,0,0c0,0,0,0-0.1,0c0,0-0.1,0-0.1,0c0,0,0,0,0,0c0,0,0,0,0,0
							c-0.5,0-1,0.4-1.1,1c0,0.1,0,0.1,0,0.2c0,0-0.1,0-0.1,0c-0.1,0-0.2,0-0.3,0.1c-0.1-0.5-0.5-0.9-1-0.9c0,0-0.1,0-0.1,0h0
							c-0.2,0-0.3,0-0.5,0.1l0,0h0c-0.4,0.1-0.7,0.5-0.7,0.9c0,0.1,0,0.2,0,0.2l-1.6,0.1l-0.3,0L136.4,245.1
							C136.5,245,136.5,245,136.4,245.1C136.4,245,136.4,245.1,136.4,245.1z M141.8,244.3c0.1-0.5,0.5-0.8,1-0.9c0,0,0,0,0,0
							c0,0,0,0,0,0h0c0,0,0,0,0.1,0c0,0,0,0,0.1,0c0,0,0,0,0,0c0.2,0,0.5,0.2,0.6,0.3c0.2,0.2,0.3,0.5,0.2,0.8
							c0,0.2-0.1,0.4-0.3,0.5c-0.1,0.1-0.3,0.2-0.5,0.3c-0.1,0-0.3,0.1-0.4,0c-0.1,0-0.1,0-0.2,0C142,245.2,141.7,244.8,141.8,244.3
							z M139,244.6c0.1-0.6,0.6-0.9,1.2-0.9c0.6,0.1,0.9,0.6,0.9,1.2c-0.1,0.6-0.6,0.9-1.2,0.9C139.3,245.7,139,245.2,139,244.6z"/>
					</g>
				</g>
				<polygon class="st8" points="137,250.9 138.8,252.6 138.1,254.7 135.6,252.1 				"/>
				<polygon class="st8" points="139.5,251.3 139.2,252.6 140.2,254.5 140.7,252 				"/>
				<g>
					<path class="st10" d="M140.7,254.7c1.2-0.3,2.3-0.8,3.3-1.5c0,0,0,0,0.1,0c0.1-0.1,0.1-0.1,0.2-0.2c-0.1-0.1-0.3-0.1-0.4-0.2
						c-1.3-0.5-2.4-0.7-2.4-0.7s0,0,0,0.1C141.4,252.4,141.6,253.8,140.7,254.7z"/>
					<path class="st10" d="M132.7,252.4c0,0,0.1,0.1,0.1,0.1c1.1,1.1,2.6,1.9,4.1,2.2c0.1,0,0.1,0,0.2,0c-0.1-0.1-0.2-0.2-0.3-0.2
						c-0.1-0.1-0.3-0.2-0.4-0.4c-0.2-0.2-0.3-0.3-0.5-0.5c0-0.1-0.1-0.1-0.1-0.2c-0.1-0.1-0.2-0.2-0.3-0.3c-0.1-0.1-0.2-0.2-0.2-0.3
						c-0.1-0.1-0.1-0.2-0.2-0.3c-0.1-0.2-0.3-0.4-0.3-0.5c-0.1-0.1-0.1-0.2-0.1-0.2S133.8,252.1,132.7,252.4z"/>
					<path class="st20" d="M132.7,252.4c0,0,0.1,0.1,0.1,0.1c1.1,1.1,2.6,1.9,4.1,2.2c0.1,0,0.1,0,0.2,0c-0.1-0.1-0.2-0.2-0.3-0.2
						c-0.1-0.1-0.3-0.2-0.4-0.4c-0.2-0.2-0.3-0.3-0.5-0.5c0-0.1-0.1-0.1-0.1-0.2c-0.1-0.1-0.2-0.2-0.3-0.3c-0.1-0.1-0.2-0.2-0.2-0.3
						c-0.1-0.1-0.1-0.2-0.2-0.3c-0.1-0.2-0.3-0.4-0.3-0.5c-0.1-0.1-0.1-0.2-0.1-0.2S133.8,252.1,132.7,252.4z"/>
				</g>
				<polygon class="st13" points="137,250.9 138.8,252.6 138.1,254.7 135.6,252.1 				"/>
				<polygon class="st13" points="139.5,251.3 139.2,252.6 140.2,254.5 140.7,252 				"/>
				<g class="st21">
					<path class="st6" d="M140.7,254.7c1.2-0.3,2.3-0.8,3.3-1.5c0,0,0,0,0.1,0c0.1-0.1,0.1-0.1,0.2-0.2c-0.1-0.1-0.3-0.1-0.4-0.2
						c-1.3-0.5-2.4-0.7-2.4-0.7s0,0,0,0.1C141.4,252.4,141.6,253.8,140.7,254.7z"/>
					<path class="st6" d="M132.7,252.4c0,0,0.1,0.1,0.1,0.1c1.1,1.1,2.6,1.9,4.1,2.2c0.1,0,0.1,0,0.2,0c-0.1-0.1-0.2-0.2-0.3-0.2
						c-0.1-0.1-0.3-0.2-0.4-0.4c-0.2-0.2-0.3-0.3-0.5-0.5c0-0.1-0.1-0.1-0.1-0.2c-0.1-0.1-0.2-0.2-0.3-0.3c-0.1-0.1-0.2-0.2-0.2-0.3
						c-0.1-0.1-0.1-0.2-0.2-0.3c-0.1-0.2-0.3-0.4-0.3-0.5c-0.1-0.1-0.1-0.2-0.1-0.2S133.8,252.1,132.7,252.4z"/>
				</g>
			</g>
		</g>
		<g>
			<path class="st6" d="M271.3,293.4c0,2.6-1.2,5-3.1,6.6l-0.2,0.2c0,0,0,0-0.1,0c0,0,0,0-0.1,0.1c-0.9,0.7-2,1.2-3.2,1.5
				c0,0-0.1,0-0.1,0c-0.2,0.1-0.4,0.1-0.6,0.1c-0.2,0-0.4,0-0.5,0.1c-0.2,0-0.3,0-0.5,0c-0.1,0-0.1,0-0.2,0c-0.2,0-0.5,0-0.7,0
				c-0.3,0-0.6-0.1-0.9-0.1l-0.2,0c-1.3-0.3-2.6-0.9-3.6-1.7c-0.2-0.1-0.4-0.3-0.6-0.5c0,0-0.1-0.1-0.1-0.1
				c-1.6-1.5-2.5-3.7-2.5-6.1c0-4.7,3.8-8.5,8.6-8.5C267.5,284.8,271.3,288.6,271.3,293.4z"/>
			<g>
				<g>
					<rect x="260.3" y="297.2" class="st10" width="4.8" height="2.6"/>
					<rect x="260.3" y="297.2" class="st25" width="4.8" height="2.6"/>
					<rect x="260.3" y="298.1" class="st9" width="4.8" height="0.1"/>
					<rect x="260.3" y="298.7" class="st9" width="4.8" height="0.1"/>
					<rect x="260.3" y="299.2" class="st9" width="4.8" height="0.1"/>
					<path class="st9" d="M265.1,297.2v0.7c-1.2,0.4-3.2,1.1-4.8,1v-1.7H265.1z"/>
				</g>
				<g>
					<path class="st8" d="M267,289.7h-3.3h-3.6h-1.5c-1,0-1.8,0.8-1.8,1.8v4.7c0,1,0.8,1.8,1.8,1.8h1.5h3.6h3.3c1,0,1.8-0.8,1.8-1.8
						v-4.7C268.9,290.5,268.1,289.7,267,289.7z"/>
					<path class="st9" d="M267,289.7h-3.3c1,0,1.8,0.8,1.8,1.8v4.7c0,1-0.8,1.8-1.8,1.8h3.3c1,0,1.8-0.8,1.8-1.8v-4.7
						C268.9,290.5,268.1,289.7,267,289.7z"/>
					<path class="st10" d="M263.7,290.5h-5c-0.6,0-1.1,0.5-1.1,1.1v4.5c0,0.6,0.5,1.1,1.1,1.1h5c0.6,0,1.1-0.5,1.1-1.1v-4.5
						C264.8,291,264.3,290.5,263.7,290.5z"/>
					<g>
						<path class="st10" d="M267.8,292.9c-0.1,0-0.1-0.1-0.1-0.1v-5.4c0-0.1,0.1-0.1,0.1-0.1c0.1,0,0.1,0.1,0.1,0.1v5.4
							C267.9,292.9,267.9,292.9,267.8,292.9z"/>
					</g>
					<g>
						<path class="st8" d="M269.3,293.8c0,0.3-0.1,0.6-0.2,0.8c-0.1,0.2-0.2,0.4-0.3,0.5c-0.3,0.3-0.6,0.5-1,0.5
							c-0.8,0-1.5-0.8-1.5-1.8c0-1,0.7-1.8,1.5-1.8c0.4,0,0.7,0.2,1,0.5c0.1,0.1,0.2,0.3,0.3,0.5
							C269.2,293.2,269.3,293.5,269.3,293.8z"/>
						<g class="st26">
							<path d="M268.3,295.1c-0.6,0-1.1-0.6-1.1-1.3c0-0.7,0.5-1.3,1.1-1.3c0.3,0,0.6,0.2,0.8,0.5c-0.1-0.2-0.2-0.4-0.3-0.5
								c-0.1-0.1-0.3-0.1-0.5-0.1c-0.7,0-1.2,0.6-1.2,1.4c0,0.8,0.5,1.4,1.2,1.4c0.2,0,0.3,0,0.5-0.1c0.1-0.1,0.2-0.3,0.3-0.5
								C268.9,294.9,268.6,295.1,268.3,295.1z"/>
						</g>
					</g>
					<path class="st6" d="M262.9,292.8c0,0.3-0.1,0.5-0.3,0.5s-0.3-0.2-0.3-0.5c0-0.3,0.1-0.5,0.3-0.5S262.9,292.5,262.9,292.8z"/>
					<ellipse class="st6" cx="259.5" cy="292.8" rx="0.3" ry="0.5"/>
					<g>
						<path class="st27" d="M261,295.2c0.3,0.3,0.8,1,0.8,1c0.1,0,0.1-0.1,0.2-0.1c0.9-0.4,1.2-0.9,1.2-1.4c0-0.2,0-0.4-0.1-0.6
							c-0.1-0.2-0.2-0.3-0.2-0.3c-0.3,0.5-1.1,1-1.6,1.2C261.1,295.2,261,295.2,261,295.2z"/>
						<path class="st6" d="M261.3,295.1l0.2,0.3c0.8-0.4,1.4-0.8,1.5-1.2c-0.1-0.2-0.2-0.3-0.2-0.3
							C262.6,294.3,261.8,294.8,261.3,295.1z"/>
						<path class="st8" d="M262,296.1c0.9-0.4,1.2-0.9,1.2-1.4c-0.3,0.2-0.6,0.4-0.9,0.7C262.1,295.6,262,295.9,262,296.1z"/>
					</g>
				</g>
			</g>
			<path class="st8" d="M267.9,300.2c-0.9,0.7-2,1.2-3.2,1.5c0,0-0.1,0-0.1,0c-0.2,0.1-0.4,0.1-0.6,0.1c-0.2,0-0.4,0-0.5,0.1
				c-0.2,0-0.3,0-0.5,0c-0.1,0-0.1,0-0.2,0c-0.2,0-0.5,0-0.7,0c-0.3,0-0.6-0.1-0.9-0.1l-0.2,0c-1.3-0.3-2.6-0.9-3.6-1.7
				c0.4-0.3,0.9-0.5,1.4-0.5h7.5C266.9,299.5,267.5,299.8,267.9,300.2z"/>
		</g>
		<g>
			<path class="st8" d="M157.3,325.7l85,0l4.8,3v-38.3c0-3.1-2.5-5.5-5.5-5.5l-84.3,0c-3.1,0-5.5,2.5-5.5,5.5v29.8
				C151.8,323.2,154.2,325.7,157.3,325.7z"/>
			<g>
				<line class="st23" x1="158.9" y1="292.1" x2="240" y2="292.1"/>
				<line class="st23" x1="158.9" y1="297.2" x2="240" y2="297.2"/>
				<line class="st23" x1="158.9" y1="302.3" x2="240" y2="302.3"/>
				<line class="st23" x1="158.9" y1="312.4" x2="240" y2="312.4"/>
				<line class="st23" x1="158.9" y1="317.5" x2="191" y2="317.5"/>
				<line class="st23" x1="158.9" y1="307.4" x2="240" y2="307.4"/>
			</g>
		</g>
	</g>
</g>
<g id="Speech_Bubble">
	<g>
		<g>
			<path class="st8" d="M384.5,177.5h-78c-3.3,0-5.9,2.7-5.9,5.9v22.9c0,3.3,2.7,5.9,5.9,5.9h35.4l5.4,11.2v-11.2h37.2
				c3.3,0,5.9-2.7,5.9-5.9v-22.9C390.4,180.2,387.8,177.5,384.5,177.5z"/>
		</g>
		<g>
			<path class="st6" d="M320.4,190v8.4h-1.2v-3.7h-4.8v3.7h-1.2V190h1.2v3.6h4.8V190H320.4z"/>
			<path class="st6" d="M328.4,195.6h-5.2c0.1,1.1,1,1.9,2.3,1.9c0.7,0,1.4-0.3,1.8-0.8l0.6,0.7c-0.6,0.7-1.5,1-2.5,1
				c-2.1,0-3.4-1.4-3.4-3.2c0-1.9,1.4-3.2,3.2-3.2c1.8,0,3.1,1.3,3.1,3.3C328.5,195.3,328.4,195.5,328.4,195.6z M323.3,194.8h4.1
				c-0.1-1.1-0.9-1.8-2-1.8C324.2,192.9,323.4,193.7,323.3,194.8z"/>
			<path class="st6" d="M330.1,189.5h1.2v8.9h-1.2V189.5z"/>
			<path class="st6" d="M333.4,189.5h1.2v8.9h-1.2V189.5z"/>
			<path class="st6" d="M336.2,195.2c0-1.9,1.4-3.2,3.3-3.2c1.9,0,3.3,1.3,3.3,3.2c0,1.9-1.4,3.2-3.3,3.2
				C337.6,198.5,336.2,197.1,336.2,195.2z M341.6,195.2c0-1.4-0.9-2.2-2.1-2.2c-1.2,0-2.1,0.9-2.1,2.2s0.9,2.2,2.1,2.2
				C340.7,197.4,341.6,196.6,341.6,195.2z"/>
			<path class="st6" d="M351.2,198c-0.3,0.3-0.9,0.4-1.4,0.4c-1.3,0-2-0.7-2-2V193h-1.1V192h1.1v-1.4h1.2v1.4h1.8v0.9h-1.8v3.4
				c0,0.7,0.4,1.1,1,1.1c0.3,0,0.7-0.1,0.9-0.3L351.2,198z"/>
			<path class="st6" d="M358.6,194.7v3.7h-1.2v-3.5c0-1.2-0.6-1.9-1.7-1.9c-1.2,0-2,0.7-2,2.1v3.3h-1.2v-8.9h1.2v3.4
				c0.5-0.6,1.3-1,2.2-1C357.5,192,358.6,192.9,358.6,194.7z"/>
			<path class="st6" d="M366.5,195.6h-5.2c0.1,1.1,1,1.9,2.3,1.9c0.7,0,1.4-0.3,1.8-0.8l0.6,0.7c-0.6,0.7-1.5,1-2.5,1
				c-2.1,0-3.4-1.4-3.4-3.2c0-1.9,1.4-3.2,3.2-3.2c1.8,0,3.1,1.3,3.1,3.3C366.5,195.3,366.5,195.5,366.5,195.6z M361.3,194.8h4.1
				c-0.1-1.1-0.9-1.8-2-1.8C362.3,192.9,361.5,193.7,361.3,194.8z"/>
			<path class="st6" d="M371.5,192v1.1c-0.1,0-0.2,0-0.3,0c-1.2,0-2,0.8-2,2.1v3.2h-1.2V192h1.1v1.1
				C369.6,192.4,370.4,192,371.5,192z"/>
			<path class="st6" d="M378.6,195.6h-5.2c0.1,1.1,1,1.9,2.3,1.9c0.7,0,1.4-0.3,1.8-0.8l0.6,0.7c-0.6,0.7-1.5,1-2.5,1
				c-2.1,0-3.4-1.4-3.4-3.2c0-1.9,1.4-3.2,3.2-3.2c1.8,0,3.1,1.3,3.1,3.3C378.6,195.3,378.6,195.5,378.6,195.6z M373.5,194.8h4.1
				c-0.1-1.1-0.9-1.8-2-1.8C374.4,192.9,373.6,193.7,373.5,194.8z"/>
		</g>
	</g>
</g>
<g id="Character">
	<g>
		<g>
			<path class="st10" d="M352.5,296.4H344c0,0-11.2,19.1-20.9,18c-7.7-0.9-11.8-14.9-11.8-14.9l-5.3,0.3c0,0,2.7,18.2,15.5,21.4
				C338.7,325.4,352.5,296.4,352.5,296.4z"/>
			<path class="st28" d="M352.5,296.4c0,0-1.6,3.3-4.3,7.5c-0.1,0.2-0.3,0.5-0.5,0.7c-0.9,1.4-1.9,2.8-3.1,4.3
				c-0.2,0.2-0.3,0.5-0.5,0.7c-1.1,1.4-2.3,2.8-3.6,4.1c-0.2,0.2-0.4,0.4-0.6,0.6c-1.3,1.3-2.8,2.5-4.3,3.6
				c-0.2,0.2-0.5,0.3-0.7,0.5c-1.2,0.8-2.5,1.5-3.9,2c-0.3,0.1-0.5,0.2-0.8,0.3c-1.8,0.7-3.8,1-5.8,0.9c-0.3,0-0.6,0-0.9,0
				c-0.7-0.1-1.4-0.2-2.1-0.4c-1.4-0.4-2.7-0.9-3.8-1.5c-0.2-0.1-0.5-0.3-0.7-0.4c-1.4-0.9-2.7-2-3.7-3.2c-0.2-0.2-0.4-0.4-0.6-0.6
				c-1.1-1.3-2-2.7-2.8-4.1c-0.1-0.2-0.3-0.5-0.4-0.8c-2.7-5.3-3.5-10.6-3.5-10.6l5.3-0.3c0,0,1,3.5,3,7.1c0.1,0.2,0.3,0.5,0.4,0.8
				c0.6,1,1.3,2.1,2.1,3c0.2,0.2,0.4,0.5,0.6,0.7c0.6,0.7,1.3,1.3,2,1.8c0.2,0.2,0.5,0.3,0.7,0.5c0.9,0.6,1.9,1,3,1.1
				c0.1,0,0.2,0,0.3,0c0.3,0,0.6,0,0.8,0c0.9,0,1.8-0.2,2.7-0.5c0.3-0.1,0.5-0.2,0.8-0.3c0.9-0.4,1.7-0.9,2.6-1.4
				c0.2-0.1,0.5-0.3,0.7-0.5c1-0.8,2.1-1.6,3.1-2.6c0.2-0.2,0.4-0.4,0.6-0.6c1.1-1.1,2.1-2.2,3.1-3.4c0.2-0.2,0.4-0.4,0.6-0.7
				c1-1.3,2-2.5,2.8-3.7c0.2-0.2,0.3-0.5,0.5-0.7c1.5-2.1,2.4-3.6,2.4-3.6H352.5z"/>
			<path class="st8" d="M312,301.7l-4.9,2.7c0,0-3.9-8.1-2.4-15.2l8.8-2.2C313.5,287,314.7,293.4,312,301.7z"/>
			<path class="st9" d="M348.2,303.9c-0.1,0.2-0.3,0.5-0.5,0.7l-6.6-3.9c0.2-0.2,0.3-0.5,0.5-0.7L348.2,303.9z"/>
			<path class="st9" d="M344.6,308.8c-0.2,0.2-0.3,0.5-0.5,0.7l-6.3-4.5c0.2-0.2,0.4-0.4,0.6-0.7L344.6,308.8z"/>
			<path class="st9" d="M340.5,313.6c-0.2,0.2-0.4,0.4-0.6,0.6L334,309c0.2-0.2,0.4-0.4,0.6-0.6L340.5,313.6z"/>
			<path class="st9" d="M335.6,317.7c-0.2,0.2-0.5,0.3-0.7,0.5l-4.6-6.1c0.2-0.1,0.5-0.3,0.7-0.5L335.6,317.7z"/>
			<path class="st9" d="M331,320.3c-0.3,0.1-0.5,0.2-0.8,0.3l-3.3-6.8c0.3-0.1,0.5-0.2,0.8-0.3L331,320.3z"/>
			<path class="st9" d="M324.4,321.5c-0.3,0-0.6,0-0.9,0l-0.2-7.1c0.3,0,0.6,0,0.8,0L324.4,321.5z"/>
			<path class="st9" d="M320,313.2l-2.4,6.3c-0.2-0.1-0.5-0.3-0.7-0.4l2.4-6.3C319.5,312.9,319.8,313.1,320,313.2z"/>
			<path class="st9" d="M317.3,310.9l-4.2,4.9c-0.2-0.2-0.4-0.4-0.6-0.6l4.2-4.9C316.9,310.5,317.1,310.7,317.3,310.9z"/>
			<path class="st9" d="M314.6,307.2l-4.8,3.8c-0.1-0.2-0.3-0.5-0.4-0.8l4.8-3.8C314.4,306.7,314.5,307,314.6,307.2z"/>
		</g>
		<g>
			<path class="st10" d="M328.2,295.6c0.1,0.8-0.5,1.5-1.3,1.5h-14.5c-0.8,0-1.5-0.7-1.6-1.5l-3.2-28.6c-0.1-0.8,0.5-1.7,1.3-1.7
				h14.5c0.8,0,1.5,0.8,1.6,1.7L328.2,295.6z"/>
			<path class="st11" d="M323.4,266.9l3.3,28.8c0.1,0.8-0.3,1.4-1.1,1.4h-12.3c-0.8,0-2.3-0.5-2.4-1.3l-3.3-28.9
				c-0.1-0.8,1.3-1.5,2.1-1.5H322C322.8,265.4,323.3,266.1,323.4,266.9z"/>
		</g>
		<g>
			<ellipse class="st10" cx="325.2" cy="386.4" rx="23.6" ry="30.3"/>
			<ellipse class="st9" cx="330.9" cy="386.4" rx="16.6" ry="21.3"/>
		</g>
		<g>
			<path class="st8" d="M415.2,370.8l-18.5,19.4l-59-2.7l-13.4-14.6l8.2-19c0.5-1.1,1.6-1.8,2.8-1.8h14.8c0.8,0,1.6,0.4,2.2,1l0.9,1
				l4.1,4.4c0.6,0.6,1.4,1,2.2,1h11.4c0.6,0,1.1-0.2,1.6-0.5l9.9-6.3c0.5-0.3,1-0.5,1.6-0.5h20.3c1.2,0,2.2,0.7,2.7,1.7L415.2,370.8
				z"/>
			<path class="st9" d="M376.8,373l9.9-16.7c0.6-0.9,1.5-1.5,2.6-1.5h14.3c1.2,0,2.3,0.7,2.8,1.9l6.1,14.5l-8.2,14.3l-21.2-0.8
				l-6.3-12.4"/>
			<path class="st9" d="M382.6,352.5l-8.6,14.3c-0.6,1-1.7,1.6-2.9,1.6H334c-1.5,0-2.5-1.5-1.9-2.9l4.2-10.1c0.4-1,1.3-1.6,2.4-1.6
				h14.7l4.1,4.4c0.6,0.6,1.4,1,2.2,1h11.4c0.6,0,1.1-0.2,1.6-0.5L382.6,352.5z"/>
		</g>
		<g>
			<g>
				<path class="st10" d="M399,404.2h-61.8c-2.7,0-5.2-1.2-6.9-3.2L320,388.7c-1.4-1.6-2.1-3.7-2.1-5.8v-8.4c0-2,1.6-3.6,3.6-3.6
					H399c2,0,3.6,1.6,3.6,3.6v26.1C402.7,402.5,401.1,404.2,399,404.2z"/>
				<path class="st25" d="M402.7,374.4v26.1c0,2-1.6,3.6-3.6,3.6h-61.8c-2.7,0-5.2-1.2-6.9-3.2L320,388.7c-1.4-1.6-2.1-3.7-2.1-5.8
					v-8.4c0-2,1.6-3.6,3.7-3.6H399C401.1,370.8,402.7,372.4,402.7,374.4z"/>
				<path class="st9" d="M402.7,374.4v26.1c0,2-1.6,3.6-3.6,3.6h-8.8c-2.7,0-5.2-1.2-6.9-3.2L373,388.7c-1.4-1.6-2.1-3.7-2.1-5.8
					v-8.4c0-2,1.6-3.6,3.7-3.6H399C401.1,370.8,402.7,372.4,402.7,374.4z"/>
			</g>
			<g>
				<g>
					<path class="st10" d="M347.9,404.1l-9.4-12.3c-1.6-2.1-4.9-3.8-7.3-3.8c-0.7,0-1.3,0.2-1.7,0.5l0,0l-0.9,0.7l0,0
						c-0.8,0.6-0.8,1.8,0.3,3.2l9.3,12.2c0.4,0.5,1,0.8,1.7,0.8h0.3h8.7h0.5c0.7,0,1.3-0.6,1.3-1.3l0,0H347.9z"/>
					<g>
						<path class="st28" d="M330.2,388.7L330.2,388.7c-2.3,0-2.9,1.7-1.3,3.7l9.3,12.2c0.4,0.5,1,0.8,1.7,0.8h8.7H348
							c-0.5,0-1.1-0.3-1.4-0.7l-9.5-12.4C335.6,390.3,332.5,388.7,330.2,388.7z"/>
					</g>
				</g>
				<g>
					<path class="st10" d="M362.1,404.1l-9.4-12.3c-1.6-2.1-4.9-3.8-7.3-3.8c-0.7,0-1.3,0.2-1.7,0.5l0,0l-0.9,0.7l0,0
						c-0.8,0.6-0.8,1.8,0.3,3.2l9.3,12.2c0.4,0.5,1,0.8,1.7,0.8h0.3h8.7h0.5c0.7,0,1.3-0.6,1.3-1.3l0,0H362.1z"/>
					<g>
						<path class="st28" d="M344.4,388.7L344.4,388.7c-2.3,0-2.9,1.7-1.3,3.7l9.3,12.2c0.4,0.5,1,0.8,1.7,0.8h8.7h-0.5
							c-0.5,0-1.1-0.3-1.4-0.7l-9.5-12.4C349.8,390.3,346.7,388.7,344.4,388.7z"/>
					</g>
				</g>
				<g>
					<path class="st10" d="M376.3,404.1l-9.4-12.3c-1.6-2.1-4.9-3.8-7.3-3.8c-0.7,0-1.3,0.2-1.7,0.5l0,0l-0.9,0.7l0,0
						c-0.8,0.6-0.8,1.8,0.3,3.2l9.3,12.2c0.4,0.5,1,0.8,1.7,0.8h0.3h8.7h0.5c0.7,0,1.3-0.6,1.3-1.3l0,0H376.3z"/>
					<g>
						<path class="st28" d="M358.6,388.7L358.6,388.7c-2.3,0-2.9,1.7-1.3,3.7l9.3,12.2c0.4,0.5,1,0.8,1.7,0.8h8.7h-0.5
							c-0.5,0-1.1-0.3-1.4-0.7l-9.5-12.4C364,390.3,360.9,388.7,358.6,388.7z"/>
					</g>
				</g>
			</g>
		</g>
		<g>
			<ellipse class="st10" cx="411.2" cy="386.4" rx="23.6" ry="30.3"/>
			<ellipse class="st8" cx="416.9" cy="386.4" rx="16.6" ry="21.3"/>
			<path class="st9" d="M432.1,395.1c-2.6,7.4-8.4,12.6-15.2,12.6c-9.2,0-16.6-9.5-16.6-21.3c0-8.3,3.7-15.5,9.1-19
				c-0.9,2.7-1.5,5.6-1.5,8.7c0,11.8,7.4,21.3,16.6,21.3C427.2,397.5,429.8,396.6,432.1,395.1z"/>
		</g>
		<g>
			<path class="st10" d="M349.9,339.7v20.6c0,1.1,0.9,1.9,1.9,1.9h21.9c0.6,0,1.1-0.2,1.4-0.7l7.2-8.3c0.7-0.8,1.6-1.2,2.7-1.2h2.9
				v-12.3H349.9z"/>
			<path class="st25" d="M387.9,339.7v12.3H385c-0.7,0-1.4,0.2-2,0.6c-0.2,0.2-0.5,0.4-0.7,0.6l-2.4,2.8l-0.7,0.9l-2.9,3.4l-0.8,0.9
				l-0.4,0.4c-0.4,0.4-0.9,0.7-1.5,0.7h-21.9c-0.8,0-1.4-0.5-1.7-1.1c-0.1-0.2-0.2-0.5-0.2-0.8v-20.6H387.9z"/>
			<rect x="349.9" y="343.3" class="st9" width="38" height="0.9"/>
			<rect x="349.9" y="347.6" class="st9" width="38" height="0.9"/>
			<path class="st9" d="M387.9,351.8v0.2H385c-0.7,0-1.4,0.2-2,0.6h-33.1v-0.9H387.9z"/>
			<polygon class="st9" points="380,356.1 379.2,356.9 349.9,356.9 349.9,356.1 			"/>
			<path class="st9" d="M376.3,360.3l-0.8,0.9h-25.4c-0.1-0.2-0.2-0.5-0.2-0.8v0H376.3z"/>
			<path class="st9" d="M387.9,339.7v4.6c-5.9,1.5-23.2,5.5-38,6v-10.6H387.9z"/>
		</g>
		<g>
			<rect x="354.3" y="276.9" class="st10" width="29.1" height="16.1"/>
			<rect x="354.3" y="276.9" class="st25" width="29.1" height="16.1"/>
			<rect x="354.3" y="282.5" class="st9" width="29.1" height="0.8"/>
			<rect x="354.3" y="286" class="st9" width="29.1" height="0.8"/>
			<rect x="354.3" y="289.5" class="st9" width="29.1" height="0.8"/>
			<path class="st9" d="M383.4,276.9v4.1c-7.4,2.7-19.6,6.4-29.1,6.1v-10.1H383.4z"/>
		</g>
		<g>
			<path class="st8" d="M395.4,231.1h-20h-21.9h-9c-6.1,0-11.1,5-11.1,11.1v28.5c0,6.1,5,11.1,11.1,11.1h9h21.9h20
				c6.1,0,11.1-5,11.1-11.1v-28.5C406.5,236.1,401.6,231.1,395.4,231.1z"/>
			<path class="st9" d="M406.5,242.2v28.5c0,6.1-5,11.1-11.1,11.1h-20c6.1,0,11.1-5,11.1-11.1v-28.5c0-6.1-5-11.1-11.1-11.1h20
				C401.5,231.1,406.5,236.1,406.5,242.2z"/>
			<path class="st10" d="M374.8,276.9h-30.2c-3.8,0-6.8-3-6.8-6.8v-27.3c0-3.8,3-6.8,6.8-6.8h30.2c3.8,0,6.8,3,6.8,6.8v27.3
				C381.6,273.9,378.6,276.9,374.8,276.9z"/>
			<line class="st29" x1="400" y1="250.2" x2="400" y2="217"/>
			<g>
				<path class="st8" d="M409.1,256.5c0,1.8-0.4,3.5-1.1,5c-0.5,1.2-1.2,2.2-2,3.1c-1.6,1.7-3.7,2.8-6,2.8c-5,0-9.1-4.9-9.1-10.9
					c0-6,4.1-10.9,9.1-10.9c2.3,0,4.4,1.1,6.1,2.8c0.8,0.9,1.5,1.9,2,3.1C408.7,252.9,409.1,254.7,409.1,256.5z"/>
				<g class="st26">
					<path d="M403.2,264.3c-3.5,0-6.4-3.5-6.4-7.8c0-4.3,2.9-7.8,6.4-7.8c2,0,3.7,1.1,4.9,2.8c-0.5-1.2-1.2-2.2-2-3.1
						c-0.9-0.4-1.9-0.7-2.9-0.7c-4.1,0-7.4,3.9-7.4,8.8c0,4.9,3.3,8.8,7.4,8.8c1,0,2-0.2,2.9-0.7c0.8-0.9,1.5-1.9,2-3.1
						C406.9,263.2,405.1,264.3,403.2,264.3z"/>
				</g>
			</g>
			<path class="st6" d="M370,250.2c0,1.8-0.8,3.2-1.8,3.2c-1,0-1.8-1.4-1.8-3.2c0-1.8,0.8-3.2,1.8-3.2
				C369.2,247,370,248.4,370,250.2z"/>
			<path class="st6" d="M351,250.2c0,1.8-0.8,3.2-1.8,3.2c-1,0-1.8-1.4-1.8-3.2c0-1.8,0.8-3.2,1.8-3.2
				C350.2,247,351,248.4,351,250.2z"/>
			<g>
				<path class="st27" d="M358.6,264.9c2,1.9,4.8,6,4.8,6c0.4-0.2,0.8-0.4,1.2-0.6c5.5-2.7,7.1-5.8,7.3-8.3c0.1-1.4-0.3-2.7-0.7-3.7
					c-0.5-1.1-1.1-1.8-1.1-1.8c-2.1,3.2-7,6.1-9.7,7.5C359.4,264.6,358.6,264.9,358.6,264.9z"/>
				<path class="st6" d="M360.5,264l1.5,1.7c5.2-2.6,8.5-5,9.3-7.4c-0.5-1.1-1.1-1.8-1.1-1.8C368.1,259.6,363.2,262.5,360.5,264z"/>
				<path class="st8" d="M364.7,270.3c5.5-2.7,7.1-5.8,7.3-8.3c-1.8,1-3.9,2.4-5.5,4.2C365.3,267.5,364.8,269,364.7,270.3z"/>
			</g>
		</g>
		<path class="st8" d="M404.4,301.9v29.8c0,5.9-4.8,10.7-10.7,10.7h-47.5c-5.9,0-10.7-4.8-10.7-10.7v-29.8c0-5.9,4.8-10.7,10.7-10.7
			h47.5C399.6,291.2,404.4,296,404.4,301.9z"/>
		<path class="st9" d="M404.4,301.9v29.8c0,5.9-4.8,10.7-10.7,10.7h-5.5c-5.9,0-10.7-4.8-10.7-10.7v-29.8c0-5.9,4.8-10.7,10.7-10.7
			h5.5C399.6,291.2,404.4,296,404.4,301.9z"/>
		<polygon class="st10" points="329.6,298.3 329.6,289.9 326.3,283.8 326.7,293 		"/>
		<path class="st10" d="M304.7,289l1.1-1.8l1.8-0.9v-2.1l3.3-3.3l2.2,3.2l-1.1,0.9l-1.3-0.6l-0.2,1.5h1.7l1.6,4.7l-1,0.8l0.4,2.3
			l-2.5,1.6l-2.6-1l0.6-1.6C308.7,292.7,304.7,293.1,304.7,289z"/>
		<g>
			<g>
				<path class="st10" d="M391.8,298.4L391.8,298.4c3.1,0,5.3,3.1,4.3,6c-2.7,7.9-10.4,20.6-33,20.6c-24.9,0-39.2-22.3-39.2-22.3
					l5.7-4.4c0,0,12.6,18.6,33.3,18.6c17.1,0,22.8-10.2,24.6-15.4C388.1,299.6,389.9,298.4,391.8,298.4z"/>
				<path class="st25" d="M396.1,304.4c-0.3,1-0.7,2-1.2,3.1c-0.1,0.3-0.2,0.5-0.4,0.8c-0.8,1.6-1.8,3.2-3,4.8
					c-0.2,0.2-0.3,0.5-0.5,0.7c-1.5,1.9-3.4,3.7-5.8,5.3c-0.2,0.2-0.5,0.3-0.7,0.5c-2,1.3-4.2,2.4-6.9,3.3c-0.3,0.1-0.5,0.2-0.8,0.3
					c-2.3,0.7-4.9,1.3-7.7,1.6c-0.3,0-0.6,0.1-0.8,0.1c-1.6,0.1-3.3,0.2-5.1,0.2c-0.9,0-1.7,0-2.5-0.1c-0.3,0-0.6,0-0.9-0.1
					c-2.3-0.2-4.5-0.6-6.7-1.1c-0.3-0.1-0.6-0.1-0.8-0.2c-2.6-0.7-5.1-1.7-7.4-2.7c-0.3-0.1-0.5-0.2-0.8-0.4
					c-2.5-1.2-4.7-2.6-6.8-4.1c-0.2-0.2-0.5-0.3-0.7-0.5c-2.3-1.7-4.2-3.4-5.9-5c-0.2-0.2-0.4-0.4-0.6-0.6c-4.1-4.1-6.3-7.5-6.3-7.5
					l5.7-4.4c0,0,1.9,2.9,5.5,6.3c0.2,0.2,0.4,0.4,0.6,0.6c1.4,1.3,3.1,2.7,5,4.1c0.2,0.2,0.5,0.3,0.7,0.5c1.8,1.2,3.8,2.4,5.9,3.4
					c0.3,0.1,0.5,0.2,0.8,0.4c1.8,0.8,3.8,1.5,5.9,2.1c0.3,0.1,0.6,0.1,0.8,0.2c1.8,0.4,3.6,0.7,5.5,0.9c0.3,0,0.6,0,0.9,0.1
					c0.6,0,1.2,0,1.7,0c1.6,0,3.1-0.1,4.4-0.2c0.3,0,0.6-0.1,0.9-0.1c2.1-0.3,4-0.8,5.7-1.4c0.3-0.1,0.5-0.2,0.8-0.3
					c1.8-0.7,3.3-1.5,4.6-2.5c0.2-0.2,0.5-0.3,0.7-0.5c1.5-1.2,2.8-2.5,3.8-3.8c0.2-0.2,0.4-0.5,0.5-0.7c0.9-1.2,1.6-2.5,2.1-3.6
					c0.1-0.3,0.2-0.5,0.3-0.8c0.2-0.6,0.4-1.1,0.6-1.6c0.6-1.8,2.4-3.1,4.3-3.1C395,298.4,397.1,301.4,396.1,304.4z"/>
			</g>
			<path class="st10" d="M324.8,286.8c0,0-5.6-3.7-6.1-3.5c-0.5,0.2-3.9,3.5-3.9,3.5l0.9,1.4l-1.9,2.2l0.6,0.9l-1.4,2.5l3.5,4.5h4.2
				L324.8,286.8z"/>
			<path class="st8" d="M324.8,304l5.8-4.4c0,0-4.5-12.2-5.8-12.8c-1.3-0.6-9.1,6.1-9.1,7.2C315.8,295,321.9,302.3,324.8,304z"/>
			<path class="st9" d="M394.9,307.5c-0.1,0.3-0.2,0.5-0.4,0.8l-8-4.5c0.1-0.3,0.2-0.5,0.3-0.8L394.9,307.5z"/>
			<path class="st9" d="M391.5,313.1c-0.2,0.2-0.3,0.5-0.5,0.7l-7.1-5.7c0.2-0.2,0.4-0.5,0.5-0.7L391.5,313.1z"/>
			<path class="st9" d="M385.2,319.1c-0.2,0.2-0.5,0.3-0.7,0.5l-5.1-7.2c0.2-0.2,0.5-0.3,0.7-0.5L385.2,319.1z"/>
			<path class="st9" d="M377.6,322.8c-0.3,0.1-0.5,0.2-0.8,0.3l-2.9-8c0.3-0.1,0.5-0.2,0.8-0.3L377.6,322.8z"/>
			<path class="st9" d="M369.1,324.7c-0.3,0-0.6,0.1-0.8,0.1l-0.9-8.2c0.3,0,0.6-0.1,0.9-0.1L369.1,324.7z"/>
			<path class="st9" d="M361.2,316.8l-0.5,8.1c-0.3,0-0.6,0-0.9-0.1l0.5-8.1C360.6,316.8,360.9,316.8,361.2,316.8z"/>
			<path class="st9" d="M354.9,315.9l-1.7,7.9c-0.3-0.1-0.6-0.1-0.8-0.2l1.7-7.9C354.3,315.8,354.6,315.8,354.9,315.9z"/>
			<path class="st9" d="M348.1,313.6l-3.2,7.2c-0.3-0.1-0.5-0.2-0.8-0.4l3.2-7.2C347.6,313.4,347.9,313.5,348.1,313.6z"/>
			<path class="st9" d="M341.5,309.8l-4,6.6c-0.2-0.2-0.5-0.3-0.7-0.5l4-6.6C341,309.5,341.2,309.6,341.5,309.8z"/>
			<path class="st9" d="M335.8,305.2l-4.9,5.6c-0.2-0.2-0.4-0.4-0.6-0.6l4.9-5.6C335.4,304.8,335.6,305,335.8,305.2z"/>
		</g>
	</g>
</g>
</svg>
