<svg xmlns="http://www.w3.org/2000/svg" xml:space="preserve" viewBox="0 0 500 500">
  <style>
    .st0{fill:#ebebeb}.st1{fill:#e6e6e6}.st2{fill:#fafafa}.st3{fill:#f5f5f5}.st4{fill:#f0f0f0}.st5{fill:#e0e0e0}.st6{fill:#fff}.st8{fill:#407bff}.st9{opacity:.2;enable-background:new}.st10{fill:#263238}.st11,.st13{opacity:.5;fill:#fff}.st13{opacity:.6}.st14{fill:#b97964}.st15{fill:#a24e3f}.st16{fill:none;stroke:#263238;stroke-width:.7247;stroke-linecap:round;stroke-linejoin:round;stroke-miterlimit:10}.st17{fill:#de5753}.st18{fill:none;stroke:#263238;stroke-width:.5;stroke-linecap:round;stroke-linejoin:round;stroke-miterlimit:10}.st19{opacity:.8;enable-background:new}.st20{fill:#fff}.st20,.st21,.st22{opacity:.1;enable-background:new}.st22{opacity:.6;fill:#fff}.st23{fill:none;stroke:#fff;stroke-linecap:round;stroke-linejoin:round;stroke-miterlimit:10}.st25{opacity:.3;fill:#fff}.st26{opacity:.4}.st27,.st28{opacity:.4;fill:#fff}.st28{opacity:.2}
  </style>
  <g id="Background_Complete">
    <path d="M0 382.4h500v.2H0zm416.8 16.1h33.1v.2h-33.1zm-94.3 2.7h8.7v.2h-8.7zm74.1-12h19.2v.2h-19.2zm-344.1 1.7h43.2v.2H52.5zm52.1 0h6.3v.2h-6.3zm26.9 4.2h93.7v.2h-93.7zM237 337.8H43.9c-3.1 0-5.7-2.6-5.7-5.7V60.7c0-3.1 2.6-5.7 5.7-5.7H237c3.1 0 5.7 2.6 5.7 5.7v271.4c0 3.1-2.5 5.7-5.7 5.7zM43.9 55.2c-3 0-5.5 2.4-5.5 5.5v271.4c0 3 2.4 5.5 5.5 5.5H237c3 0 5.5-2.4 5.5-5.5V60.7c0-3-2.4-5.5-5.5-5.5H43.9zm409.4 282.6H260.2c-3.1 0-5.7-2.6-5.7-5.7V60.7c0-3.1 2.6-5.7 5.7-5.7h193.1c3.1 0 5.7 2.6 5.7 5.7v271.4c0 3.1-2.5 5.7-5.7 5.7zM260.2 55.2c-3 0-5.5 2.4-5.5 5.5v271.4c0 3 2.4 5.5 5.5 5.5h193.1c3 0 5.5-2.4 5.5-5.5V60.7c0-3-2.4-5.5-5.5-5.5H260.2z" class="st0"/>
    <path d="M271 290.1h75.8v81.6H271z" class="st1" transform="rotate(-180 308.887 330.887)"/>
    <path d="M259.4 284h9.5v98.3h-9.5z" class="st1" transform="rotate(-180 264.174 333.146)"/>
    <path d="M328.5 296.5h6.2V327h-6.2z" class="st2" transform="rotate(-180 331.617 311.759)"/>
    <path d="M302.8 296.5h6.2V327h-6.2z" class="st3" transform="rotate(-180 305.863 311.759)"/>
    <path d="M322.3 298.7h6.2V327h-6.2z" class="st3" transform="rotate(-180 325.406 312.83)"/>
    <path d="M309 298.7h6.2V327H309z" class="st2" transform="rotate(-180 312.075 312.83)"/>
    <path d="M315.2 296.5h4V327h-4z" class="st0" transform="rotate(-180 317.187 311.759)"/>
    <path d="M319.2 298.7h3.1V327h-3.1z" class="st2" transform="rotate(-180 320.747 312.83)"/>
    <path d="M296.5 296.5h6.2V327h-6.2z" class="st0" transform="rotate(-180 299.652 311.759)"/>
    <path d="M290.3 298.7h6.2V327h-6.2z" class="st1" transform="rotate(-180 293.44 312.83)"/>
    <path d="M277 298.7h6.2V327H277z" class="st1" transform="rotate(-180 280.11 312.83)"/>
    <path d="M283.2 296.5h4V327h-4z" class="st2" transform="rotate(-180 285.222 311.759)"/>
    <path d="M287.2 298.7h3.1V327h-3.1z" class="st0" transform="rotate(-180 288.782 312.83)"/>
    <path d="M273.9 297.2h3.1V327h-3.1z" class="st2" transform="rotate(-180 275.451 312.12)"/>
    <path d="M273.9 337.4h6.2v30.5h-6.2zm25.8 0h6.2v30.5h-6.2z" class="st2"/>
    <path d="M280.1 339.5h6.2v28.3h-6.2z" class="st4"/>
    <path d="M293.4 339.5h6.2v28.3h-6.2z" class="st0"/>
    <path d="M289.4 337.4h4v30.5h-4z" class="st2"/>
    <path d="M286.3 339.5h3.1v28.3h-3.1z" class="st3"/>
    <path d="M305.9 337.4h6.2v30.5h-6.2z" class="st0"/>
    <path d="M312.1 339.5h6.2v28.3h-6.2z" class="st3"/>
    <path d="M325.4 339.5h6.2v28.3h-6.2z" class="st1"/>
    <path d="M321.4 337.4h4v30.5h-4zm13.3 0h4v30.5h-4z" class="st2"/>
    <path d="M318.3 339.5h3.1v28.3h-3.1z" class="st0"/>
    <path d="M331.6 338.1h3.1v29.8h-3.1z" class="st4"/>
    <path d="M268.8 284v98.3h5.1v-5.5h75.3V284h-80.4zm5.1 48.1h70.5v35.8h-70.5v-35.8zm0-39.2h70.5V327h-70.5v-34.1z" class="st4"/>
    <path d="M346.9 290.1h75.8v81.6h-75.8zm63.4 85.7h9.5v6.5h-9.5z" class="st1"/>
    <path d="M349.5 296.5h6.2V327h-6.2z" class="st2"/>
    <path d="M375.2 296.5h6.2V327h-6.2zm-19.5 2.2h6.2V327h-6.2z" class="st3"/>
    <path d="M369 298.7h6.2V327H369z" class="st2"/>
    <path d="M365 296.5h4V327h-4z" class="st0"/>
    <path d="M361.9 298.7h3.1V327h-3.1z" class="st2"/>
    <path d="M377.3 296.5h6.2V327h-6.2z" class="st0"/>
    <path d="M383.5 298.7h6.2V327h-6.2zm13.4 0h6.2V327h-6.2z" class="st1"/>
    <path d="M392.9 296.5h4V327h-4z" class="st2"/>
    <path d="M389.8 298.7h3.1V327h-3.1z" class="st0"/>
    <path d="M403.1 297.2h3.1V327h-3.1z" class="st3"/>
    <path d="M402.9 337.4h6.2v30.5h-6.2z" class="st2" transform="rotate(-180 406.01 352.627)"/>
    <path d="M377.1 337.4h6.2v30.5h-6.2z" class="st2" transform="rotate(-180 380.256 352.627)"/>
    <path d="M396.7 339.5h6.2v28.3h-6.2z" class="st3" transform="rotate(-180 399.798 353.698)"/>
    <path d="M383.4 339.5h6.2v28.3h-6.2z" class="st0" transform="rotate(-180 386.467 353.698)"/>
    <path d="M389.6 337.4h4v30.5h-4z" class="st2" transform="rotate(-180 391.58 352.627)"/>
    <path d="M393.6 339.5h3.1v28.3h-3.1z" class="st3" transform="rotate(-180 395.14 353.698)"/>
    <path d="M375 337.4h6.2v30.5H375z" class="st0" transform="rotate(-180 378.139 352.627)"/>
    <path d="M368.8 339.5h6.2v28.3h-6.2z" class="st3" transform="rotate(-180 371.928 353.698)"/>
    <path d="M355.5 339.5h6.2v28.3h-6.2z" class="st1" transform="rotate(-180 358.597 353.698)"/>
    <path d="M361.7 337.4h4v30.5h-4z" class="st2" transform="rotate(-180 363.71 352.627)"/>
    <path d="M349.2 337.4h4v30.5h-4z" class="st2" transform="rotate(-180 351.197 352.627)"/>
    <path d="M365.7 339.5h3.1v28.3h-3.1z" class="st0" transform="rotate(-180 367.27 353.698)"/>
    <path d="M352.4 338.1h3.1v29.8h-3.1z" class="st0" transform="rotate(-180 353.938 352.988)"/>
    <path d="M422.3 284h-77.8v92.7h75.3v5.5h5.1V284h-2.6zm-2.5 83.9h-70.5v-35.8h70.5v35.8zm0-40.9h-70.5v-34.1h70.5V327z" class="st4"/>
    <path d="M272.6 93h143.1v147.9H272.6z" class="st0" transform="rotate(-180 344.18 166.97)"/>
    <path d="M267.6 93h143.1v147.9H267.6z" class="st4" transform="rotate(-180 339.18 166.97)"/>
    <path d="M271.4 96.5h135.7v141H271.4z" class="st5"/>
    <path d="M274.8 96.5h132.3v140.9H274.8z" class="st3"/>
    <path d="M339.6 96.5h2.7v141h-2.7z" class="st0" transform="rotate(-180 340.944 167.005)"/>
    <path d="m324.2 96.5-37.7 141h-3.7l37.8-141z" class="st6"/>
    <path d="M338.4 94.4h2.3v145.8h-2.3z" class="st4" transform="rotate(-180 339.6 167.268)"/>
    <path d="m310.5 96.5-35.7 133.4v-73.3l16.1-60.1zm96.6 12.8v13.5l-30.6 114.7h-3.7zm0 27.3V210l-7.3 27.5h-19.6z" class="st6"/>
    <circle cx="120.1" cy="122" r="20.3" class="st5"/>
    <circle cx="120.1" cy="122" r="17.2" class="st4"/>
    <path fill="#f0f0f0" stroke="#e0e0e0" stroke-linecap="round" stroke-linejoin="round" stroke-miterlimit="10" stroke-width="2" d="M119.3 133.8v-12l-8 4.5"/>
    <path d="M202.7 282H82.6c0 4.4 3.5 8 7.9 8.2 12.9.6 32.8 2.6 39.1 9.8 11.7 13.3 10.6 60.1-3.5 70.9-4.4 3.4-17.3 10.1-17.3 10.1h67.7s-12-6.9-16.2-10.1c-14-10.9-14.4-57.7-2.6-70.9 6.1-6.8 24.7-9 37.2-9.7 4.4-.2 7.8-3.9 7.8-8.3z" class="st3"/>
    <path d="M97.5 290.7c12.2 1 26.8 3.4 32.1 9.3 1.6 1.8 2.9 4.1 4 6.9h20.2c1.1-2.8 2.5-5.1 4-6.9 5.3-5.9 20-8.3 32-9.3H97.5z" class="st1"/>
    <path d="m151.5 282.1-1.6-18.7h23.7l1.6 18.7z" class="st0"/>
    <path d="m151.5 282.1-1.6-18.7h-1.3l1.7 18.7z" class="st5"/>
    <path d="m153.8 280.2-1.3-14.9h18.8l1.3 14.9z" class="st4"/>
    <path d="m155.2 279-1-12.5h15.7L171 279z" class="st2"/>
    <path d="M143.9 282h-23.8l2.6-30.1h23.8z" class="st1"/>
    <path d="M143.9 282h1.1l2.6-30.1h-1.1z" class="st5"/>
    <path d="M141.7 279h-18.9l2.1-24.1h18.9z" class="st4"/>
    <path d="M140.3 277h-15.8l1.8-20.1h15.8z" class="st2"/>
    <path d="M132.3 265.9c1.1 1.1 2.8 1.1 3.9 0s1.1-2.8 0-3.9-2.8-1.1-3.9 0c-1 1.1-1 2.9 0 3.9z" class="st0"/>
    <path d="M133.5 269.3c-.8-.8-2.1-.8-2.8 0-1.3 1.3-.4 3.4 1.4 3.4 1.8.1 2.7-2.1 1.4-3.4z" class="st4"/>
  </g>
  <g id="Shadow_1_">
    <ellipse id="_x3C_Path_x3E__359_" cx="250" cy="416.2" class="st3" rx="193.9" ry="11.3"/>
  </g>
  <g id="Plant">
    <path d="M91.6 391.5s-5-10.8.7-21.5 7.3-13.2 3.7-15.3c-3.6-2.2-5.3 8.5-5.3 8.5s-3-7.4-.5-15.1c2.5-7.7 4.1-20.3.7-21.6-3.4-1.3-.7 15.7-3.6 21.5 0 0-2.5-6.5-2.9-12.6-.4-6.2.2-16.1-2.5-18.6s-4.4-.8-1.8 12.9c2.7 13.7 2.6 24.8 2.6 24.8s-5.9-17.9-9.8-18.4c-3.9-.5-3.9 5.3-.6 10.3 3.4 5 9.9 14.1 11 18.7 0 0-6.5-13.5-12.3-9.4-5.8 4.1 5.1 12.3 9.9 15.2s8.2 21.4 8.2 21.4l2.5-.8z" class="st8"/>
    <path d="M91.6 391.5s-5-10.8.7-21.5 7.3-13.2 3.7-15.3c-3.6-2.2-5.3 8.5-5.3 8.5s-3-7.4-.5-15.1c2.5-7.7 4.1-20.3.7-21.6-3.4-1.3-.7 15.7-3.6 21.5 0 0-2.5-6.5-2.9-12.6-.4-6.2.2-16.1-2.5-18.6s-4.4-.8-1.8 12.9c2.7 13.7 2.6 24.8 2.6 24.8s-5.9-17.9-9.8-18.4c-3.9-.5-3.9 5.3-.6 10.3 3.4 5 9.9 14.1 11 18.7 0 0-6.5-13.5-12.3-9.4-5.8 4.1 5.1 12.3 9.9 15.2s8.2 21.4 8.2 21.4l2.5-.8z" class="st9"/>
    <path d="M87.7 396s4.8-10.9-1-21.4-7.5-13.1-3.9-15.3c3.6-2.2 5.4 8.4 5.4 8.4s3-7.4.3-15.1c-2.6-7.7-4.3-20.2-.9-21.6 3.4-1.4.8 15.6 3.9 21.4 0 0 2.4-6.5 2.8-12.7.3-6.2-.4-16.1 2.3-18.6 2.7-2.6 4.4-.8 1.9 12.9-2.5 13.7-2.3 24.8-2.3 24.8s5.7-18 9.6-18.6c3.9-.6 4 5.2.7 10.3-3.3 5.1-9.7 14.2-10.7 18.9 0 0 6.3-13.6 12.1-9.5 5.9 4-4.9 12.4-9.7 15.4-4.8 3-7.9 21.5-7.9 21.5l-2.6-.8z" class="st8"/>
    <path d="M109.9 388.2H70.1l3.2 28.5h33.4z" class="st10"/>
  </g>
  <g id="Screen">
    <path d="M278.3 114v278.5c0 2.4-2 4.3-4.4 4.3h-148c-1.1 0-2.1-.4-2.8-1.1-.4-.4-.6-.8-.8-1.2-.2-.5-.3-1-.3-1.6V113.7c0-1.9 1.4-3.6 3.4-3.6h39.2c1.1 0 2.1.7 2.5 1.8l1.6 4c.1.3.3.6.6.9l.1.1c.1 0 .1.1.2.2s.2.1.3.2l.6.3c.2.1.5.1.8.1h57.9c1.1 0 2.1-.7 2.5-1.7l1.6-4c.4-1 1.4-1.8 2.5-1.8h38.6c2.2-.2 3.9 1.7 3.9 3.8z" class="st8"/>
    <path d="M122 128.8h156.3v245H122z" class="st11"/>
    <path fill="#fff" d="M122 343.5h156.3v30.3H122zm0-214.7h156.3v25.1H122z" opacity=".5"/>
    <path d="M127.2 141.4c0 2.4 1 4.5 2.5 6.1l.1.1c1.1 1.1 2.6 1.9 4.1 2.2h.2c.3.1.6.1.9.1h1.4c.2 0 .3 0 .5-.1.2 0 .4-.1.6-.1h.1c1.2-.3 2.3-.8 3.3-1.5h.1l.2-.2c1.9-1.6 3.1-3.9 3.1-6.6 0-4.7-3.8-8.6-8.6-8.6-4.7 0-8.5 3.8-8.5 8.6z" class="st8"/>
    <path d="M130.8 139.7s-1 4 .3 5.2c1.3 1.2 8.9 1.2 9.9-.3 1.1-1.5-1.4-6.4-1.4-6.4l-8.8 1.5z" class="st10"/>
    <path d="M129.8 147.5c1.1 1.1 2.6 1.9 4.1 2.2h.2c.3.1.6.1.9.1h1.4c.2 0 .3 0 .5-.1.2 0 .4-.1.6-.1v.1s.1 0 .1-.1c1.2-.3 2.3-.8 3.3-1.5 0-.1-.1-.3-.2-.4h-.1c-.2-.1-.6-.2-1.1-.3h-.1c-.3-.1-.7-.2-1.1-.3-.3 0-.5-.1-.8-.1h-.1c-.2 0-.5-.1-.7-.1h-.3c-.4 0-.8-.1-1.2-.1h-1c-.2 0-.5 0-.7.1-.2 0-.4 0-.6.1-.4 0-.7.1-1 .2-.8-.1-1.5.1-2.1.3z" class="st8"/>
    <path d="M129.8 147.5c1.1 1.1 2.6 1.9 4.1 2.2h.2c.3.1.6.1.9.1h1.4c.2 0 .3 0 .5-.1.2 0 .4-.1.6-.1v.1s.1 0 .1-.1c1.2-.3 2.3-.8 3.3-1.5 0-.1-.1-.3-.2-.4h-.1c-.2-.1-.6-.2-1.1-.3h-.1c-.3-.1-.7-.2-1.1-.3-.3 0-.5-.1-.8-.1h-.1c-.2 0-.5-.1-.7-.1h-.3c-.4 0-.8-.1-1.2-.1h-1c-.2 0-.5 0-.7.1-.2 0-.4 0-.6.1-.4 0-.7.1-1 .2-.8-.1-1.5.1-2.1.3z" class="st13"/>
    <path d="M139.9 139.4s.4-6.5-5.3-5c-7.2 1.9-3 10.5.5 9.4 3.6-1.1 4.8-4.4 4.8-4.4z" class="st10"/>
    <path d="m132.6 147.1 1.3 2.5.1.2h.2c.3.1.6.1.9.1l.7-.9c.1.3.1.6.2.9h.5c0-.6-.1-.9-.1-.9l.6.9c.2 0 .4-.1.6-.1l.1-2.7c-.1 0-.2-.1-.3-.1-.3-.1-.5-.2-.8-.2h-.2c-.6-.1-1.2-.1-1.7 0-.2 0-.4 0-.5.1-.3 0-.6.1-.8.2-.4-.2-.7-.1-.8 0z" class="st9"/>
    <path d="m136 147.7-2.8-.8c1.7-1.2.9-3.8.9-3.8l2.8 1c-.1.5-.2.8-.3 1.2-.3 1.7.5 1.9.5 1.9l-1.1.5z" class="st14"/>
    <path d="M136.9 144.1c-.1.5-.2.8-.3 1.2-1.3-.5-2.5-2.2-2.5-2.2l2.8 1z" class="st9"/>
    <path d="M136.2 136c2.5-.2 3.4 1.1 3.8 3.7.4 3.2-.1 5.6-3.3 5.1-4.3-.7-4.6-8.5-.5-8.8z" class="st14"/>
    <path d="M138.4 139.7s.4.6.8 1c0 0-.2.4-.6.3l-.2-1.3z" class="st15"/>
    <path d="M136.8 139.6c0 .2-.1.4-.2.4s-.3-.1-.3-.4c0-.2.1-.4.2-.4.2 0 .3.2.3.4z" class="st10"/>
    <path d="m136.5 139.3.4-.2c0-.1-.2.3-.4.2zm2.9 0c0 .2-.1.4-.2.4s-.3-.1-.3-.4c0-.2.1-.4.2-.4.1.1.2.2.3.4z" class="st10"/>
    <path d="m139 139 .4-.2c.1 0-.1.4-.4.2z" class="st10"/>
    <path d="M136.7 137.9s-.7 0-1.1.4m2.9-.7s.4-.2 1 .1" class="st16"/>
    <path d="M133.8 140.4s1-2.1.8-3.7c0 0 4.8-2.4 5.4 2.7 0 0 .2-4.5-4.1-4.3-4.3.2-3.9 6.5-1.5 8.2-.1 0-1.3-1.5-.6-2.9z" class="st10"/>
    <path d="M134.2 140.9c0-.4-.5-1.1-1.2-.9-.8.1-1 1.8.9 2 .3.1.4-.2.3-1.1z" class="st14"/>
    <path d="m138.8 142-.3.9h-.2c-.7-.1-1.1-.3-1.2-.6-.1-.2-.1-.3-.1-.4v-.3c.4.3 1.1.4 1.4.4h.4z" class="st10"/>
    <path d="m138.6 142-.1.3c-.7 0-1.2-.2-1.4-.4v-.3c.4.2 1.1.3 1.5.4z" class="st6"/>
    <path d="M138.4 142.9c-.7-.1-1.1-.3-1.2-.6.2 0 .5.1.8.2.2.1.3.2.4.4z" class="st17"/>
    <path d="M136.2 136.2s-.7 4.2-3.3 4.3c-2.6.1 1.1-5.4 1.1-5.4s4.1-1.9 6.4.2c2.2 2.1-.4 4-.4 4s-.1-3.1-3.8-3.1z" class="st10"/>
    <path d="M136.2 135.9s.5 2.8-1.5 3.9" class="st18"/>
    <path d="M133.4 140.1c0 .1 0 .1 0 0h.7l1.8-.2c.1.5.5.9 1 .9.6.1 1.2-.3 1.3-1v-.2c.1-.1.2-.2.3-.2.1 0 .2.1.2.1.1.4.3.7.7.9.1 0 .2.1.3.1h.5c.2 0 .4-.1.5-.3.2-.2.3-.4.3-.7.1-.4-.1-.7-.3-1-.2-.2-.4-.3-.7-.4h-.2c-.5 0-1 .4-1.1 1v.2h-.1c-.1 0-.2 0-.3.1-.1-.5-.5-.9-1-.9h-.1c-.2 0-.3 0-.5.1-.4.1-.7.5-.7.9v.2l-1.6.1h-.3l-.7.3c.1-.1.1-.1 0 0 0-.1 0 0 0 0zm5.4-.8c.1-.5.5-.8 1-.9h.2c.2 0 .5.2.6.3.2.2.3.5.2.8 0 .2-.1.4-.3.5-.1.1-.3.2-.5.3-.1 0-.3.1-.4 0h-.2c-.4-.1-.7-.5-.6-1zm-2.8.3c.1-.6.6-.9 1.2-.9.6.1.9.6.9 1.2-.1.6-.6.9-1.2.9-.6-.1-.9-.6-.9-1.2z" class="st10"/>
    <g class="st19">
      <path d="M133.4 140.1c0 .1 0 .1 0 0h.7l1.8-.2c.1.5.5.9 1 .9.6.1 1.2-.3 1.3-1v-.2c.1-.1.2-.2.3-.2.1 0 .2.1.2.1.1.4.3.7.7.9.1 0 .2.1.3.1h.5c.2 0 .4-.1.5-.3.2-.2.3-.4.3-.7.1-.4-.1-.7-.3-1-.2-.2-.4-.3-.7-.4h-.2c-.5 0-1 .4-1.1 1v.2h-.1c-.1 0-.2 0-.3.1-.1-.5-.5-.9-1-.9h-.1c-.2 0-.3 0-.5.1-.4.1-.7.5-.7.9v.2l-1.6.1h-.3l-.7.3c.1-.1.1-.1 0 0 0-.1 0 0 0 0zm5.4-.8c.1-.5.5-.8 1-.9h.2c.2 0 .5.2.6.3.2.2.3.5.2.8 0 .2-.1.4-.3.5-.1.1-.3.2-.5.3-.1 0-.3.1-.4 0h-.2c-.4-.1-.7-.5-.6-1zm-2.8.3c.1-.6.6-.9 1.2-.9.6.1.9.6.9 1.2-.1.6-.6.9-1.2.9-.6-.1-.9-.6-.9-1.2z" class="st6"/>
    </g>
    <path d="m134 145.9 1.8 1.7-.7 2.1-2.5-2.6zm2.5.4-.3 1.3 1 1.9.5-2.5z" class="st8"/>
    <path d="M137.7 149.7c1.2-.3 2.3-.8 3.3-1.5h.1l.2-.2c-.1-.1-.3-.1-.4-.2-1.3-.5-2.4-.7-2.4-.7v.1c-.1.2.1 1.6-.8 2.5zm-8-2.3.1.1c1.1 1.1 2.6 1.9 4.1 2.2h.2c-.1-.1-.2-.2-.3-.2-.1-.1-.3-.2-.4-.4l-.5-.5c0-.1-.1-.1-.1-.2l-.3-.3c-.1-.1-.2-.2-.2-.3-.1-.1-.1-.2-.2-.3-.1-.2-.3-.4-.3-.5-.1-.1-.1-.2-.1-.2s-.9.3-2 .6z" class="st10"/>
    <path d="m129.7 147.4.1.1c1.1 1.1 2.6 1.9 4.1 2.2h.2c-.1-.1-.2-.2-.3-.2-.1-.1-.3-.2-.4-.4l-.5-.5c0-.1-.1-.1-.1-.2l-.3-.3c-.1-.1-.2-.2-.2-.3-.1-.1-.1-.2-.2-.3-.1-.2-.3-.4-.3-.5-.1-.1-.1-.2-.1-.2s-.9.3-2 .6z" class="st20"/>
    <path d="m134 145.9 1.8 1.7-.7 2.1-2.5-2.6zm2.5.4-.3 1.3 1 1.9.5-2.5z" class="st13"/>
    <g class="st21">
      <path d="M137.7 149.7c1.2-.3 2.3-.8 3.3-1.5h.1l.2-.2c-.1-.1-.3-.1-.4-.2-1.3-.5-2.4-.7-2.4-.7v.1c-.1.2.1 1.6-.8 2.5zm-8-2.3.1.1c1.1 1.1 2.6 1.9 4.1 2.2h.2c-.1-.1-.2-.2-.3-.2-.1-.1-.3-.2-.4-.4l-.5-.5c0-.1-.1-.1-.1-.2l-.3-.3c-.1-.1-.2-.2-.2-.3-.1-.1-.1-.2-.2-.3-.1-.2-.3-.4-.3-.5-.1-.1-.1-.2-.1-.2s-.9.3-2 .6z" class="st6"/>
    </g>
    <path d="M179.7 143.3h-29.8c-1.1 0-1.9-.9-1.9-1.9 0-1.1.9-1.9 1.9-1.9h29.8c1.1 0 1.9.9 1.9 1.9 0 1-.8 1.9-1.9 1.9zm49.5-4.5h6.8v5.1h-6.8zm8.7 4.5-1.7-.8v-2.3l1.7-.8z" class="st9"/>
    <g class="st9">
      <path d="m248.1 137.2-1 .7 1.9 1.9.6-.5c.4-.3.9-.3 1.2.1l1.8 1.8c.3.3.4.9.1 1.2l-.5.6 1.9 1.9.7-1c.6-.8.5-2-.2-2.7l-3.7-3.7c-.8-.8-1.9-.9-2.8-.3z"/>
      <path d="M246 138.8h3.2v1H246z" transform="rotate(45.001 247.652 139.316)"/>
      <path d="M251.1 143.9h3.2v1h-3.2z" transform="rotate(45.001 252.719 144.38)"/>
    </g>
    <path d="M272.7 138h-6.5c-.2 0-.4.2-.4.4s.2.4.4.4h6.5c.2 0 .4-.2.4-.4s-.2-.4-.4-.4zm0 2h-6.5c-.2 0-.4.2-.4.4s.2.4.4.4h6.5c.2 0 .4-.2.4-.4s-.2-.4-.4-.4zm0 2h-6.5c-.2 0-.4.2-.4.4s.2.4.4.4h6.5c.2 0 .4-.2.4-.4 0-.3-.2-.4-.4-.4zm0 2h-6.5c-.2 0-.4.2-.4.4s.2.4.4.4h6.5c.2 0 .4-.2.4-.4s-.2-.4-.4-.4z" class="st9"/>
    <path d="M140.2 119.3h2v2.7h-2z" class="st22" transform="rotate(-180 141.205 120.616)"/>
    <path d="M136.9 118.3h2v3.6h-2z" class="st22" transform="rotate(-180 137.883 120.162)"/>
    <path d="M133.5 117.4h2v4.5h-2z" class="st22" transform="rotate(-180 134.56 119.709)"/>
    <path d="M130.2 116.5h2v5.4h-2z" class="st22" transform="rotate(-180 131.237 119.256)"/>
    <path d="M258.4 118.3h1.2v2.7h-1.2z" class="st22"/>
    <path d="M260.5 117.3h9.6v4.7h-9.6z" class="st22" transform="rotate(-180 265.264 119.624)"/>
    <path d="M158.8 350.8h104.8c4.4 0 7.9 3.5 7.9 7.9s-3.5 7.9-7.9 7.9H158.8c-4.4 0-7.9-3.5-7.9-7.9s3.6-7.9 7.9-7.9z" class="st6"/>
    <path d="m202.4 187-45.8.3-4.8 3v-23c0-3.1 2.5-5.5 5.5-5.5l45.1-.3c3.1 0 5.5 2.5 5.5 5.5v14.5c.1 3-2.4 5.5-5.5 5.5z" class="st9"/>
    <path d="M158.9 169.1H200m-41.1 5.1H200m-41.1 5.1H184" class="st23"/>
    <circle cx="136.9" cy="358.7" r="7.8" class="st8" transform="rotate(-45.001 136.884 358.679)"/>
    <path d="m187.8 117.5-42.1 157.8-.5 1.8-.8 2.8-.5 1.8-22 82.4v-99.7L163.2 110h1.3c1.1 0 2.1.7 2.5 1.8l1.6 4c.4 1 1.4 1.7 2.5 1.7h16.7zm14.4 0-41.9 156.8-.2.9-2.3 8.6-.2.9-29.9 112h-1.8c-1.1 0-2.1-.4-2.8-1.1-.4-.4-.6-.8-.8-1.2l29.3-109.7.3-.9 2.3-8.6.2-.9 41.9-156.8h5.9z" class="st6" opacity=".05"/>
    <path d="M130.2 170.4c0 2.4 1 4.5 2.5 6.1l.1.1c1.1 1.1 2.6 1.9 4.1 2.2h.2c.3.1.6.1.9.1h1.4c.2 0 .3 0 .5-.1.2 0 .4-.1.6-.1h.1c1.2-.3 2.3-.8 3.3-1.5h.1l.2-.2c1.9-1.6 3.1-3.9 3.1-6.6 0-4.7-3.8-8.6-8.6-8.6-4.7 0-8.5 3.8-8.5 8.6z" class="st8"/>
    <path d="M133.8 168.7s-1 4 .3 5.2c1.3 1.2 8.9 1.2 9.9-.3 1.1-1.5-1.4-6.4-1.4-6.4l-8.8 1.5z" class="st10"/>
    <path d="M132.8 176.5c1.1 1.1 2.6 1.9 4.1 2.2h.2c.3.1.6.1.9.1h1.4c.2 0 .3 0 .5-.1.2 0 .4-.1.6-.1v.1s.1 0 .1-.1c1.2-.3 2.3-.8 3.3-1.5 0-.1-.1-.3-.2-.4h-.1c-.2-.1-.6-.2-1.1-.3h-.1c-.3-.1-.7-.2-1.1-.3-.3 0-.5-.1-.8-.1h-.1c-.2 0-.5-.1-.7-.1h-.3c-.4 0-.8-.1-1.2-.1h-1c-.2 0-.5 0-.7.1-.2 0-.4 0-.6.1-.4 0-.7.1-1 .2-.8-.1-1.5.1-2.1.3z" class="st8"/>
    <path d="M132.8 176.5c1.1 1.1 2.6 1.9 4.1 2.2h.2c.3.1.6.1.9.1h1.4c.2 0 .3 0 .5-.1.2 0 .4-.1.6-.1v.1s.1 0 .1-.1c1.2-.3 2.3-.8 3.3-1.5 0-.1-.1-.3-.2-.4h-.1c-.2-.1-.6-.2-1.1-.3h-.1c-.3-.1-.7-.2-1.1-.3-.3 0-.5-.1-.8-.1h-.1c-.2 0-.5-.1-.7-.1h-.3c-.4 0-.8-.1-1.2-.1h-1c-.2 0-.5 0-.7.1-.2 0-.4 0-.6.1-.4 0-.7.1-1 .2-.8-.1-1.5.1-2.1.3z" class="st13"/>
    <path d="M142.9 168.4s.4-6.5-5.3-5c-7.2 1.9-3 10.5.5 9.4 3.6-1.1 4.8-4.4 4.8-4.4z" class="st10"/>
    <path d="m135.6 176.1 1.3 2.5.1.2h.2c.3.1.6.1.9.1l.7-.9c.1.3.1.6.2.9h.5c0-.6-.1-.9-.1-.9l.6.9c.2 0 .4-.1.6-.1l.1-2.7c-.1 0-.2-.1-.3-.1-.3-.1-.5-.2-.8-.2h-.2c-.6-.1-1.2-.1-1.7 0-.2 0-.4 0-.5.1-.3 0-.6.1-.8.2-.4-.2-.7-.1-.8 0z" class="st9"/>
    <path d="m139 176.7-2.8-.8c1.7-1.2.9-3.8.9-3.8l2.8 1c-.1.5-.2.8-.3 1.2-.3 1.7.5 1.9.5 1.9l-1.1.5z" class="st14"/>
    <path d="M139.9 173.1c-.1.5-.2.8-.3 1.2-1.3-.5-2.5-2.2-2.5-2.2l2.8 1z" class="st9"/>
    <path d="M139.2 165c2.5-.2 3.4 1.1 3.8 3.7.4 3.2-.1 5.6-3.3 5.1-4.3-.7-4.6-8.5-.5-8.8z" class="st14"/>
    <path d="M141.4 168.7s.4.6.8 1c0 0-.2.4-.6.3l-.2-1.3z" class="st15"/>
    <path d="M139.8 168.6c0 .2-.1.4-.2.4s-.3-.1-.3-.4c0-.2.1-.4.2-.4.2 0 .3.2.3.4z" class="st10"/>
    <path d="m139.5 168.3.4-.2c0-.1-.2.3-.4.2zm2.9 0c0 .2-.1.4-.2.4s-.3-.1-.3-.4c0-.2.1-.4.2-.4.1.1.2.2.3.4z" class="st10"/>
    <path d="m142 168 .4-.2c.1 0-.1.4-.4.2z" class="st10"/>
    <path d="M139.7 166.9s-.7 0-1.1.4m2.9-.7s.4-.2 1 .1" class="st16"/>
    <path d="M136.8 169.4s1-2.1.8-3.7c0 0 4.8-2.4 5.4 2.7 0 0 .2-4.5-4.1-4.3-4.3.2-3.9 6.5-1.5 8.2-.1 0-1.3-1.5-.6-2.9z" class="st10"/>
    <path d="M137.2 169.9c0-.4-.5-1.1-1.2-.9-.8.1-1 1.8.9 2 .3.1.4-.2.3-1.1z" class="st14"/>
    <path d="m141.8 171-.3.9h-.2c-.7-.1-1.1-.3-1.2-.6-.1-.2-.1-.3-.1-.4v-.3c.4.3 1.1.4 1.4.4h.4z" class="st10"/>
    <path d="m141.6 171-.1.3c-.7 0-1.2-.2-1.4-.4v-.3c.4.2 1.1.3 1.5.4z" class="st6"/>
    <path d="M141.4 171.9c-.7-.1-1.1-.3-1.2-.6.2 0 .5.1.8.2.2.1.3.2.4.4z" class="st17"/>
    <path d="M139.2 165.2s-.7 4.2-3.3 4.3c-2.6.1 1.1-5.4 1.1-5.4s4.1-1.9 6.4.2c2.2 2.1-.4 4-.4 4s-.1-3.1-3.8-3.1z" class="st10"/>
    <path d="M139.2 164.9s.5 2.8-1.5 3.9" class="st18"/>
    <path d="M136.4 169.1c0 .1 0 .1 0 0h.7l1.8-.2c.1.5.5.9 1 .9.6.1 1.2-.3 1.3-1v-.2c.1-.1.2-.2.3-.2.1 0 .2.1.2.1.1.4.3.7.7.9.1 0 .2.1.3.1h.5c.2 0 .4-.1.5-.3.2-.2.3-.4.3-.7.1-.4-.1-.7-.3-1-.2-.2-.4-.3-.7-.4h-.2c-.5 0-1 .4-1.1 1v.2h-.1c-.1 0-.2 0-.3.1-.1-.5-.5-.9-1-.9h-.1c-.2 0-.3 0-.5.1-.4.1-.7.5-.7.9v.2l-1.6.1h-.3l-.7.3c.1-.1.1-.1 0 0 0-.1 0 0 0 0zm5.4-.8c.1-.5.5-.8 1-.9h.2c.2 0 .5.2.6.3.2.2.3.5.2.8 0 .2-.1.4-.3.5-.1.1-.3.2-.5.3-.1 0-.3.1-.4 0h-.2c-.4-.1-.7-.5-.6-1zm-2.8.3c.1-.6.6-.9 1.2-.9.6.1.9.6.9 1.2-.1.6-.6.9-1.2.9-.6-.1-.9-.6-.9-1.2z" class="st10"/>
    <g class="st19">
      <path d="M136.4 169.1c0 .1 0 .1 0 0h.7l1.8-.2c.1.5.5.9 1 .9.6.1 1.2-.3 1.3-1v-.2c.1-.1.2-.2.3-.2.1 0 .2.1.2.1.1.4.3.7.7.9.1 0 .2.1.3.1h.5c.2 0 .4-.1.5-.3.2-.2.3-.4.3-.7.1-.4-.1-.7-.3-1-.2-.2-.4-.3-.7-.4h-.2c-.5 0-1 .4-1.1 1v.2h-.1c-.1 0-.2 0-.3.1-.1-.5-.5-.9-1-.9h-.1c-.2 0-.3 0-.5.1-.4.1-.7.5-.7.9v.2l-1.6.1h-.3l-.7.3c.1-.1.1-.1 0 0 0-.1 0 0 0 0zm5.4-.8c.1-.5.5-.8 1-.9h.2c.2 0 .5.2.6.3.2.2.3.5.2.8 0 .2-.1.4-.3.5-.1.1-.3.2-.5.3-.1 0-.3.1-.4 0h-.2c-.4-.1-.7-.5-.6-1zm-2.8.3c.1-.6.6-.9 1.2-.9.6.1.9.6.9 1.2-.1.6-.6.9-1.2.9-.6-.1-.9-.6-.9-1.2z" class="st6"/>
    </g>
    <path d="m137 174.9 1.8 1.7-.7 2.1-2.5-2.6zm2.5.4-.3 1.3 1 1.9.5-2.5z" class="st8"/>
    <path d="M140.7 178.7c1.2-.3 2.3-.8 3.3-1.5h.1l.2-.2c-.1-.1-.3-.1-.4-.2-1.3-.5-2.4-.7-2.4-.7v.1c-.1.2.1 1.6-.8 2.5zm-8-2.3.1.1c1.1 1.1 2.6 1.9 4.1 2.2h.2c-.1-.1-.2-.2-.3-.2-.1-.1-.3-.2-.4-.4l-.5-.5c0-.1-.1-.1-.1-.2l-.3-.3c-.1-.1-.2-.2-.2-.3-.1-.1-.1-.2-.2-.3-.1-.2-.3-.4-.3-.5-.1-.1-.1-.2-.1-.2s-.9.3-2 .6z" class="st10"/>
    <path d="m132.7 176.4.1.1c1.1 1.1 2.6 1.9 4.1 2.2h.2c-.1-.1-.2-.2-.3-.2-.1-.1-.3-.2-.4-.4l-.5-.5c0-.1-.1-.1-.1-.2l-.3-.3c-.1-.1-.2-.2-.2-.3-.1-.1-.1-.2-.2-.3-.1-.2-.3-.4-.3-.5-.1-.1-.1-.2-.1-.2s-.9.3-2 .6z" class="st20"/>
    <path d="m137 174.9 1.8 1.7-.7 2.1-2.5-2.6zm2.5.4-.3 1.3 1 1.9.5-2.5z" class="st13"/>
    <g class="st21">
      <path d="M140.7 178.7c1.2-.3 2.3-.8 3.3-1.5h.1l.2-.2c-.1-.1-.3-.1-.4-.2-1.3-.5-2.4-.7-2.4-.7v.1c-.1.2.1 1.6-.8 2.5zm-8-2.3.1.1c1.1 1.1 2.6 1.9 4.1 2.2h.2c-.1-.1-.2-.2-.3-.2-.1-.1-.3-.2-.4-.4l-.5-.5c0-.1-.1-.1-.1-.2l-.3-.3c-.1-.1-.2-.2-.2-.3-.1-.1-.1-.2-.2-.3-.1-.2-.3-.4-.3-.5-.1-.1-.1-.2-.1-.2s-.9.3-2 .6z" class="st6"/>
    </g>
    <path d="M271.3 203.4c0 2.6-1.2 5-3.1 6.6l-.2.2h-.1l-.1.1c-.9.7-2 1.2-3.2 1.5h-.1c-.2.1-.4.1-.6.1-.2 0-.4 0-.5.1H262c-.3 0-.6-.1-.9-.1h-.2c-1.3-.3-2.6-.9-3.6-1.7-.2-.1-.4-.3-.6-.5l-.1-.1c-1.6-1.6-2.5-3.7-2.5-6.1 0-4.7 3.8-8.5 8.6-8.5 4.8-.2 8.6 3.6 8.6 8.4z" class="st6"/>
    <path d="M260.3 207.2h4.8v2.6h-4.8z" class="st10"/>
    <path d="M260.3 207.2h4.8v2.6h-4.8z" class="st25"/>
    <path d="M260.3 208.1h4.8v.1h-4.8zm0 .6h4.8v.1h-4.8zm0 .5h4.8v.1h-4.8z" class="st9"/>
    <path d="M265.1 207.2v.7c-1.2.4-3.2 1.1-4.8 1v-1.7h4.8z" class="st9"/>
    <path d="M267 199.7h-8.4c-1 0-1.8.8-1.8 1.8v4.7c0 1 .8 1.8 1.8 1.8h8.4c1 0 1.8-.8 1.8-1.8v-4.7c.1-1-.7-1.8-1.8-1.8z" class="st8"/>
    <path d="M267 199.7h-3.3c1 0 1.8.8 1.8 1.8v4.7c0 1-.8 1.8-1.8 1.8h3.3c1 0 1.8-.8 1.8-1.8v-4.7c.1-1-.7-1.8-1.8-1.8z" class="st9"/>
    <path d="M263.7 200.5h-5c-.6 0-1.1.5-1.1 1.1v4.5c0 .6.5 1.1 1.1 1.1h5c.6 0 1.1-.5 1.1-1.1v-4.5c0-.6-.5-1.1-1.1-1.1zm4.1 2.4c-.1 0-.1-.1-.1-.1v-5.4c0-.1.1-.1.1-.1.1 0 .1.1.1.1v5.4c0 .1 0 .1-.1.1z" class="st10"/>
    <path d="M269.3 203.8c0 .3-.1.6-.2.8-.1.2-.2.4-.3.5-.3.3-.6.5-1 .5-.8 0-1.5-.8-1.5-1.8s.7-1.8 1.5-1.8c.4 0 .7.2 1 .5.1.1.2.3.3.5.1.2.2.5.2.8z" class="st8"/>
    <path d="M268.3 205.1c-.6 0-1.1-.6-1.1-1.3 0-.7.5-1.3 1.1-1.3.3 0 .6.2.8.5-.1-.2-.2-.4-.3-.5-.1-.1-.3-.1-.5-.1-.7 0-1.2.6-1.2 1.4 0 .8.5 1.4 1.2 1.4.2 0 .3 0 .5-.1.1-.1.2-.3.3-.5-.2.3-.5.5-.8.5z" class="st26"/>
    <path d="M262.9 202.8c0 .3-.1.5-.3.5s-.3-.2-.3-.5.1-.5.3-.5.3.2.3.5z" class="st6"/>
    <ellipse cx="259.5" cy="202.8" class="st6" rx=".3" ry=".5"/>
    <path d="M261 205.2c.3.3.8 1 .8 1 .1 0 .1-.1.2-.1.9-.4 1.2-.9 1.2-1.4 0-.2 0-.4-.1-.6-.1-.2-.2-.3-.2-.3-.3.5-1.1 1-1.6 1.2-.2.2-.3.2-.3.2z" class="st27"/>
    <path d="m261.3 205.1.2.3c.8-.4 1.4-.8 1.5-1.2-.1-.2-.2-.3-.2-.3-.2.4-1 .9-1.5 1.2z" class="st6"/>
    <path d="M262 206.1c.9-.4 1.2-.9 1.2-1.4-.3.2-.6.4-.9.7-.2.2-.3.5-.3.7zm5.9 4.1c-.9.7-2 1.2-3.2 1.5h-.1c-.2.1-.4.1-.6.1-.2 0-.4 0-.5.1h-1.4c-.3 0-.6-.1-.9-.1h-.2c-1.3-.3-2.6-.9-3.6-1.7.4-.3.9-.5 1.4-.5h7.5c.6-.1 1.2.2 1.6.6zm-91.6 15.5h66l4.8 3v-28.3c0-3.1-2.5-5.5-5.5-5.5h-65.3c-3.1 0-5.5 2.5-5.5 5.5v19.8c0 3 2.4 5.5 5.5 5.5z" class="st8"/>
    <path d="M178.9 202.1H240m-61.1 5.1H240m-61.1 5.1H240m-61.1 5.1H210" class="st23"/>
    <path d="M231.6 273.7h-75l-4.8 3v-33.3c0-3.1 2.5-5.5 5.5-5.5h74.3c3.1 0 5.5 2.5 5.5 5.5v24.8c0 3-2.5 5.5-5.5 5.5z" class="st9"/>
    <path d="M158.9 245.1H230m-71.1 5.1H230m-71.1 5.1H230m-71.1 10.1H190m-31.1-5H230" class="st23"/>
    <path d="M130.2 246.4c0 2.4 1 4.5 2.5 6.1l.1.1c1.1 1.1 2.6 1.9 4.1 2.2h.2c.3.1.6.1.9.1h1.4c.2 0 .3 0 .5-.1.2 0 .4-.1.6-.1h.1c1.2-.3 2.3-.8 3.3-1.5h.1l.2-.2c1.9-1.6 3.1-3.9 3.1-6.6 0-4.7-3.8-8.6-8.6-8.6-4.7 0-8.5 3.8-8.5 8.6z" class="st8"/>
    <path d="M133.8 244.7s-1 4 .3 5.2c1.3 1.2 8.9 1.2 9.9-.3 1.1-1.5-1.4-6.4-1.4-6.4l-8.8 1.5z" class="st10"/>
    <path d="M132.8 252.5c1.1 1.1 2.6 1.9 4.1 2.2h.2c.3.1.6.1.9.1h1.4c.2 0 .3 0 .5-.1.2 0 .4-.1.6-.1v.1s.1 0 .1-.1c1.2-.3 2.3-.8 3.3-1.5 0-.1-.1-.3-.2-.4h-.1c-.2-.1-.6-.2-1.1-.3h-.1c-.3-.1-.7-.2-1.1-.3-.3 0-.5-.1-.8-.1h-.1c-.2 0-.5-.1-.7-.1h-.3c-.4 0-.8-.1-1.2-.1h-1c-.2 0-.5 0-.7.1-.2 0-.4 0-.6.1-.4 0-.7.1-1 .2-.8-.1-1.5.1-2.1.3z" class="st8"/>
    <path d="M132.8 252.5c1.1 1.1 2.6 1.9 4.1 2.2h.2c.3.1.6.1.9.1h1.4c.2 0 .3 0 .5-.1.2 0 .4-.1.6-.1v.1s.1 0 .1-.1c1.2-.3 2.3-.8 3.3-1.5 0-.1-.1-.3-.2-.4h-.1c-.2-.1-.6-.2-1.1-.3h-.1c-.3-.1-.7-.2-1.1-.3-.3 0-.5-.1-.8-.1h-.1c-.2 0-.5-.1-.7-.1h-.3c-.4 0-.8-.1-1.2-.1h-1c-.2 0-.5 0-.7.1-.2 0-.4 0-.6.1-.4 0-.7.1-1 .2-.8-.1-1.5.1-2.1.3z" class="st13"/>
    <path d="M142.9 244.4s.4-6.5-5.3-5c-7.2 1.9-3 10.5.5 9.4 3.6-1.1 4.8-4.4 4.8-4.4z" class="st10"/>
    <path d="m135.6 252.1 1.3 2.5.1.2h.2c.3.1.6.1.9.1l.7-.9c.1.3.1.6.2.9h.5c0-.6-.1-.9-.1-.9l.6.9c.2 0 .4-.1.6-.1l.1-2.7c-.1 0-.2-.1-.3-.1-.3-.1-.5-.2-.8-.2h-.2c-.6-.1-1.2-.1-1.7 0-.2 0-.4 0-.5.1-.3 0-.6.1-.8.2-.4-.2-.7-.1-.8 0z" class="st9"/>
    <path d="m139 252.7-2.8-.8c1.7-1.2.9-3.8.9-3.8l2.8 1c-.1.5-.2.8-.3 1.2-.3 1.7.5 1.9.5 1.9l-1.1.5z" class="st14"/>
    <path d="M139.9 249.1c-.1.5-.2.8-.3 1.2-1.3-.5-2.5-2.2-2.5-2.2l2.8 1z" class="st9"/>
    <path d="M139.2 241c2.5-.2 3.4 1.1 3.8 3.7.4 3.2-.1 5.6-3.3 5.1-4.3-.7-4.6-8.5-.5-8.8z" class="st14"/>
    <path d="M141.4 244.7s.4.6.8 1c0 0-.2.4-.6.3l-.2-1.3z" class="st15"/>
    <path d="M139.8 244.6c0 .2-.1.4-.2.4s-.3-.1-.3-.4c0-.2.1-.4.2-.4.2 0 .3.2.3.4z" class="st10"/>
    <path d="m139.5 244.3.4-.2c0-.1-.2.3-.4.2zm2.9 0c0 .2-.1.4-.2.4s-.3-.1-.3-.4c0-.2.1-.4.2-.4.1.1.2.2.3.4z" class="st10"/>
    <path d="m142 244 .4-.2c.1 0-.1.4-.4.2z" class="st10"/>
    <path d="M139.7 242.9s-.7 0-1.1.4m2.9-.7s.4-.2 1 .1" class="st16"/>
    <path d="M136.8 245.4s1-2.1.8-3.7c0 0 4.8-2.4 5.4 2.7 0 0 .2-4.5-4.1-4.3-4.3.2-3.9 6.5-1.5 8.2-.1 0-1.3-1.5-.6-2.9z" class="st10"/>
    <path d="M137.2 245.9c0-.4-.5-1.1-1.2-.9-.8.1-1 1.8.9 2 .3.1.4-.2.3-1.1z" class="st14"/>
    <path d="m141.8 247-.3.9h-.2c-.7-.1-1.1-.3-1.2-.6-.1-.2-.1-.3-.1-.4v-.3c.4.3 1.1.4 1.4.4h.4z" class="st10"/>
    <path d="m141.6 247-.1.3c-.7 0-1.2-.2-1.4-.4v-.3c.4.2 1.1.3 1.5.4z" class="st6"/>
    <path d="M141.4 247.9c-.7-.1-1.1-.3-1.2-.6.2 0 .5.1.8.2.2.1.3.2.4.4z" class="st17"/>
    <path d="M139.2 241.2s-.7 4.2-3.3 4.3c-2.6.1 1.1-5.4 1.1-5.4s4.1-1.9 6.4.2c2.2 2.1-.4 4-.4 4s-.1-3.1-3.8-3.1z" class="st10"/>
    <path d="M139.2 240.9s.5 2.8-1.5 3.9" class="st18"/>
    <path d="M136.4 245.1c0 .1 0 .1 0 0h.7l1.8-.2c.1.5.5.9 1 .9.6.1 1.2-.3 1.3-1v-.2c.1-.1.2-.2.3-.2.1 0 .2.1.2.1.1.4.3.7.7.9.1 0 .2.1.3.1h.5c.2 0 .4-.1.5-.3.2-.2.3-.4.3-.7.1-.4-.1-.7-.3-1-.2-.2-.4-.3-.7-.4h-.2c-.5 0-1 .4-1.1 1v.2h-.1c-.1 0-.2 0-.3.1-.1-.5-.5-.9-1-.9h-.1c-.2 0-.3 0-.5.1-.4.1-.7.5-.7.9v.2l-1.6.1h-.3l-.7.3c.1-.1.1-.1 0 0 0-.1 0 0 0 0zm5.4-.8c.1-.5.5-.8 1-.9h.2c.2 0 .5.2.6.3.2.2.3.5.2.8 0 .2-.1.4-.3.5-.1.1-.3.2-.5.3-.1 0-.3.1-.4 0h-.2c-.4-.1-.7-.5-.6-1zm-2.8.3c.1-.6.6-.9 1.2-.9.6.1.9.6.9 1.2-.1.6-.6.9-1.2.9-.6-.1-.9-.6-.9-1.2z" class="st10"/>
    <g class="st19">
      <path d="M136.4 245.1c0 .1 0 .1 0 0h.7l1.8-.2c.1.5.5.9 1 .9.6.1 1.2-.3 1.3-1v-.2c.1-.1.2-.2.3-.2.1 0 .2.1.2.1.1.4.3.7.7.9.1 0 .2.1.3.1h.5c.2 0 .4-.1.5-.3.2-.2.3-.4.3-.7.1-.4-.1-.7-.3-1-.2-.2-.4-.3-.7-.4h-.2c-.5 0-1 .4-1.1 1v.2h-.1c-.1 0-.2 0-.3.1-.1-.5-.5-.9-1-.9h-.1c-.2 0-.3 0-.5.1-.4.1-.7.5-.7.9v.2l-1.6.1h-.3l-.7.3c.1-.1.1-.1 0 0 0-.1 0 0 0 0zm5.4-.8c.1-.5.5-.8 1-.9h.2c.2 0 .5.2.6.3.2.2.3.5.2.8 0 .2-.1.4-.3.5-.1.1-.3.2-.5.3-.1 0-.3.1-.4 0h-.2c-.4-.1-.7-.5-.6-1zm-2.8.3c.1-.6.6-.9 1.2-.9.6.1.9.6.9 1.2-.1.6-.6.9-1.2.9-.6-.1-.9-.6-.9-1.2z" class="st6"/>
    </g>
    <path d="m137 250.9 1.8 1.7-.7 2.1-2.5-2.6zm2.5.4-.3 1.3 1 1.9.5-2.5z" class="st8"/>
    <path d="M140.7 254.7c1.2-.3 2.3-.8 3.3-1.5h.1l.2-.2c-.1-.1-.3-.1-.4-.2-1.3-.5-2.4-.7-2.4-.7v.1c-.1.2.1 1.6-.8 2.5zm-8-2.3.1.1c1.1 1.1 2.6 1.9 4.1 2.2h.2c-.1-.1-.2-.2-.3-.2-.1-.1-.3-.2-.4-.4l-.5-.5c0-.1-.1-.1-.1-.2l-.3-.3c-.1-.1-.2-.2-.2-.3-.1-.1-.1-.2-.2-.3-.1-.2-.3-.4-.3-.5-.1-.1-.1-.2-.1-.2s-.9.3-2 .6z" class="st10"/>
    <path d="m132.7 252.4.1.1c1.1 1.1 2.6 1.9 4.1 2.2h.2c-.1-.1-.2-.2-.3-.2-.1-.1-.3-.2-.4-.4l-.5-.5c0-.1-.1-.1-.1-.2l-.3-.3c-.1-.1-.2-.2-.2-.3-.1-.1-.1-.2-.2-.3-.1-.2-.3-.4-.3-.5-.1-.1-.1-.2-.1-.2s-.9.3-2 .6z" class="st20"/>
    <path d="m137 250.9 1.8 1.7-.7 2.1-2.5-2.6zm2.5.4-.3 1.3 1 1.9.5-2.5z" class="st13"/>
    <g class="st21">
      <path d="M140.7 254.7c1.2-.3 2.3-.8 3.3-1.5h.1l.2-.2c-.1-.1-.3-.1-.4-.2-1.3-.5-2.4-.7-2.4-.7v.1c-.1.2.1 1.6-.8 2.5zm-8-2.3.1.1c1.1 1.1 2.6 1.9 4.1 2.2h.2c-.1-.1-.2-.2-.3-.2-.1-.1-.3-.2-.4-.4l-.5-.5c0-.1-.1-.1-.1-.2l-.3-.3c-.1-.1-.2-.2-.2-.3-.1-.1-.1-.2-.2-.3-.1-.2-.3-.4-.3-.5-.1-.1-.1-.2-.1-.2s-.9.3-2 .6z" class="st6"/>
    </g>
    <path d="M271.3 293.4c0 2.6-1.2 5-3.1 6.6l-.2.2h-.1l-.1.1c-.9.7-2 1.2-3.2 1.5h-.1c-.2.1-.4.1-.6.1-.2 0-.4 0-.5.1H262c-.3 0-.6-.1-.9-.1h-.2c-1.3-.3-2.6-.9-3.6-1.7-.2-.1-.4-.3-.6-.5l-.1-.1c-1.6-1.5-2.5-3.7-2.5-6.1 0-4.7 3.8-8.5 8.6-8.5 4.8-.2 8.6 3.6 8.6 8.4z" class="st6"/>
    <path d="M260.3 297.2h4.8v2.6h-4.8z" class="st10"/>
    <path d="M260.3 297.2h4.8v2.6h-4.8z" class="st25"/>
    <path d="M260.3 298.1h4.8v.1h-4.8zm0 .6h4.8v.1h-4.8zm0 .5h4.8v.1h-4.8z" class="st9"/>
    <path d="M265.1 297.2v.7c-1.2.4-3.2 1.1-4.8 1v-1.7h4.8z" class="st9"/>
    <path d="M267 289.7h-8.4c-1 0-1.8.8-1.8 1.8v4.7c0 1 .8 1.8 1.8 1.8h8.4c1 0 1.8-.8 1.8-1.8v-4.7c.1-1-.7-1.8-1.8-1.8z" class="st8"/>
    <path d="M267 289.7h-3.3c1 0 1.8.8 1.8 1.8v4.7c0 1-.8 1.8-1.8 1.8h3.3c1 0 1.8-.8 1.8-1.8v-4.7c.1-1-.7-1.8-1.8-1.8z" class="st9"/>
    <path d="M263.7 290.5h-5c-.6 0-1.1.5-1.1 1.1v4.5c0 .6.5 1.1 1.1 1.1h5c.6 0 1.1-.5 1.1-1.1v-4.5c0-.6-.5-1.1-1.1-1.1zm4.1 2.4c-.1 0-.1-.1-.1-.1v-5.4c0-.1.1-.1.1-.1.1 0 .1.1.1.1v5.4c0 .1 0 .1-.1.1z" class="st10"/>
    <path d="M269.3 293.8c0 .3-.1.6-.2.8-.1.2-.2.4-.3.5-.3.3-.6.5-1 .5-.8 0-1.5-.8-1.5-1.8s.7-1.8 1.5-1.8c.4 0 .7.2 1 .5.1.1.2.3.3.5.1.2.2.5.2.8z" class="st8"/>
    <path d="M268.3 295.1c-.6 0-1.1-.6-1.1-1.3 0-.7.5-1.3 1.1-1.3.3 0 .6.2.8.5-.1-.2-.2-.4-.3-.5-.1-.1-.3-.1-.5-.1-.7 0-1.2.6-1.2 1.4 0 .8.5 1.4 1.2 1.4.2 0 .3 0 .5-.1.1-.1.2-.3.3-.5-.2.3-.5.5-.8.5z" class="st26"/>
    <path d="M262.9 292.8c0 .3-.1.5-.3.5s-.3-.2-.3-.5.1-.5.3-.5.3.2.3.5z" class="st6"/>
    <ellipse cx="259.5" cy="292.8" class="st6" rx=".3" ry=".5"/>
    <path d="M261 295.2c.3.3.8 1 .8 1 .1 0 .1-.1.2-.1.9-.4 1.2-.9 1.2-1.4 0-.2 0-.4-.1-.6-.1-.2-.2-.3-.2-.3-.3.5-1.1 1-1.6 1.2-.2.2-.3.2-.3.2z" class="st27"/>
    <path d="m261.3 295.1.2.3c.8-.4 1.4-.8 1.5-1.2-.1-.2-.2-.3-.2-.3-.2.4-1 .9-1.5 1.2z" class="st6"/>
    <path d="M262 296.1c.9-.4 1.2-.9 1.2-1.4-.3.2-.6.4-.9.7-.2.2-.3.5-.3.7zm5.9 4.1c-.9.7-2 1.2-3.2 1.5h-.1c-.2.1-.4.1-.6.1-.2 0-.4 0-.5.1h-1.4c-.3 0-.6-.1-.9-.1h-.2c-1.3-.3-2.6-.9-3.6-1.7.4-.3.9-.5 1.4-.5h7.5c.6-.1 1.2.2 1.6.6zm-110.6 25.5h85l4.8 3v-38.3c0-3.1-2.5-5.5-5.5-5.5h-84.3c-3.1 0-5.5 2.5-5.5 5.5v29.8c0 3 2.4 5.5 5.5 5.5z" class="st8"/>
    <path d="M158.9 292.1H240m-81.1 5.1H240m-81.1 5.1H240m-81.1 10.1H240m-81.1 5.1H191m-32.1-10.1H240" class="st23"/>
  </g>
  <g id="Speech_Bubble">
    <path d="M384.5 177.5h-78c-3.3 0-5.9 2.7-5.9 5.9v22.9c0 3.3 2.7 5.9 5.9 5.9h35.4l5.4 11.2v-11.2h37.2c3.3 0 5.9-2.7 5.9-5.9v-22.9c0-3.2-2.6-5.9-5.9-5.9z" class="st8"/>
    <path d="M320.4 190v8.4h-1.2v-3.7h-4.8v3.7h-1.2V190h1.2v3.6h4.8V190h1.2zm8 5.6h-5.2c.1 1.1 1 1.9 2.3 1.9.7 0 1.4-.3 1.8-.8l.6.7c-.6.7-1.5 1-2.5 1-2.1 0-3.4-1.4-3.4-3.2 0-1.9 1.4-3.2 3.2-3.2 1.8 0 3.1 1.3 3.1 3.3.2 0 .1.2.1.3zm-5.1-.8h4.1c-.1-1.1-.9-1.8-2-1.8-1.2-.1-2 .7-2.1 1.8zm6.8-5.3h1.2v8.9h-1.2v-8.9zm3.3 0h1.2v8.9h-1.2v-8.9zm2.8 5.7c0-1.9 1.4-3.2 3.3-3.2s3.3 1.3 3.3 3.2c0 1.9-1.4 3.2-3.3 3.2-1.9.1-3.3-1.3-3.3-3.2zm5.4 0c0-1.4-.9-2.2-2.1-2.2-1.2 0-2.1.9-2.1 2.2s.9 2.2 2.1 2.2c1.2 0 2.1-.8 2.1-2.2zm9.6 2.8c-.3.3-.9.4-1.4.4-1.3 0-2-.7-2-2V193h-1.1v-1h1.1v-1.4h1.2v1.4h1.8v.9H349v3.4c0 .7.4 1.1 1 1.1.3 0 .7-.1.9-.3l.3.9zm7.4-3.3v3.7h-1.2v-3.5c0-1.2-.6-1.9-1.7-1.9-1.2 0-2 .7-2 2.1v3.3h-1.2v-8.9h1.2v3.4c.5-.6 1.3-1 2.2-1 1.6.1 2.7 1 2.7 2.8zm7.9.9h-5.2c.1 1.1 1 1.9 2.3 1.9.7 0 1.4-.3 1.8-.8l.6.7c-.6.7-1.5 1-2.5 1-2.1 0-3.4-1.4-3.4-3.2 0-1.9 1.4-3.2 3.2-3.2 1.8 0 3.1 1.3 3.1 3.3.1 0 .1.2.1.3zm-5.2-.8h4.1c-.1-1.1-.9-1.8-2-1.8-1.1-.1-1.9.7-2.1 1.8zm10.2-2.8v1.1h-.3c-1.2 0-2 .8-2 2.1v3.2H368V192h1.1v1.1c.5-.7 1.3-1.1 2.4-1.1zm7.1 3.6h-5.2c.1 1.1 1 1.9 2.3 1.9.7 0 1.4-.3 1.8-.8l.6.7c-.6.7-1.5 1-2.5 1-2.1 0-3.4-1.4-3.4-3.2 0-1.9 1.4-3.2 3.2-3.2 1.8 0 3.1 1.3 3.1 3.3.1 0 .1.2.1.3zm-5.1-.8h4.1c-.1-1.1-.9-1.8-2-1.8-1.2-.1-2 .7-2.1 1.8z" class="st6"/>
  </g>
  <g id="Character">
    <path d="M352.5 296.4H344s-11.2 19.1-20.9 18c-7.7-.9-11.8-14.9-11.8-14.9l-5.3.3s2.7 18.2 15.5 21.4c17.2 4.2 31-24.8 31-24.8z" class="st10"/>
    <path d="M352.5 296.4s-1.6 3.3-4.3 7.5c-.1.2-.3.5-.5.7-.9 1.4-1.9 2.8-3.1 4.3-.2.2-.3.5-.5.7-1.1 1.4-2.3 2.8-3.6 4.1l-.6.6c-1.3 1.3-2.8 2.5-4.3 3.6-.2.2-.5.3-.7.5-1.2.8-2.5 1.5-3.9 2-.3.1-.5.2-.8.3-1.8.7-3.8 1-5.8.9h-.9c-.7-.1-1.4-.2-2.1-.4-1.4-.4-2.7-.9-3.8-1.5-.2-.1-.5-.3-.7-.4-1.4-.9-2.7-2-3.7-3.2l-.6-.6c-1.1-1.3-2-2.7-2.8-4.1-.1-.2-.3-.5-.4-.8-2.7-5.3-3.5-10.6-3.5-10.6l5.3-.3s1 3.5 3 7.1c.1.2.3.5.4.8.6 1 1.3 2.1 2.1 3 .2.2.4.5.6.7.6.7 1.3 1.3 2 1.8.2.2.5.3.7.5.9.6 1.9 1 3 1.1h1.1c.9 0 1.8-.2 2.7-.5.3-.1.5-.2.8-.3.9-.4 1.7-.9 2.6-1.4.2-.1.5-.3.7-.5 1-.8 2.1-1.6 3.1-2.6l.6-.6c1.1-1.1 2.1-2.2 3.1-3.4.2-.2.4-.4.6-.7 1-1.3 2-2.5 2.8-3.7.2-.2.3-.5.5-.7 1.5-2.1 2.4-3.6 2.4-3.6h8.5z" class="st28"/>
    <path d="m312 301.7-4.9 2.7s-3.9-8.1-2.4-15.2l8.8-2.2s1.2 6.4-1.5 14.7z" class="st8"/>
    <path d="M348.2 303.9c-.1.2-.3.5-.5.7l-6.6-3.9c.2-.2.3-.5.5-.7l6.6 3.9zm-3.6 4.9c-.2.2-.3.5-.5.7l-6.3-4.5c.2-.2.4-.4.6-.7l6.2 4.5zm-4.1 4.8-.6.6-5.9-5.2.6-.6 5.9 5.2zm-4.9 4.1c-.2.2-.5.3-.7.5l-4.6-6.1c.2-.1.5-.3.7-.5l4.6 6.1zm-4.6 2.6c-.3.1-.5.2-.8.3l-3.3-6.8c.3-.1.5-.2.8-.3l3.3 6.8zm-6.6 1.2h-.9l-.2-7.1h.8l.3 7.1zm-4.4-8.3-2.4 6.3c-.2-.1-.5-.3-.7-.4l2.4-6.3c.2.1.5.3.7.4zm-2.7-2.3-4.2 4.9-.6-.6 4.2-4.9.6.6zm-2.7-3.7-4.8 3.8c-.1-.2-.3-.5-.4-.8l4.8-3.8c.2.3.3.6.4.8z" class="st9"/>
    <path d="M328.2 295.6c.1.8-.5 1.5-1.3 1.5h-14.5c-.8 0-1.5-.7-1.6-1.5l-3.2-28.6c-.1-.8.5-1.7 1.3-1.7h14.5c.8 0 1.5.8 1.6 1.7l3.2 28.6z" class="st10"/>
    <path d="m323.4 266.9 3.3 28.8c.1.8-.3 1.4-1.1 1.4h-12.3c-.8 0-2.3-.5-2.4-1.3l-3.3-28.9c-.1-.8 1.3-1.5 2.1-1.5H322c.8 0 1.3.7 1.4 1.5z" class="st11"/>
    <ellipse cx="325.2" cy="386.4" class="st10" rx="23.6" ry="30.3"/>
    <ellipse cx="330.9" cy="386.4" class="st9" rx="16.6" ry="21.3"/>
    <path d="m415.2 370.8-18.5 19.4-59-2.7-13.4-14.6 8.2-19c.5-1.1 1.6-1.8 2.8-1.8h14.8c.8 0 1.6.4 2.2 1l.9 1 4.1 4.4c.6.6 1.4 1 2.2 1h11.4c.6 0 1.1-.2 1.6-.5l9.9-6.3c.5-.3 1-.5 1.6-.5h20.3c1.2 0 2.2.7 2.7 1.7l8.2 16.9z" class="st8"/>
    <path d="m376.8 373 9.9-16.7c.6-.9 1.5-1.5 2.6-1.5h14.3c1.2 0 2.3.7 2.8 1.9l6.1 14.5-8.2 14.3-21.2-.8-6.3-12.4m5.8-19.8-8.6 14.3c-.6 1-1.7 1.6-2.9 1.6H334c-1.5 0-2.5-1.5-1.9-2.9l4.2-10.1c.4-1 1.3-1.6 2.4-1.6h14.7l4.1 4.4c.6.6 1.4 1 2.2 1h11.4c.6 0 1.1-.2 1.6-.5l9.9-6.2z" class="st9"/>
    <path d="M399 404.2h-61.8c-2.7 0-5.2-1.2-6.9-3.2L320 388.7c-1.4-1.6-2.1-3.7-2.1-5.8v-8.4c0-2 1.6-3.6 3.6-3.6H399c2 0 3.6 1.6 3.6 3.6v26.1c.1 1.9-1.5 3.6-3.6 3.6z" class="st10"/>
    <path d="M402.7 374.4v26.1c0 2-1.6 3.6-3.6 3.6h-61.8c-2.7 0-5.2-1.2-6.9-3.2L320 388.7c-1.4-1.6-2.1-3.7-2.1-5.8v-8.4c0-2 1.6-3.6 3.7-3.6H399c2.1-.1 3.7 1.5 3.7 3.5z" class="st25"/>
    <path d="M402.7 374.4v26.1c0 2-1.6 3.6-3.6 3.6h-8.8c-2.7 0-5.2-1.2-6.9-3.2L373 388.7c-1.4-1.6-2.1-3.7-2.1-5.8v-8.4c0-2 1.6-3.6 3.7-3.6H399c2.1-.1 3.7 1.5 3.7 3.5z" class="st9"/>
    <path d="m347.9 404.1-9.4-12.3c-1.6-2.1-4.9-3.8-7.3-3.8-.7 0-1.3.2-1.7.5l-.9.7c-.8.6-.8 1.8.3 3.2l9.3 12.2c.4.5 1 .8 1.7.8h9.5c.7 0 1.3-.6 1.3-1.3h-2.8z" class="st10"/>
    <path d="M330.2 388.7c-2.3 0-2.9 1.7-1.3 3.7l9.3 12.2c.4.5 1 .8 1.7.8h8.7-.6c-.5 0-1.1-.3-1.4-.7l-9.5-12.4c-1.5-2-4.6-3.6-6.9-3.6z" class="st28"/>
    <path d="m362.1 404.1-9.4-12.3c-1.6-2.1-4.9-3.8-7.3-3.8-.7 0-1.3.2-1.7.5l-.9.7c-.8.6-.8 1.8.3 3.2l9.3 12.2c.4.5 1 .8 1.7.8h9.5c.7 0 1.3-.6 1.3-1.3h-2.8z" class="st10"/>
    <path d="M344.4 388.7c-2.3 0-2.9 1.7-1.3 3.7l9.3 12.2c.4.5 1 .8 1.7.8h8.7-.5c-.5 0-1.1-.3-1.4-.7l-9.5-12.4c-1.6-2-4.7-3.6-7-3.6z" class="st28"/>
    <path d="m376.3 404.1-9.4-12.3c-1.6-2.1-4.9-3.8-7.3-3.8-.7 0-1.3.2-1.7.5l-.9.7c-.8.6-.8 1.8.3 3.2l9.3 12.2c.4.5 1 .8 1.7.8h9.5c.7 0 1.3-.6 1.3-1.3h-2.8z" class="st10"/>
    <path d="M358.6 388.7c-2.3 0-2.9 1.7-1.3 3.7l9.3 12.2c.4.5 1 .8 1.7.8h8.7-.5c-.5 0-1.1-.3-1.4-.7l-9.5-12.4c-1.6-2-4.7-3.6-7-3.6z" class="st28"/>
    <ellipse cx="411.2" cy="386.4" class="st10" rx="23.6" ry="30.3"/>
    <ellipse cx="416.9" cy="386.4" class="st8" rx="16.6" ry="21.3"/>
    <path d="M432.1 395.1c-2.6 7.4-8.4 12.6-15.2 12.6-9.2 0-16.6-9.5-16.6-21.3 0-8.3 3.7-15.5 9.1-19-.9 2.7-1.5 5.6-1.5 8.7 0 11.8 7.4 21.3 16.6 21.3 2.7.1 5.3-.8 7.6-2.3z" class="st9"/>
    <path d="M349.9 339.7v20.6c0 1.1.9 1.9 1.9 1.9h21.9c.6 0 1.1-.2 1.4-.7l7.2-8.3c.7-.8 1.6-1.2 2.7-1.2h2.9v-12.3h-38z" class="st10"/>
    <path d="M387.9 339.7V352H385c-.7 0-1.4.2-2 .6-.2.2-.5.4-.7.6l-2.4 2.8-.7.9-2.9 3.4-.8.9-.4.4c-.4.4-.9.7-1.5.7h-21.9c-.8 0-1.4-.5-1.7-1.1-.1-.2-.2-.5-.2-.8v-20.6h38.1z" class="st25"/>
    <path d="M349.9 343.3h38v.9h-38zm0 4.3h38v.9h-38zm38 4.2v.2H385c-.7 0-1.4.2-2 .6h-33.1v-.9h38zm-7.9 4.3-.8.8h-29.3v-.8zm-3.7 4.2-.8.9h-25.4c-.1-.2-.2-.5-.2-.8h26.4z" class="st9"/>
    <path d="M387.9 339.7v4.6c-5.9 1.5-23.2 5.5-38 6v-10.6h38z" class="st9"/>
    <path d="M354.3 276.9h29.1V293h-29.1z" class="st10"/>
    <path d="M354.3 276.9h29.1V293h-29.1z" class="st25"/>
    <path d="M354.3 282.5h29.1v.8h-29.1zm0 3.5h29.1v.8h-29.1zm0 3.5h29.1v.8h-29.1z" class="st9"/>
    <path d="M383.4 276.9v4.1c-7.4 2.7-19.6 6.4-29.1 6.1V277h29.1z" class="st9"/>
    <path d="M395.4 231.1h-50.9c-6.1 0-11.1 5-11.1 11.1v28.5c0 6.1 5 11.1 11.1 11.1h50.9c6.1 0 11.1-5 11.1-11.1v-28.5c0-6.1-4.9-11.1-11.1-11.1z" class="st8"/>
    <path d="M406.5 242.2v28.5c0 6.1-5 11.1-11.1 11.1h-20c6.1 0 11.1-5 11.1-11.1v-28.5c0-6.1-5-11.1-11.1-11.1h20c6.1 0 11.1 5 11.1 11.1z" class="st9"/>
    <path d="M374.8 276.9h-30.2c-3.8 0-6.8-3-6.8-6.8v-27.3c0-3.8 3-6.8 6.8-6.8h30.2c3.8 0 6.8 3 6.8 6.8v27.3c0 3.8-3 6.8-6.8 6.8z" class="st10"/>
    <path fill="none" stroke="#263238" stroke-miterlimit="10" d="M400 250.2V217"/>
    <path d="M409.1 256.5c0 1.8-.4 3.5-1.1 5-.5 1.2-1.2 2.2-2 3.1-1.6 1.7-3.7 2.8-6 2.8-5 0-9.1-4.9-9.1-10.9s4.1-10.9 9.1-10.9c2.3 0 4.4 1.1 6.1 2.8.8.9 1.5 1.9 2 3.1.6 1.4 1 3.2 1 5z" class="st8"/>
    <path d="M403.2 264.3c-3.5 0-6.4-3.5-6.4-7.8s2.9-7.8 6.4-7.8c2 0 3.7 1.1 4.9 2.8-.5-1.2-1.2-2.2-2-3.1-.9-.4-1.9-.7-2.9-.7-4.1 0-7.4 3.9-7.4 8.8s3.3 8.8 7.4 8.8c1 0 2-.2 2.9-.7.8-.9 1.5-1.9 2-3.1-1.2 1.7-3 2.8-4.9 2.8z" class="st26"/>
    <path d="M370 250.2c0 1.8-.8 3.2-1.8 3.2s-1.8-1.4-1.8-3.2c0-1.8.8-3.2 1.8-3.2s1.8 1.4 1.8 3.2zm-19 0c0 1.8-.8 3.2-1.8 3.2s-1.8-1.4-1.8-3.2c0-1.8.8-3.2 1.8-3.2s1.8 1.4 1.8 3.2z" class="st6"/>
    <path d="M358.6 264.9c2 1.9 4.8 6 4.8 6l1.2-.6c5.5-2.7 7.1-5.8 7.3-8.3.1-1.4-.3-2.7-.7-3.7-.5-1.1-1.1-1.8-1.1-1.8-2.1 3.2-7 6.1-9.7 7.5-1 .6-1.8.9-1.8.9z" class="st27"/>
    <path d="m360.5 264 1.5 1.7c5.2-2.6 8.5-5 9.3-7.4-.5-1.1-1.1-1.8-1.1-1.8-2.1 3.1-7 6-9.7 7.5z" class="st6"/>
    <path d="M364.7 270.3c5.5-2.7 7.1-5.8 7.3-8.3-1.8 1-3.9 2.4-5.5 4.2a6.79 6.79 0 0 0-1.8 4.1zm39.7 31.6v29.8c0 5.9-4.8 10.7-10.7 10.7h-47.5c-5.9 0-10.7-4.8-10.7-10.7v-29.8c0-5.9 4.8-10.7 10.7-10.7h47.5c5.9 0 10.7 4.8 10.7 10.7z" class="st8"/>
    <path d="M404.4 301.9v29.8c0 5.9-4.8 10.7-10.7 10.7h-5.5c-5.9 0-10.7-4.8-10.7-10.7v-29.8c0-5.9 4.8-10.7 10.7-10.7h5.5c5.9 0 10.7 4.8 10.7 10.7z" class="st9"/>
    <path d="M329.6 298.3v-8.4l-3.3-6.1.4 9.2zm-24.9-9.3 1.1-1.8 1.8-.9v-2.1l3.3-3.3 2.2 3.2-1.1.9-1.3-.6-.2 1.5h1.7l1.6 4.7-1 .8.4 2.3-2.5 1.6-2.6-1 .6-1.6s-4 .4-4-3.7zm87.1 9.4c3.1 0 5.3 3.1 4.3 6-2.7 7.9-10.4 20.6-33 20.6-24.9 0-39.2-22.3-39.2-22.3l5.7-4.4s12.6 18.6 33.3 18.6c17.1 0 22.8-10.2 24.6-15.4.6-1.9 2.4-3.1 4.3-3.1z" class="st10"/>
    <path d="M396.1 304.4c-.3 1-.7 2-1.2 3.1-.1.3-.2.5-.4.8-.8 1.6-1.8 3.2-3 4.8-.2.2-.3.5-.5.7-1.5 1.9-3.4 3.7-5.8 5.3-.2.2-.5.3-.7.5-2 1.3-4.2 2.4-6.9 3.3-.3.1-.5.2-.8.3-2.3.7-4.9 1.3-7.7 1.6-.3 0-.6.1-.8.1-1.6.1-3.3.2-5.1.2-.9 0-1.7 0-2.5-.1-.3 0-.6 0-.9-.1-2.3-.2-4.5-.6-6.7-1.1-.3-.1-.6-.1-.8-.2-2.6-.7-5.1-1.7-7.4-2.7-.3-.1-.5-.2-.8-.4-2.5-1.2-4.7-2.6-6.8-4.1-.2-.2-.5-.3-.7-.5-2.3-1.7-4.2-3.4-5.9-5l-.6-.6c-4.1-4.1-6.3-7.5-6.3-7.5l5.7-4.4s1.9 2.9 5.5 6.3l.6.6c1.4 1.3 3.1 2.7 5 4.1.2.2.5.3.7.5 1.8 1.2 3.8 2.4 5.9 3.4.3.1.5.2.8.4 1.8.8 3.8 1.5 5.9 2.1.3.1.6.1.8.2 1.8.4 3.6.7 5.5.9.3 0 .6 0 .9.1h1.7c1.6 0 3.1-.1 4.4-.2.3 0 .6-.1.9-.1 2.1-.3 4-.8 5.7-1.4.3-.1.5-.2.8-.3 1.8-.7 3.3-1.5 4.6-2.5.2-.2.5-.3.7-.5 1.5-1.2 2.8-2.5 3.8-3.8.2-.2.4-.5.5-.7.9-1.2 1.6-2.5 2.1-3.6.1-.3.2-.5.3-.8.2-.6.4-1.1.6-1.6.6-1.8 2.4-3.1 4.3-3.1 3.5 0 5.6 3 4.6 6z" class="st25"/>
    <path d="M324.8 286.8s-5.6-3.7-6.1-3.5c-.5.2-3.9 3.5-3.9 3.5l.9 1.4-1.9 2.2.6.9-1.4 2.5 3.5 4.5h4.2l4.1-11.5z" class="st10"/>
    <path d="m324.8 304 5.8-4.4s-4.5-12.2-5.8-12.8c-1.3-.6-9.1 6.1-9.1 7.2.1 1 6.2 8.3 9.1 10z" class="st8"/>
    <path d="M394.9 307.5c-.1.3-.2.5-.4.8l-8-4.5c.1-.3.2-.5.3-.8l8.1 4.5zm-3.4 5.6c-.2.2-.3.5-.5.7l-7.1-5.7c.2-.2.4-.5.5-.7l7.1 5.7zm-6.3 6c-.2.2-.5.3-.7.5l-5.1-7.2c.2-.2.5-.3.7-.5l5.1 7.2zm-7.6 3.7c-.3.1-.5.2-.8.3l-2.9-8c.3-.1.5-.2.8-.3l2.9 8zm-8.5 1.9c-.3 0-.6.1-.8.1l-.9-8.2c.3 0 .6-.1.9-.1l.8 8.2zm-7.9-7.9-.5 8.1c-.3 0-.6 0-.9-.1l.5-8.1c.3.1.6.1.9.1zm-6.3-.9-1.7 7.9c-.3-.1-.6-.1-.8-.2l1.7-7.9c.2.1.5.1.8.2zm-6.8-2.3-3.2 7.2c-.3-.1-.5-.2-.8-.4l3.2-7.2c.3.2.6.3.8.4zm-6.6-3.8-4 6.6c-.2-.2-.5-.3-.7-.5l4-6.6c.2.2.4.3.7.5zm-5.7-4.6-4.9 5.6-.6-.6 4.9-5.6.6.6z" class="st9"/>
  </g>
</svg>