<!--
  The SVG images in this document are the property of botstudioo.com.
  All rights reserved. Unauthorized use, reproduction, or distribution
  is strictly prohibited. For inquiries, please contact contact@botstudioo.com.

  © 2024 Absyro Company.
-->

<svg xmlns="http://www.w3.org/2000/svg" viewBox="0 0 3120.3 3603.01">
  <linearGradient gradientUnits="userSpaceOnUse" id="gradient" x1="-95.93" y1="3936.25" x2="3159.75" y2="-260.43">
    <stop offset="0" stop-color="#0096FF"/>
    <stop offset="1" stop-color="#6c63ff"/>
  </linearGradient>
	<path fill="url(#gradient)" d="m1561.86,2285.55h56.1c.07,0,.14,0,.21-.01,264.56-31.38,464.18-274.61,424.39-555.34-29.71-209.64-192.97-376.36-402.06-409.75-304.77-48.67-567.85,185.48-567.85,481.05,0,268.65,217.33,486.55,485.76,487.48.95,0,1.72-.77,1.72-1.72h0c0-.95.77-1.71,1.71-1.71ZM1956.76,231.94c0-1.32,1.43-2.14,2.57-1.48l380.9,219.91,779.22,449.89c.53.31.86.87.86,1.48v1799.53c0,.61-.33,1.18-.86,1.48l-779.22,449.88-777.51,448.89c-1.14.66-2.57-.16-2.57-1.48v-912.75c0-.94-.76-1.71-1.71-1.71-487.48-.92-882.37-396.38-882.37-884.08,0-345.27,197.95-644.27,486.54-789.82.58-.29.94-.88.94-1.52v-320.27c0-1.32-1.43-2.14-2.57-1.48l-763.52,440.82c-.53.31-.86.87-.86,1.48v1341.57c0,.61.33,1.18.86,1.48l765.23,441.81c.53.31.86.87.86,1.48v454c0,1.32-1.43,2.14-2.57,1.48l-380.9-219.91L.86,2702.75c-.53-.31-.86-.87-.86-1.48V901.74c0-.61.33-1.18.86-1.48l779.22-449.89L1557.58,1.48c1.14-.66,2.57.16,2.57,1.48v912.75c0,.94.76,1.71,1.71,1.71,487.48.92,882.37,396.38,882.37,884.07,0,345.27-197.95,644.27-486.54,789.82-.58.29-.94.88-.94,1.52v320.26c0,1.32,1.43,2.14,2.57,1.48l763.52-440.82c.53-.31.86-.87.86-1.48v-1341.57c0-.61-.33-1.18-.86-1.48l-765.23-441.81c-.53-.31-.86-.87-.86-1.48V231.94Z"/>
</svg>