<!--
  The SVG images in this document are the property of www.botstudioo.com.
  All rights reserved. Unauthorized use, reproduction, or distribution
  is strictly prohibited. For inquiries, please contact contact@botstudioo.com.

  © 2024 Absyro Company.
-->

<svg xmlns="http://www.w3.org/2000/svg" viewBox="0 0 375 374.999991">
  <path stroke-width="4" stroke="#1f1f1f" d="M 187.5 0 L 375 187.5 L 187.5 375 L 0 187.5 Z M 187.5 0" fill="#ffffff"/>
  <path stroke-width="4" stroke="#1f1f1f" d="M -0.000006 2.000016 L 500.000027 2.000016" transform="matrix(0.000547348, -0.75, 0.75, 0.000547348, 185.999757, 374.998658)"/>
  <path stroke-width="4" stroke="#1f1f1f" d="M -0.000006 2.000016 L 500.000027 2.000016" transform="matrix(0.75, 0, 0, 0.75, 0.0000045, 185.999988)"/>
  <path fill="#1f1f1f" d="M 262.5 112.5 L 112.5 112.5 L 37.5 187.5 L 112.5 262.5 L 262.5 262.5 L 337.5 187.5 Z M 262.5 112.5"/>
  <path fill="#ffffff" d="M 151.28125 187.5 L 123.15625 215.625 L 95.03125 187.5 L 123.15625 159.375 Z M 151.28125 187.5"/>
  <path fill="#ffffff" d="M 223.71875 187.5 L 251.84375 159.375 L 279.96875 187.5 L 251.84375 215.625 Z M 223.71875 187.5"/>
</svg>